ParibartanFColr0.ttx.ufo
<glyph name="exclam" format="2">
  <advance width="252"/>
  <unicode hex="0021"/>
  <outline>
    <contour>
      <point x="60" y="731" type="line"/>
      <point x="60" y="273" type="line"/>
      <point x="192" y="273" type="line"/>
      <point x="192" y="731" type="line"/>
    </contour>
    <contour>
      <point x="55" y="271" type="qcurve"/>
      <point x="55" y="733" type="line"/>
      <point x="55" y="736"/>
      <point x="58" y="736" type="qcurve"/>
      <point x="194" y="736" type="line"/>
      <point x="197" y="736"/>
      <point x="197" y="733" type="qcurve"/>
      <point x="197" y="271" type="line"/>
      <point x="197" y="268"/>
      <point x="194" y="268" type="qcurve"/>
      <point x="58" y="268" type="line"/>
      <point x="55" y="268"/>
    </contour>
    <contour>
      <point x="60" y="162" type="line"/>
      <point x="60" y="39" type="line"/>
      <point x="192" y="39" type="line"/>
      <point x="192" y="162" type="line"/>
    </contour>
    <contour>
      <point x="55" y="37" type="qcurve"/>
      <point x="55" y="164" type="line"/>
      <point x="55" y="167"/>
      <point x="58" y="167" type="qcurve"/>
      <point x="194" y="167" type="line"/>
      <point x="197" y="167"/>
      <point x="197" y="164" type="qcurve"/>
      <point x="197" y="37" type="line"/>
      <point x="197" y="34"/>
      <point x="194" y="34" type="qcurve"/>
      <point x="58" y="34" type="line"/>
      <point x="55" y="34"/>
    </contour>
  </outline>
</glyph>
<glyph name="quotedbl" format="2">
  <advance width="452"/>
  <unicode hex="0022"/>
  <outline>
    <contour>
      <point x="250" y="774" type="line"/>
      <point x="250" y="547" type="line"/>
      <point x="382" y="547" type="line"/>
      <point x="382" y="774" type="line"/>
    </contour>
    <contour>
      <point x="245" y="545" type="qcurve"/>
      <point x="245" y="776" type="line"/>
      <point x="245" y="778"/>
      <point x="248" y="778" type="qcurve"/>
      <point x="384" y="778" type="line"/>
      <point x="387" y="778"/>
      <point x="387" y="776" type="qcurve"/>
      <point x="387" y="545" type="line"/>
      <point x="387" y="543"/>
      <point x="384" y="543" type="qcurve"/>
      <point x="248" y="543" type="line"/>
      <point x="245" y="543"/>
    </contour>
    <contour>
      <point x="70" y="774" type="line"/>
      <point x="70" y="547" type="line"/>
      <point x="202" y="547" type="line"/>
      <point x="202" y="774" type="line"/>
    </contour>
    <contour>
      <point x="65" y="545" type="qcurve"/>
      <point x="65" y="776" type="line"/>
      <point x="65" y="778"/>
      <point x="68" y="778" type="qcurve"/>
      <point x="204" y="778" type="line"/>
      <point x="207" y="778"/>
      <point x="207" y="776" type="qcurve"/>
      <point x="207" y="545" type="line"/>
      <point x="207" y="543"/>
      <point x="204" y="543" type="qcurve"/>
      <point x="68" y="543" type="line"/>
      <point x="65" y="543"/>
    </contour>
  </outline>
</glyph>
<glyph name="numbersign" format="2">
  <advance width="644"/>
  <unicode hex="0023"/>
  <outline>
    <contour>
      <point x="155" y="596" type="qcurve"/>
      <point x="84" y="596" type="line"/>
      <point x="84" y="464" type="line"/>
      <point x="131" y="464" type="line"/>
      <point x="133" y="464"/>
      <point x="133" y="461" type="qcurve"/>
      <point x="133" y="461"/>
      <point x="117" y="373" type="qcurve"/>
      <point x="117" y="371"/>
      <point x="115" y="371" type="qcurve"/>
      <point x="84" y="371" type="line"/>
      <point x="84" y="239" type="line"/>
      <point x="91" y="239" type="line"/>
      <point x="93" y="239"/>
      <point x="93" y="236" type="qcurve"/>
      <point x="83" y="178" type="line"/>
      <point x="215" y="178" type="line"/>
      <point x="226" y="237" type="line"/>
      <point x="226" y="239"/>
      <point x="228" y="239" type="qcurve"/>
      <point x="361" y="239" type="line"/>
      <point x="363" y="239"/>
      <point x="363" y="236" type="qcurve"/>
      <point x="353" y="178" type="line"/>
      <point x="485" y="178" type="line"/>
      <point x="496" y="237" type="line"/>
      <point x="496" y="239"/>
      <point x="498" y="239" type="qcurve"/>
      <point x="570" y="239" type="line"/>
      <point x="570" y="371" type="line"/>
      <point x="522" y="371" type="line"/>
      <point x="520" y="371"/>
      <point x="520" y="373" type="qcurve"/>
      <point x="520" y="373"/>
      <point x="520" y="374" type="qcurve"/>
      <point x="535" y="462" type="line"/>
      <point x="536" y="464"/>
      <point x="538" y="464" type="qcurve"/>
      <point x="570" y="464" type="line"/>
      <point x="570" y="596" type="line"/>
      <point x="562" y="596" type="line"/>
      <point x="560" y="596"/>
      <point x="560" y="598" type="qcurve"/>
      <point x="560" y="598"/>
      <point x="560" y="599" type="qcurve"/>
      <point x="571" y="663" type="line"/>
      <point x="439" y="663" type="line"/>
      <point x="427" y="598" type="line"/>
      <point x="427" y="596"/>
      <point x="425" y="596" type="qcurve"/>
      <point x="292" y="596" type="line"/>
      <point x="290" y="596"/>
      <point x="290" y="598" type="qcurve"/>
      <point x="290" y="598"/>
      <point x="290" y="599" type="qcurve"/>
      <point x="301" y="663" type="line"/>
      <point x="169" y="663" type="line"/>
      <point x="157" y="598" type="line"/>
      <point x="157" y="596"/>
    </contour>
    <contour>
      <point x="167" y="667" type="qcurve"/>
      <point x="304" y="667" type="line"/>
      <point x="306" y="667"/>
      <point x="306" y="665" type="qcurve"/>
      <point x="306" y="664" type="line"/>
      <point x="295" y="600" type="line"/>
      <point x="423" y="600" type="line"/>
      <point x="435" y="665" type="line"/>
      <point x="435" y="667"/>
      <point x="437" y="667" type="qcurve"/>
      <point x="574" y="667" type="line"/>
      <point x="576" y="667"/>
      <point x="576" y="665" type="qcurve"/>
      <point x="576" y="664" type="line"/>
      <point x="565" y="600" type="line"/>
      <point x="572" y="600" type="line"/>
      <point x="574" y="600"/>
      <point x="574" y="598" type="qcurve"/>
      <point x="574" y="461" type="line"/>
      <point x="574" y="459"/>
      <point x="572" y="459" type="qcurve"/>
      <point x="540" y="459" type="line"/>
      <point x="525" y="376" type="line"/>
      <point x="572" y="376" type="line"/>
      <point x="574" y="376"/>
      <point x="574" y="373" type="qcurve"/>
      <point x="574" y="236" type="line"/>
      <point x="574" y="234"/>
      <point x="572" y="234" type="qcurve"/>
      <point x="500" y="234" type="line"/>
      <point x="489" y="176" type="line"/>
      <point x="489" y="174"/>
      <point x="487" y="174" type="qcurve"/>
      <point x="350" y="174" type="line"/>
      <point x="348" y="174"/>
      <point x="348" y="176" type="qcurve"/>
      <point x="348" y="177" type="line"/>
      <point x="358" y="234" type="line"/>
      <point x="230" y="234" type="line"/>
      <point x="219" y="176" type="line"/>
      <point x="219" y="174"/>
      <point x="217" y="174" type="qcurve"/>
      <point x="80" y="174" type="line"/>
      <point x="78" y="174"/>
      <point x="78" y="176" type="qcurve"/>
      <point x="78" y="177" type="line"/>
      <point x="88" y="234" type="line"/>
      <point x="82" y="234" type="line"/>
      <point x="80" y="234"/>
      <point x="80" y="236" type="qcurve"/>
      <point x="80" y="373" type="line"/>
      <point x="80" y="376"/>
      <point x="82" y="376" type="qcurve"/>
      <point x="113" y="376" type="line"/>
      <point x="128" y="459" type="line"/>
      <point x="82" y="459" type="line"/>
      <point x="80" y="459"/>
      <point x="80" y="461" type="qcurve"/>
      <point x="80" y="598" type="line"/>
      <point x="80" y="600"/>
      <point x="82" y="600" type="qcurve"/>
      <point x="153" y="600" type="line"/>
      <point x="165" y="665" type="line"/>
      <point x="165" y="667"/>
    </contour>
    <contour>
      <point x="383" y="376" type="line"/>
      <point x="398" y="459" type="line"/>
      <point x="270" y="459" type="line"/>
      <point x="255" y="376" type="line"/>
    </contour>
    <contour>
      <point x="385" y="371" type="qcurve"/>
      <point x="252" y="371" type="line"/>
      <point x="250" y="371"/>
      <point x="250" y="373" type="qcurve"/>
      <point x="250" y="373"/>
      <point x="250" y="374" type="qcurve"/>
      <point x="265" y="462" type="line"/>
      <point x="266" y="464"/>
      <point x="268" y="464" type="qcurve"/>
      <point x="401" y="464" type="line"/>
      <point x="403" y="464"/>
      <point x="403" y="461" type="qcurve"/>
      <point x="387" y="373" type="line"/>
      <point x="387" y="371"/>
    </contour>
  </outline>
</glyph>
<glyph name="dollar" format="2">
  <advance width="519"/>
  <unicode hex="0024"/>
  <outline>
    <contour>
      <point x="243" y="581" type="line"/>
      <point x="234" y="572"/>
      <point x="227" y="560" type="qcurve"/>
      <point x="202" y="519"/>
      <point x="222" y="470" type="qcurve"/>
      <point x="231" y="451"/>
      <point x="243" y="438" type="qcurve"/>
    </contour>
    <contour>
      <point x="50" y="52" type="qcurve"/>
      <point x="125" y="177" type="line"/>
      <point x="133" y="171"/>
      <point x="147" y="162" type="qcurve"/>
      <point x="185" y="140"/>
      <point x="228" y="150" type="qcurve"/>
      <point x="236" y="152"/>
      <point x="243" y="155" type="qcurve"/>
      <point x="243" y="305" type="line"/>
      <point x="233" y="308"/>
      <point x="222" y="310" type="qcurve"/>
      <point x="173" y="337"/>
      <point x="101" y="403"/>
      <point x="59" y="485"/>
      <point x="65" y="583"/>
      <point x="96" y="634" type="qcurve"/>
      <point x="147" y="718"/>
      <point x="243" y="753" type="qcurve"/>
      <point x="243" y="1025" type="line"/>
      <point x="322" y="1025" type="line"/>
      <point x="322" y="769" type="line"/>
      <point x="393" y="772"/>
      <point x="448" y="722" type="qcurve"/>
      <point x="451" y="719"/>
      <point x="466" y="710"/>
      <point x="469" y="707" type="qcurve"/>
      <point x="394" y="582" type="line"/>
      <point x="382" y="592"/>
      <point x="372" y="597" type="qcurve"/>
      <point x="348" y="610"/>
      <point x="322" y="611" type="qcurve"/>
      <point x="322" y="396" type="line"/>
      <point x="351" y="378"/>
      <point x="373" y="361" type="qcurve"/>
      <point x="406" y="334"/>
      <point x="455" y="264"/>
      <point x="452" y="176"/>
      <point x="422" y="125" type="qcurve"/>
      <point x="387" y="66"/>
      <point x="322" y="27" type="qcurve"/>
      <point x="322" y="-187" type="line"/>
      <point x="243" y="-187" type="line"/>
      <point x="243" y="-5" type="line"/>
      <point x="217" y="-11"/>
      <point x="192" y="-11" type="qcurve"/>
      <point x="125" y="-12"/>
      <point x="71" y="37" type="qcurve"/>
      <point x="68" y="40"/>
      <point x="53" y="49"/>
    </contour>
  </outline>
</glyph>
<glyph name="percent" format="2">
  <advance width="691"/>
  <unicode hex="0025"/>
  <outline>
    <contour>
      <point x="210" y="474" type="qcurve"/>
      <point x="220" y="474" type="line"/>
      <point x="268" y="474"/>
      <point x="334" y="540"/>
      <point x="334" y="587" type="qcurve"/>
      <point x="334" y="634"/>
      <point x="268" y="700"/>
      <point x="220" y="700" type="qcurve"/>
      <point x="210" y="700" type="line"/>
      <point x="166" y="697"/>
      <point x="104" y="631"/>
      <point x="104" y="542"/>
      <point x="166" y="477"/>
    </contour>
    <contour>
      <point x="220" y="469" type="qcurve"/>
      <point x="210" y="469" type="line"/>
      <point x="164" y="473"/>
      <point x="100" y="540"/>
      <point x="100" y="633"/>
      <point x="164" y="702"/>
      <point x="210" y="705" type="qcurve"/>
      <point x="220" y="705" type="line"/>
      <point x="269" y="705"/>
      <point x="338" y="636"/>
      <point x="338" y="587" type="qcurve"/>
      <point x="338" y="538"/>
      <point x="269" y="469"/>
    </contour>
    <contour>
      <point x="222" y="633"/>
      <point x="216" y="633"/>
      <point x="209" y="631" type="qcurve"/>
      <point x="209" y="631"/>
      <point x="208" y="631" type="qcurve"/>
      <point x="207" y="631"/>
      <point x="207" y="632" type="qcurve"/>
      <point x="192" y="628"/>
      <point x="173" y="603"/>
      <point x="173" y="570"/>
      <point x="191" y="546"/>
      <point x="207" y="542" type="qcurve"/>
      <point x="207" y="543"/>
      <point x="208" y="543" type="qcurve"/>
      <point x="209" y="543"/>
      <point x="209" y="543" type="qcurve"/>
      <point x="216" y="541"/>
      <point x="222" y="541"/>
      <point x="229" y="543" type="qcurve"/>
      <point x="230" y="543"/>
      <point x="230" y="543" type="qcurve"/>
      <point x="231" y="543"/>
      <point x="231" y="542" type="qcurve"/>
      <point x="247" y="546"/>
      <point x="265" y="570"/>
      <point x="265" y="603"/>
      <point x="247" y="628"/>
      <point x="231" y="632" type="qcurve"/>
      <point x="231" y="631"/>
      <point x="230" y="631" type="qcurve"/>
      <point x="230" y="631"/>
      <point x="229" y="631" type="qcurve"/>
    </contour>
    <contour>
      <point x="485" y="113" type="qcurve"/>
      <point x="494" y="113" type="line"/>
      <point x="542" y="113"/>
      <point x="608" y="179"/>
      <point x="608" y="226" type="qcurve"/>
      <point x="608" y="273"/>
      <point x="542" y="340"/>
      <point x="494" y="340" type="qcurve"/>
      <point x="485" y="340" type="line"/>
      <point x="440" y="336"/>
      <point x="379" y="271"/>
      <point x="379" y="181"/>
      <point x="440" y="116"/>
    </contour>
    <contour>
      <point x="494" y="108" type="qcurve"/>
      <point x="485" y="108" type="line"/>
      <point x="484" y="108"/>
      <point x="484" y="108" type="qcurve"/>
      <point x="438" y="112"/>
      <point x="374" y="179"/>
      <point x="374" y="272"/>
      <point x="438" y="341"/>
      <point x="484" y="344" type="qcurve"/>
      <point x="484" y="344"/>
      <point x="485" y="344" type="qcurve"/>
      <point x="494" y="344" type="line"/>
      <point x="544" y="344"/>
      <point x="613" y="275"/>
      <point x="613" y="226" type="qcurve"/>
      <point x="613" y="177"/>
      <point x="544" y="108"/>
    </contour>
    <contour>
      <point x="497" y="272"/>
      <point x="490" y="272"/>
      <point x="483" y="270" type="qcurve"/>
      <point x="482" y="270"/>
      <point x="481" y="271" type="qcurve"/>
      <point x="466" y="267"/>
      <point x="447" y="242"/>
      <point x="447" y="210"/>
      <point x="466" y="185"/>
      <point x="481" y="182" type="qcurve"/>
      <point x="482" y="182"/>
      <point x="483" y="182" type="qcurve"/>
      <point x="490" y="180"/>
      <point x="497" y="180"/>
      <point x="504" y="182" type="qcurve"/>
      <point x="505" y="182"/>
      <point x="506" y="182" type="qcurve"/>
      <point x="521" y="185"/>
      <point x="540" y="210"/>
      <point x="540" y="242"/>
      <point x="521" y="267"/>
      <point x="506" y="271" type="qcurve"/>
      <point x="505" y="270"/>
      <point x="504" y="270" type="qcurve"/>
    </contour>
    <contour>
      <point x="608" y="717" type="line"/>
      <point x="517" y="770" type="line"/>
      <point x="83" y="18" type="line"/>
      <point x="174" y="-35" type="line"/>
    </contour>
    <contour>
      <point x="614" y="718" type="qcurve"/>
      <point x="614" y="717"/>
      <point x="613" y="717" type="qcurve"/>
      <point x="177" y="-39" type="line"/>
      <point x="176" y="-40"/>
      <point x="175" y="-40" type="qcurve"/>
      <point x="174" y="-40"/>
      <point x="174" y="-40" type="qcurve"/>
      <point x="78" y="15" type="line"/>
      <point x="77" y="16"/>
      <point x="77" y="17" type="qcurve"/>
      <point x="77" y="18"/>
      <point x="78" y="18" type="qcurve"/>
      <point x="514" y="774" type="line"/>
      <point x="515" y="775"/>
      <point x="516" y="775" type="qcurve"/>
      <point x="517" y="775"/>
      <point x="517" y="775" type="qcurve"/>
      <point x="613" y="720" type="line"/>
      <point x="614" y="719"/>
    </contour>
    <contour>
      <point x="215" y="638"/>
      <point x="223" y="638"/>
      <point x="228" y="636" type="qcurve"/>
      <point x="229" y="637"/>
      <point x="230" y="637" type="qcurve"/>
      <point x="248" y="633"/>
      <point x="270" y="605"/>
      <point x="270" y="568"/>
      <point x="248" y="541"/>
      <point x="230" y="538" type="qcurve"/>
      <point x="229" y="538"/>
      <point x="228" y="538" type="qcurve"/>
      <point x="223" y="537"/>
      <point x="215" y="537"/>
      <point x="210" y="538" type="qcurve"/>
      <point x="209" y="538"/>
      <point x="208" y="538" type="qcurve"/>
      <point x="190" y="541"/>
      <point x="168" y="568"/>
      <point x="168" y="605"/>
      <point x="190" y="633"/>
      <point x="208" y="637" type="qcurve"/>
      <point x="209" y="637"/>
      <point x="210" y="636" type="qcurve"/>
    </contour>
    <contour>
      <point x="490" y="277"/>
      <point x="497" y="277"/>
      <point x="503" y="275" type="qcurve"/>
      <point x="504" y="276"/>
      <point x="504" y="276" type="qcurve"/>
      <point x="505" y="276" type="line"/>
      <point x="522" y="272"/>
      <point x="544" y="244"/>
      <point x="544" y="207"/>
      <point x="522" y="180"/>
      <point x="505" y="177" type="qcurve"/>
      <point x="505" y="177"/>
      <point x="504" y="177" type="qcurve"/>
      <point x="504" y="177"/>
      <point x="503" y="177" type="qcurve"/>
      <point x="497" y="176"/>
      <point x="490" y="176"/>
      <point x="484" y="177" type="qcurve"/>
      <point x="484" y="177"/>
      <point x="483" y="177" type="qcurve"/>
      <point x="482" y="177" type="line"/>
      <point x="465" y="180"/>
      <point x="443" y="207"/>
      <point x="443" y="244"/>
      <point x="465" y="272"/>
      <point x="482" y="276" type="qcurve"/>
      <point x="483" y="276" type="line"/>
      <point x="484" y="276"/>
      <point x="484" y="275" type="qcurve"/>
    </contour>
  </outline>
</glyph>
<glyph name="ampersand" format="2">
  <advance width="650"/>
  <unicode hex="0026"/>
  <outline>
    <contour>
      <point x="322.667" y="153" type="qcurve"/>
      <point x="209.667" y="267" type="line"/>
      <point x="208.667" y="261"/>
      <point x="208.667" y="255" type="qcurve"/>
      <point x="208.667" y="211"/>
      <point x="270.667" y="149"/>
      <point x="315.667" y="149" type="qcurve"/>
      <point x="316.667" y="149"/>
    </contour>
    <contour>
      <point x="389.667" y="805" type="qcurve"/>
      <point x="386.667" y="686" type="line"/>
      <point x="368.667" y="685"/>
      <point x="239.667" y="615"/>
      <point x="224.667" y="600" type="qcurve"/>
      <point x="190.667" y="566"/>
      <point x="193.667" y="516" type="qcurve"/>
      <point x="216.667" y="493" type="line"/>
      <point x="263.667" y="513"/>
      <point x="315.667" y="513" type="qcurve"/>
      <point x="328.667" y="513"/>
      <point x="341.667" y="512" type="qcurve"/>
      <point x="341.667" y="368" type="line"/>
      <point x="452.667" y="257" type="line"/>
      <point x="565.667" y="349"/>
      <point x="569.667" y="350" type="qcurve"/>
      <point x="569.667" y="197" type="line"/>
      <point x="566.667" y="197"/>
      <point x="536.667" y="173" type="qcurve"/>
      <point x="600.667" y="109" type="line"/>
      <point x="482.667" y="-9" type="line"/>
      <point x="406.667" y="68" type="line"/>
      <point x="319.667" y="-2"/>
      <point x="315.667" y="-2" type="qcurve"/>
      <point x="208.667" y="-2"/>
      <point x="57.667" y="148"/>
      <point x="57.667" y="255" type="qcurve"/>
      <point x="57.667" y="325"/>
      <point x="92.667" y="385" type="qcurve"/>
      <point x="76.667" y="401" type="line"/>
      <point x="56.667" y="437"/>
      <point x="46.667" y="513"/>
      <point x="66.667" y="594"/>
      <point x="93.667" y="662"/>
      <point x="117.667" y="707" type="qcurve"/>
      <point x="130.667" y="731"/>
      <point x="251.667" y="787"/>
      <point x="373.667" y="815"/>
    </contour>
  </outline>
</glyph>
<glyph name="quotesingle" format="2">
  <advance width="252"/>
  <unicode hex="0027"/>
  <outline>
    <contour>
      <point x="60" y="774" type="line"/>
      <point x="60" y="547" type="line"/>
      <point x="192" y="547" type="line"/>
      <point x="192" y="774" type="line"/>
    </contour>
    <contour>
      <point x="55" y="545" type="qcurve"/>
      <point x="55" y="776" type="line"/>
      <point x="55" y="778"/>
      <point x="58" y="778" type="qcurve"/>
      <point x="194" y="778" type="line"/>
      <point x="197" y="778"/>
      <point x="197" y="776" type="qcurve"/>
      <point x="197" y="545" type="line"/>
      <point x="197" y="543"/>
      <point x="194" y="543" type="qcurve"/>
      <point x="58" y="543" type="line"/>
      <point x="55" y="543"/>
    </contour>
  </outline>
</glyph>
<glyph name="parenleft" format="2">
  <advance width="555"/>
  <unicode hex="0028"/>
  <outline>
    <contour>
      <point x="417" y="731" type="qcurve"/>
      <point x="324" y="731"/>
      <point x="166" y="637"/>
      <point x="75" y="475"/>
      <point x="75" y="380" type="qcurve"/>
      <point x="75" y="284"/>
      <point x="166" y="122"/>
      <point x="324" y="28"/>
      <point x="417" y="28" type="qcurve"/>
      <point x="446" y="28"/>
      <point x="472" y="32" type="qcurve"/>
      <point x="416" y="46" type="line"/>
      <point x="373" y="46"/>
      <point x="282" y="99"/>
      <point x="210" y="187"/>
      <point x="164" y="312"/>
      <point x="164" y="378" type="qcurve"/>
      <point x="164" y="444"/>
      <point x="210" y="568"/>
      <point x="282" y="656"/>
      <point x="373" y="710"/>
      <point x="416" y="710" type="qcurve"/>
      <point x="473" y="727" type="line"/>
      <point x="447" y="731"/>
    </contour>
    <contour>
      <point x="417" y="705" type="line"/>
      <point x="374" y="705"/>
      <point x="286" y="653"/>
      <point x="214" y="566"/>
      <point x="169" y="443"/>
      <point x="169" y="378" type="qcurve"/>
      <point x="169" y="313"/>
      <point x="214" y="189"/>
      <point x="286" y="103"/>
      <point x="374" y="50"/>
      <point x="417" y="50" type="qcurve"/>
      <point x="483" y="34" type="line"/>
      <point x="484" y="33"/>
      <point x="484" y="30"/>
      <point x="483" y="29" type="qcurve"/>
      <point x="452" y="23"/>
      <point x="417" y="23" type="qcurve"/>
      <point x="322" y="23"/>
      <point x="163" y="118"/>
      <point x="70" y="283"/>
      <point x="70" y="380" type="qcurve"/>
      <point x="70" y="477"/>
      <point x="163" y="641"/>
      <point x="323" y="736"/>
      <point x="417" y="736" type="qcurve"/>
      <point x="452" y="736"/>
      <point x="483" y="730" type="qcurve"/>
      <point x="484" y="729"/>
      <point x="484" y="726"/>
      <point x="483" y="725" type="qcurve"/>
    </contour>
  </outline>
</glyph>
<glyph name="parenright" format="2">
  <advance width="555"/>
  <unicode hex="0029"/>
  <outline>
    <contour>
      <point x="391" y="378" type="qcurve"/>
      <point x="391" y="312"/>
      <point x="345" y="187"/>
      <point x="273" y="99"/>
      <point x="182" y="46"/>
      <point x="139" y="46" type="qcurve"/>
      <point x="83" y="32" type="line"/>
      <point x="109" y="28"/>
      <point x="138" y="28" type="qcurve"/>
      <point x="231" y="28"/>
      <point x="389" y="122"/>
      <point x="480" y="284"/>
      <point x="480" y="380" type="qcurve"/>
      <point x="480" y="475"/>
      <point x="389" y="637"/>
      <point x="231" y="731"/>
      <point x="138" y="731" type="qcurve"/>
      <point x="108" y="731"/>
      <point x="82" y="727" type="qcurve"/>
      <point x="139" y="710" type="line"/>
      <point x="182" y="710"/>
      <point x="273" y="656"/>
      <point x="345" y="568"/>
      <point x="391" y="444"/>
    </contour>
    <contour>
      <point x="70" y="726"/>
      <point x="70" y="729"/>
      <point x="72" y="730" type="qcurve"/>
      <point x="103" y="736"/>
      <point x="138" y="736" type="qcurve"/>
      <point x="232" y="736"/>
      <point x="392" y="641"/>
      <point x="484" y="477"/>
      <point x="484" y="380" type="qcurve"/>
      <point x="484" y="283"/>
      <point x="392" y="118"/>
      <point x="233" y="23"/>
      <point x="138" y="23" type="qcurve"/>
      <point x="103" y="23"/>
      <point x="72" y="29" type="qcurve"/>
      <point x="70" y="30"/>
      <point x="70" y="33"/>
      <point x="72" y="34" type="qcurve"/>
      <point x="138" y="50" type="line"/>
      <point x="181" y="50"/>
      <point x="269" y="103"/>
      <point x="341" y="189"/>
      <point x="386" y="313"/>
      <point x="386" y="378" type="qcurve"/>
      <point x="386" y="443"/>
      <point x="341" y="566"/>
      <point x="269" y="653"/>
      <point x="181" y="705"/>
      <point x="138" y="705" type="qcurve"/>
      <point x="72" y="725" type="line"/>
    </contour>
  </outline>
</glyph>
<glyph name="asterisk" format="2">
  <advance width="644"/>
  <unicode hex="002A"/>
  <outline>
    <contour>
      <point x="594" y="491" type="line"/>
      <point x="594" y="339" type="line"/>
      <point x="505" y="339" type="line"/>
      <point x="568" y="276" type="line"/>
      <point x="461" y="169" type="line"/>
      <point x="398" y="232" type="line"/>
      <point x="398" y="144" type="line"/>
      <point x="246" y="144" type="line"/>
      <point x="246" y="232" type="line"/>
      <point x="183" y="169" type="line"/>
      <point x="76" y="276" type="line"/>
      <point x="139" y="339" type="line"/>
      <point x="50" y="339" type="line"/>
      <point x="50" y="491" type="line"/>
      <point x="139" y="491" type="line"/>
      <point x="76" y="554" type="line"/>
      <point x="183" y="661" type="line"/>
      <point x="246" y="598" type="line"/>
      <point x="246" y="687" type="line"/>
      <point x="398" y="687" type="line"/>
      <point x="398" y="598" type="line"/>
      <point x="461" y="661" type="line"/>
      <point x="568" y="554" type="line"/>
      <point x="505" y="491" type="line"/>
    </contour>
  </outline>
</glyph>
<glyph name="plus" format="2">
  <advance width="644"/>
  <unicode hex="002B"/>
  <outline>
    <contour>
      <point x="246" y="687" type="line"/>
      <point x="398" y="687" type="line"/>
      <point x="398" y="491" type="line"/>
      <point x="594" y="491" type="line"/>
      <point x="594" y="339" type="line"/>
      <point x="398" y="339" type="line"/>
      <point x="398" y="144" type="line"/>
      <point x="246" y="144" type="line"/>
      <point x="246" y="339" type="line"/>
      <point x="50" y="339" type="line"/>
      <point x="50" y="491" type="line"/>
      <point x="246" y="491" type="line"/>
    </contour>
  </outline>
</glyph>
<glyph name="comma" format="2">
  <advance width="252"/>
  <unicode hex="002C"/>
  <outline>
    <contour>
      <point x="60" y="124" type="line"/>
      <point x="60" y="1" type="line"/>
      <point x="96" y="1" type="line"/>
      <point x="98" y="1"/>
      <point x="98" y="-2" type="qcurve"/>
      <point x="98" y="-2"/>
      <point x="91" y="-115" type="qcurve"/>
      <point x="139" y="-118" type="line"/>
      <point x="192" y="-1" type="line"/>
      <point x="192" y="124" type="line"/>
    </contour>
    <contour>
      <point x="55" y="-2" type="qcurve"/>
      <point x="55" y="126" type="line"/>
      <point x="55" y="129"/>
      <point x="58" y="129" type="qcurve"/>
      <point x="194" y="129" type="line"/>
      <point x="197" y="129"/>
      <point x="197" y="126" type="qcurve"/>
      <point x="197" y="-2" type="line"/>
      <point x="197" y="-2"/>
      <point x="196" y="-2" type="qcurve"/>
      <point x="142" y="-121" type="line"/>
      <point x="142" y="-123"/>
      <point x="140" y="-123" type="qcurve"/>
      <point x="88" y="-119" type="line"/>
      <point x="86" y="-119"/>
      <point x="86" y="-117" type="qcurve"/>
      <point x="94" y="-4" type="line"/>
      <point x="58" y="-4" type="line"/>
      <point x="55" y="-4"/>
    </contour>
  </outline>
</glyph>
<glyph name="hyphen" format="2">
  <advance width="644"/>
  <unicode hex="002D"/>
  <outline>
    <contour>
      <point x="564" y="354" type="line"/>
      <point x="564" y="486" type="line"/>
      <point x="78" y="486" type="line"/>
      <point x="78" y="354" type="line"/>
    </contour>
    <contour>
      <point x="568" y="488" type="qcurve"/>
      <point x="568" y="352" type="line"/>
      <point x="568" y="349"/>
      <point x="566" y="349" type="qcurve"/>
      <point x="76" y="349" type="line"/>
      <point x="74" y="349"/>
      <point x="74" y="352" type="qcurve"/>
      <point x="74" y="488" type="line"/>
      <point x="74" y="491"/>
      <point x="76" y="491" type="qcurve"/>
      <point x="566" y="491" type="line"/>
      <point x="568" y="491"/>
    </contour>
  </outline>
</glyph>
<glyph name="period" format="2">
  <advance width="252"/>
  <unicode hex="002E"/>
  <outline>
    <contour>
      <point x="60" y="131" type="line"/>
      <point x="60" y="7" type="line"/>
      <point x="192" y="7" type="line"/>
      <point x="192" y="131" type="line"/>
    </contour>
    <contour>
      <point x="55" y="5" type="qcurve"/>
      <point x="55" y="133" type="line"/>
      <point x="55" y="135"/>
      <point x="58" y="135" type="qcurve"/>
      <point x="194" y="135" type="line"/>
      <point x="197" y="135"/>
      <point x="197" y="133" type="qcurve"/>
      <point x="197" y="5" type="line"/>
      <point x="197" y="3"/>
      <point x="194" y="3" type="qcurve"/>
      <point x="58" y="3" type="line"/>
      <point x="55" y="3"/>
    </contour>
  </outline>
</glyph>
<glyph name="slash" format="2">
  <advance width="691"/>
  <unicode hex="002F"/>
  <outline>
    <contour>
      <point x="535" y="813" type="line"/>
      <point x="641" y="752" type="line"/>
      <point x="156" y="-88" type="line"/>
      <point x="50" y="-27" type="line"/>
    </contour>
  </outline>
</glyph>
<glyph name="zero" format="2">
  <advance width="864"/>
  <unicode hex="0030"/>
  <outline>
    <contour>
      <point x="704" y="380" type="qcurve"/>
      <point x="704" y="476"/>
      <point x="631" y="638"/>
      <point x="505" y="731"/>
      <point x="357" y="731"/>
      <point x="232" y="638"/>
      <point x="158" y="476"/>
      <point x="158" y="380" type="qcurve"/>
      <point x="158" y="284"/>
      <point x="232" y="121"/>
      <point x="357" y="28"/>
      <point x="505" y="28"/>
      <point x="631" y="122"/>
      <point x="704" y="284"/>
    </contour>
    <contour>
      <point x="708" y="380" type="qcurve"/>
      <point x="708" y="283"/>
      <point x="635" y="119"/>
      <point x="507" y="23"/>
      <point x="356" y="23"/>
      <point x="228" y="119"/>
      <point x="154" y="283"/>
      <point x="154" y="380" type="qcurve"/>
      <point x="154" y="476"/>
      <point x="228" y="640"/>
      <point x="356" y="736"/>
      <point x="507" y="736"/>
      <point x="635" y="640"/>
      <point x="708" y="477"/>
    </contour>
    <contour>
      <point x="594" y="378" type="qcurve"/>
      <point x="594" y="465"/>
      <point x="499" y="586"/>
      <point x="364" y="586"/>
      <point x="268" y="465"/>
      <point x="268" y="378" type="qcurve"/>
      <point x="268" y="291"/>
      <point x="364" y="169"/>
      <point x="499" y="169"/>
      <point x="594" y="291"/>
    </contour>
    <contour>
      <point x="598" y="378" type="qcurve"/>
      <point x="598" y="289"/>
      <point x="501" y="164"/>
      <point x="361" y="164"/>
      <point x="264" y="290"/>
      <point x="264" y="378" type="qcurve"/>
      <point x="264" y="466"/>
      <point x="362" y="591"/>
      <point x="501" y="591"/>
      <point x="598" y="466"/>
    </contour>
  </outline>
</glyph>
<glyph name="one" format="2">
  <advance width="436"/>
  <unicode hex="0031"/>
  <outline>
    <contour>
      <point x="158" y="482" type="line"/>
      <point x="50" y="589" type="line"/>
      <point x="232" y="771" type="line"/>
      <point x="234" y="769" type="line"/>
      <point x="386" y="769" type="line"/>
      <point x="386" y="-7" type="line"/>
      <point x="234" y="-7" type="line"/>
      <point x="234" y="558" type="line"/>
    </contour>
  </outline>
</glyph>
<glyph name="two" format="2">
  <advance width="603"/>
  <unicode hex="0032"/>
  <outline>
    <contour>
      <point x="126" y="581" type="qcurve"/>
      <point x="88" y="581"/>
      <point x="53" y="571" type="qcurve"/>
      <point x="53" y="704" type="line"/>
      <point x="89" y="710"/>
      <point x="126" y="710" type="qcurve"/>
      <point x="230" y="710"/>
      <point x="406" y="626"/>
      <point x="508" y="481"/>
      <point x="508" y="395" type="qcurve"/>
      <point x="508" y="300"/>
      <point x="382" y="153"/>
      <point x="278" y="119" type="qcurve"/>
      <point x="553" y="121" type="line"/>
      <point x="553" y="0" type="line"/>
      <point x="50" y="-5" type="line"/>
      <point x="53" y="231" type="line"/>
      <point x="88" y="221"/>
      <point x="126" y="221" type="qcurve"/>
      <point x="223" y="221"/>
      <point x="355" y="317"/>
      <point x="355" y="394" type="qcurve"/>
      <point x="355" y="471"/>
      <point x="221" y="581"/>
    </contour>
  </outline>
</glyph>
<glyph name="three" format="2">
  <advance width="435"/>
  <unicode hex="0033"/>
  <outline>
    <contour>
      <point x="50" y="-10" type="qcurve"/>
      <point x="50" y="114" type="line"/>
      <point x="63" y="111"/>
      <point x="76" y="111" type="qcurve"/>
      <point x="142" y="111"/>
      <point x="234" y="161"/>
      <point x="234" y="197" type="qcurve"/>
      <point x="234" y="231"/>
      <point x="180" y="279"/>
      <point x="140" y="283" type="qcurve"/>
      <point x="133" y="283"/>
      <point x="121" y="283"/>
      <point x="115" y="283" type="qcurve"/>
      <point x="108" y="283"/>
      <point x="101" y="281" type="qcurve"/>
      <point x="101" y="284" type="line"/>
      <point x="101" y="405" type="line"/>
      <point x="101" y="408" type="line"/>
      <point x="108" y="406"/>
      <point x="115" y="406" type="qcurve"/>
      <point x="121" y="406"/>
      <point x="133" y="406"/>
      <point x="140" y="406" type="qcurve"/>
      <point x="180" y="409"/>
      <point x="234" y="458"/>
      <point x="234" y="491" type="qcurve"/>
      <point x="234" y="528"/>
      <point x="146" y="578"/>
      <point x="82" y="578" type="qcurve"/>
      <point x="69" y="578"/>
      <point x="56" y="575" type="qcurve"/>
      <point x="56" y="699" type="line"/>
      <point x="69" y="700"/>
      <point x="82" y="700" type="qcurve"/>
      <point x="208" y="700"/>
      <point x="385" y="578"/>
      <point x="385" y="491" type="qcurve"/>
      <point x="385" y="405"/>
      <point x="310" y="344" type="qcurve"/>
      <point x="385" y="283"/>
      <point x="385" y="111"/>
      <point x="204" y="-11"/>
      <point x="76" y="-11" type="qcurve"/>
      <point x="63" y="-11"/>
    </contour>
  </outline>
</glyph>
<glyph name="four" format="2">
  <advance width="752"/>
  <unicode hex="0034"/>
  <outline>
    <contour>
      <point x="382" y="214" type="qcurve"/>
      <point x="385" y="214"/>
      <point x="385" y="212" type="qcurve"/>
      <point x="385" y="41" type="line"/>
      <point x="496" y="41" type="line"/>
      <point x="496" y="733" type="line"/>
      <point x="371" y="733" type="line"/>
      <point x="84" y="213" type="line"/>
      <point x="381" y="213" type="line"/>
      <point x="381" y="214"/>
    </contour>
    <contour>
      <point x="291" y="350" type="line"/>
      <point x="373" y="348" type="line"/>
      <point x="373" y="499" type="line"/>
    </contour>
    <contour>
      <point x="285" y="348" type="qcurve"/>
      <point x="285" y="349"/>
      <point x="285" y="349" type="qcurve"/>
      <point x="373" y="509" type="line"/>
      <point x="374" y="510"/>
      <point x="375" y="510" type="qcurve"/>
      <point x="377" y="510"/>
      <point x="377" y="508" type="qcurve"/>
      <point x="377" y="346" type="line"/>
      <point x="377" y="343"/>
      <point x="375" y="343" type="qcurve"/>
      <point x="287" y="346" type="line"/>
      <point x="285" y="346"/>
    </contour>
    <contour>
      <point x="380" y="208" type="line"/>
      <point x="80" y="208" type="line"/>
      <point x="78" y="208"/>
      <point x="78" y="211" type="qcurve"/>
      <point x="78" y="211"/>
      <point x="78" y="212" type="qcurve"/>
      <point x="368" y="736" type="line"/>
      <point x="368" y="738"/>
      <point x="370" y="738" type="qcurve"/>
      <point x="499" y="738" type="line"/>
      <point x="501" y="738"/>
      <point x="501" y="735" type="qcurve"/>
      <point x="501" y="39" type="line"/>
      <point x="501" y="36"/>
      <point x="499" y="36" type="qcurve"/>
      <point x="382" y="36" type="line"/>
      <point x="380" y="36"/>
      <point x="380" y="39" type="qcurve"/>
    </contour>
  </outline>
</glyph>
<glyph name="five" format="2">
  <advance width="418"/>
  <unicode hex="0035"/>
  <outline>
    <contour>
      <point x="50" y="-1" type="qcurve"/>
      <point x="50" y="152" type="line"/>
      <point x="62" y="149"/>
      <point x="76" y="149" type="qcurve"/>
      <point x="121" y="149"/>
      <point x="183" y="211"/>
      <point x="183" y="255" type="qcurve"/>
      <point x="183" y="300"/>
      <point x="121" y="362"/>
      <point x="76" y="362" type="qcurve"/>
      <point x="62" y="362"/>
      <point x="50" y="359" type="qcurve"/>
      <point x="50" y="392" type="line"/>
      <point x="50" y="512" type="line"/>
      <point x="50" y="768" type="line"/>
      <point x="51" y="768" type="line"/>
      <point x="51" y="769" type="line"/>
      <point x="368" y="769" type="line"/>
      <point x="367" y="617" type="line"/>
      <point x="202" y="617" type="line"/>
      <point x="202" y="480" type="line"/>
      <point x="262" y="446"/>
      <point x="334" y="327"/>
      <point x="334" y="255" type="qcurve"/>
      <point x="334" y="148"/>
      <point x="183" y="-2"/>
      <point x="76" y="-2" type="qcurve"/>
      <point x="59" y="-2"/>
    </contour>
  </outline>
</glyph>
<glyph name="six" format="2">
  <advance width="729"/>
  <unicode hex="0036"/>
  <outline>
    <contour>
      <point x="396" y="27" type="qcurve"/>
      <point x="401" y="27"/>
      <point x="419" y="28"/>
      <point x="424" y="28" type="qcurve"/>
      <point x="469" y="28"/>
      <point x="512" y="58" type="qcurve"/>
      <point x="512" y="58"/>
      <point x="513" y="58" type="qcurve"/>
      <point x="589" y="102"/>
      <point x="616" y="186" type="qcurve"/>
      <point x="626" y="220"/>
      <point x="626" y="256" type="qcurve"/>
      <point x="626" y="282"/>
      <point x="621" y="307" type="qcurve"/>
      <point x="603" y="385"/>
      <point x="478" y="486"/>
      <point x="396" y="486" type="qcurve"/>
      <point x="393" y="486" type="line"/>
      <point x="385" y="486"/>
      <point x="377" y="485" type="qcurve"/>
      <point x="285" y="479"/>
      <point x="222" y="411" type="qcurve"/>
      <point x="222" y="410"/>
      <point x="221" y="410" type="qcurve"/>
      <point x="219" y="410"/>
      <point x="219" y="412" type="qcurve"/>
      <point x="231" y="489"/>
      <point x="347" y="591"/>
      <point x="424" y="591" type="qcurve"/>
      <point x="493" y="591"/>
      <point x="529" y="581" type="qcurve"/>
      <point x="529" y="725" type="line"/>
      <point x="494" y="731"/>
      <point x="424" y="731" type="qcurve"/>
      <point x="331" y="731"/>
      <point x="174" y="637"/>
      <point x="83" y="475"/>
      <point x="83" y="285"/>
      <point x="173" y="124"/>
      <point x="250" y="77" type="qcurve"/>
      <point x="306" y="33"/>
      <point x="377" y="27" type="qcurve"/>
      <point x="383" y="27"/>
      <point x="393" y="27" type="qcurve"/>
      <point x="393" y="27"/>
    </contour>
    <contour>
      <point x="379" y="366" type="qcurve"/>
      <point x="370" y="366"/>
      <point x="359" y="363" type="qcurve"/>
      <point x="358" y="363"/>
      <point x="357" y="364" type="qcurve"/>
      <point x="325" y="357"/>
      <point x="284" y="306"/>
      <point x="284" y="272" type="qcurve"/>
      <point x="284" y="224"/>
      <point x="322" y="197" type="qcurve"/>
      <point x="336" y="188"/>
      <point x="351" y="183" type="qcurve"/>
      <point x="354" y="182"/>
      <point x="357" y="181" type="qcurve"/>
      <point x="358" y="181"/>
      <point x="359" y="181" type="qcurve"/>
      <point x="369" y="179"/>
      <point x="380" y="179" type="qcurve"/>
      <point x="391" y="179"/>
      <point x="401" y="182" type="qcurve"/>
      <point x="402" y="182" type="line"/>
      <point x="403" y="182"/>
      <point x="403" y="181" type="qcurve"/>
      <point x="435" y="188"/>
      <point x="476" y="239"/>
      <point x="476" y="272" type="qcurve"/>
      <point x="476" y="306"/>
      <point x="435" y="357"/>
      <point x="403" y="364" type="qcurve"/>
      <point x="403" y="363"/>
      <point x="402" y="363" type="qcurve"/>
      <point x="401" y="363" type="line"/>
      <point x="391" y="366"/>
      <point x="380" y="366" type="qcurve"/>
      <point x="379" y="366"/>
    </contour>
    <contour>
      <point x="78" y="380" type="qcurve"/>
      <point x="78" y="477"/>
      <point x="171" y="641"/>
      <point x="330" y="736"/>
      <point x="424" y="736" type="qcurve"/>
      <point x="499" y="736"/>
      <point x="532" y="729" type="qcurve"/>
      <point x="534" y="729"/>
      <point x="534" y="727" type="qcurve"/>
      <point x="534" y="578" type="line"/>
      <point x="534" y="576"/>
      <point x="531" y="576" type="qcurve"/>
      <point x="517" y="580"/>
      <point x="446" y="586"/>
      <point x="424" y="586" type="qcurve"/>
      <point x="351" y="586"/>
      <point x="238" y="491"/>
      <point x="224" y="419" type="qcurve"/>
      <point x="287" y="484"/>
      <point x="377" y="490" type="qcurve"/>
      <point x="385" y="490"/>
      <point x="393" y="490" type="qcurve"/>
      <point x="396" y="490" type="line"/>
      <point x="479" y="490"/>
      <point x="607" y="387"/>
      <point x="625" y="308" type="qcurve"/>
      <point x="631" y="283"/>
      <point x="631" y="256" type="qcurve"/>
      <point x="631" y="219"/>
      <point x="620" y="185" type="qcurve"/>
      <point x="593" y="99"/>
      <point x="515" y="54" type="qcurve"/>
      <point x="503" y="46"/>
      <point x="459" y="30"/>
      <point x="427" y="23"/>
      <point x="424" y="23" type="qcurve"/>
      <point x="424" y="23"/>
      <point x="424" y="23" type="qcurve"/>
      <point x="421" y="23"/>
      <point x="418" y="23" type="qcurve"/>
      <point x="407" y="22"/>
      <point x="396" y="22" type="qcurve"/>
      <point x="393" y="22" type="line"/>
      <point x="383" y="22"/>
      <point x="376" y="23" type="qcurve"/>
      <point x="304" y="29"/>
      <point x="248" y="73" type="qcurve"/>
      <point x="170" y="120"/>
      <point x="78" y="283"/>
    </contour>
    <contour>
      <point x="480" y="272" type="qcurve"/>
      <point x="480" y="237"/>
      <point x="436" y="183"/>
      <point x="402" y="176" type="qcurve"/>
      <point x="401" y="176"/>
      <point x="400" y="177" type="qcurve"/>
      <point x="390" y="174"/>
      <point x="380" y="174" type="qcurve"/>
      <point x="369" y="174"/>
      <point x="360" y="177" type="qcurve"/>
      <point x="359" y="176"/>
      <point x="359" y="176" type="qcurve"/>
      <point x="355" y="176"/>
      <point x="350" y="178" type="qcurve"/>
      <point x="334" y="184"/>
      <point x="320" y="193" type="qcurve"/>
      <point x="280" y="222"/>
      <point x="280" y="272" type="qcurve"/>
      <point x="280" y="308"/>
      <point x="324" y="362"/>
      <point x="358" y="368" type="qcurve"/>
      <point x="359" y="368" type="line"/>
      <point x="359" y="368"/>
      <point x="360" y="368" type="qcurve"/>
      <point x="370" y="370"/>
      <point x="379" y="370" type="qcurve"/>
      <point x="379" y="370"/>
      <point x="380" y="370" type="qcurve"/>
      <point x="390" y="370"/>
      <point x="400" y="368" type="qcurve"/>
      <point x="401" y="368"/>
      <point x="402" y="368" type="qcurve"/>
      <point x="436" y="362"/>
      <point x="480" y="308"/>
    </contour>
  </outline>
</glyph>
<glyph name="seven" format="2">
  <advance width="610"/>
  <unicode hex="0037"/>
  <outline>
    <contour>
      <point x="213" y="-5" type="line"/>
      <point x="51" y="-5" type="line"/>
      <point x="389" y="605" type="line"/>
      <point x="50" y="605" type="line"/>
      <point x="50" y="757" type="line"/>
      <point x="560" y="757" type="line"/>
      <point x="560" y="605" type="line"/>
    </contour>
  </outline>
</glyph>
<glyph name="eight" format="2">
  <advance width="616"/>
  <unicode hex="0038"/>
  <outline>
    <contour>
      <point x="290" y="323" type="qcurve"/>
      <point x="289" y="323"/>
      <point x="289" y="323" type="qcurve"/>
      <point x="261" y="317"/>
      <point x="225" y="272"/>
      <point x="225" y="243" type="qcurve"/>
      <point x="225" y="214"/>
      <point x="261" y="169"/>
      <point x="289" y="163" type="qcurve"/>
      <point x="289" y="163"/>
      <point x="290" y="163" type="qcurve"/>
      <point x="290" y="163"/>
      <point x="291" y="163" type="qcurve"/>
      <point x="299" y="161"/>
      <point x="309" y="161" type="qcurve"/>
      <point x="318" y="161"/>
      <point x="327" y="164" type="qcurve"/>
      <point x="328" y="164" type="line"/>
      <point x="329" y="164"/>
      <point x="329" y="163" type="qcurve"/>
      <point x="357" y="169"/>
      <point x="393" y="214"/>
      <point x="393" y="243" type="qcurve"/>
      <point x="393" y="272"/>
      <point x="357" y="317"/>
      <point x="329" y="323" type="qcurve"/>
      <point x="329" y="323"/>
      <point x="328" y="323" type="qcurve"/>
      <point x="327" y="323" type="line"/>
      <point x="318" y="325"/>
      <point x="309" y="325" type="qcurve"/>
      <point x="299" y="325"/>
      <point x="291" y="323" type="qcurve"/>
      <point x="290" y="323"/>
    </contour>
    <contour>
      <point x="290" y="565" type="qcurve"/>
      <point x="289" y="565"/>
      <point x="289" y="565" type="qcurve"/>
      <point x="261" y="559"/>
      <point x="225" y="514"/>
      <point x="225" y="484" type="qcurve"/>
      <point x="225" y="455"/>
      <point x="261" y="411"/>
      <point x="289" y="405" type="qcurve"/>
      <point x="289" y="405"/>
      <point x="290" y="405" type="qcurve"/>
      <point x="290" y="405"/>
      <point x="291" y="405" type="qcurve"/>
      <point x="299" y="403"/>
      <point x="309" y="403" type="qcurve"/>
      <point x="318" y="403"/>
      <point x="327" y="405" type="qcurve"/>
      <point x="328" y="405" type="line"/>
      <point x="329" y="405"/>
      <point x="329" y="405" type="qcurve"/>
      <point x="357" y="411"/>
      <point x="393" y="455"/>
      <point x="393" y="484" type="qcurve"/>
      <point x="393" y="514"/>
      <point x="357" y="559"/>
      <point x="329" y="565" type="qcurve"/>
      <point x="329" y="564"/>
      <point x="328" y="564" type="qcurve"/>
      <point x="327" y="564" type="line"/>
      <point x="318" y="567"/>
      <point x="309" y="567" type="qcurve"/>
      <point x="299" y="567"/>
      <point x="291" y="565" type="qcurve"/>
      <point x="290" y="565"/>
    </contour>
    <contour>
      <point x="513" y="243" type="qcurve"/>
      <point x="513" y="309"/>
      <point x="474" y="363" type="qcurve"/>
      <point x="473" y="363"/>
      <point x="473" y="365"/>
      <point x="474" y="365" type="qcurve"/>
      <point x="513" y="418"/>
      <point x="513" y="484" type="qcurve"/>
      <point x="513" y="568"/>
      <point x="395" y="686"/>
      <point x="311" y="686" type="qcurve"/>
      <point x="307" y="686" type="line"/>
      <point x="299" y="686"/>
      <point x="293" y="686" type="qcurve"/>
      <point x="214" y="681"/>
      <point x="105" y="565"/>
      <point x="105" y="484" type="qcurve"/>
      <point x="105" y="418"/>
      <point x="144" y="365" type="qcurve"/>
      <point x="145" y="365"/>
      <point x="145" y="363"/>
      <point x="144" y="363" type="qcurve"/>
      <point x="105" y="309"/>
      <point x="105" y="243" type="qcurve"/>
      <point x="105" y="163"/>
      <point x="214" y="47"/>
      <point x="293" y="42" type="qcurve"/>
      <point x="299" y="42"/>
      <point x="307" y="42" type="qcurve"/>
      <point x="311" y="42" type="line"/>
      <point x="395" y="42"/>
      <point x="513" y="159"/>
    </contour>
    <contour>
      <point x="101" y="243" type="qcurve"/>
      <point x="101" y="310"/>
      <point x="140" y="364" type="qcurve"/>
      <point x="101" y="418"/>
      <point x="101" y="484" type="qcurve"/>
      <point x="101" y="566"/>
      <point x="212" y="685"/>
      <point x="293" y="690" type="qcurve"/>
      <point x="299" y="691"/>
      <point x="307" y="691" type="qcurve"/>
      <point x="311" y="691" type="line"/>
      <point x="396" y="691"/>
      <point x="517" y="570"/>
      <point x="517" y="484" type="qcurve"/>
      <point x="517" y="418"/>
      <point x="478" y="364" type="qcurve"/>
      <point x="517" y="310"/>
      <point x="517" y="243" type="qcurve"/>
      <point x="517" y="157"/>
      <point x="396" y="37"/>
      <point x="311" y="37" type="qcurve"/>
      <point x="307" y="37" type="line"/>
      <point x="299" y="37"/>
      <point x="293" y="38" type="qcurve"/>
      <point x="212" y="43"/>
      <point x="101" y="161"/>
    </contour>
    <contour>
      <point x="328" y="328" type="qcurve"/>
      <point x="359" y="322"/>
      <point x="398" y="275"/>
      <point x="398" y="243" type="qcurve"/>
      <point x="398" y="212"/>
      <point x="359" y="164"/>
      <point x="328" y="158" type="qcurve"/>
      <point x="327" y="158"/>
      <point x="327" y="159" type="qcurve"/>
      <point x="318" y="157"/>
      <point x="309" y="157" type="qcurve"/>
      <point x="299" y="157"/>
      <point x="291" y="159" type="qcurve"/>
      <point x="291" y="158"/>
      <point x="290" y="158" type="qcurve"/>
      <point x="259" y="164"/>
      <point x="220" y="212"/>
      <point x="220" y="243" type="qcurve"/>
      <point x="220" y="275"/>
      <point x="259" y="322"/>
      <point x="290" y="328" type="qcurve"/>
      <point x="291" y="328"/>
      <point x="291" y="328" type="qcurve"/>
      <point x="300" y="330"/>
      <point x="309" y="330" type="qcurve"/>
      <point x="318" y="330"/>
      <point x="327" y="328" type="qcurve"/>
      <point x="327" y="328"/>
    </contour>
    <contour>
      <point x="328" y="570" type="qcurve"/>
      <point x="359" y="564"/>
      <point x="398" y="516"/>
      <point x="398" y="484" type="qcurve"/>
      <point x="398" y="453"/>
      <point x="359" y="406"/>
      <point x="328" y="400" type="qcurve"/>
      <point x="327" y="400"/>
      <point x="327" y="400" type="qcurve"/>
      <point x="318" y="398"/>
      <point x="309" y="398" type="qcurve"/>
      <point x="299" y="398"/>
      <point x="291" y="400" type="qcurve"/>
      <point x="291" y="400"/>
      <point x="290" y="400" type="qcurve"/>
      <point x="259" y="406"/>
      <point x="220" y="453"/>
      <point x="220" y="484" type="qcurve"/>
      <point x="220" y="516"/>
      <point x="259" y="564"/>
      <point x="290" y="570" type="qcurve"/>
      <point x="291" y="570"/>
      <point x="291" y="569" type="qcurve"/>
      <point x="299" y="571"/>
      <point x="309" y="571" type="qcurve"/>
      <point x="318" y="571"/>
      <point x="327" y="569" type="qcurve"/>
      <point x="327" y="570"/>
    </contour>
  </outline>
</glyph>
<glyph name="nine" format="2">
  <advance width="729"/>
  <unicode hex="0039"/>
  <outline>
    <contour>
      <point x="313" y="731" type="qcurve"/>
      <point x="308" y="731"/>
      <point x="290" y="730"/>
      <point x="285" y="730" type="qcurve"/>
      <point x="240" y="730"/>
      <point x="197" y="700" type="qcurve"/>
      <point x="197" y="700"/>
      <point x="196" y="700" type="qcurve"/>
      <point x="120" y="656"/>
      <point x="93" y="572" type="qcurve"/>
      <point x="83" y="538"/>
      <point x="83" y="502" type="qcurve"/>
      <point x="83" y="476"/>
      <point x="88" y="451" type="qcurve"/>
      <point x="106" y="373"/>
      <point x="231" y="272"/>
      <point x="313" y="272" type="qcurve"/>
      <point x="316" y="272" type="line"/>
      <point x="324" y="272"/>
      <point x="332" y="273" type="qcurve"/>
      <point x="424" y="279"/>
      <point x="487" y="347" type="qcurve"/>
      <point x="487" y="348"/>
      <point x="488" y="348" type="qcurve"/>
      <point x="490" y="348"/>
      <point x="490" y="346" type="qcurve"/>
      <point x="478" y="269"/>
      <point x="362" y="167"/>
      <point x="285" y="167" type="qcurve"/>
      <point x="216" y="167"/>
      <point x="180" y="177" type="qcurve"/>
      <point x="180" y="33" type="line"/>
      <point x="215" y="27"/>
      <point x="285" y="27" type="qcurve"/>
      <point x="378" y="27"/>
      <point x="535" y="121"/>
      <point x="626" y="283"/>
      <point x="626" y="473"/>
      <point x="536" y="634"/>
      <point x="459" y="681" type="qcurve"/>
      <point x="403" y="725"/>
      <point x="332" y="731" type="qcurve"/>
      <point x="326" y="731"/>
      <point x="316" y="731" type="qcurve"/>
      <point x="316" y="731"/>
    </contour>
    <contour>
      <point x="330" y="392" type="qcurve"/>
      <point x="339" y="392"/>
      <point x="350" y="395" type="qcurve"/>
      <point x="351" y="395"/>
      <point x="352" y="394" type="qcurve"/>
      <point x="384" y="401"/>
      <point x="425" y="452"/>
      <point x="425" y="486" type="qcurve"/>
      <point x="425" y="534"/>
      <point x="387" y="561" type="qcurve"/>
      <point x="373" y="570"/>
      <point x="358" y="575" type="qcurve"/>
      <point x="355" y="576"/>
      <point x="352" y="577" type="qcurve"/>
      <point x="351" y="577"/>
      <point x="350" y="577" type="qcurve"/>
      <point x="340" y="579"/>
      <point x="329" y="579" type="qcurve"/>
      <point x="318" y="579"/>
      <point x="308" y="576" type="qcurve"/>
      <point x="307" y="576" type="line"/>
      <point x="306" y="576"/>
      <point x="306" y="577" type="qcurve"/>
      <point x="274" y="570"/>
      <point x="233" y="519"/>
      <point x="233" y="486" type="qcurve"/>
      <point x="233" y="452"/>
      <point x="274" y="401"/>
      <point x="306" y="394" type="qcurve"/>
      <point x="306" y="395"/>
      <point x="307" y="395" type="qcurve"/>
      <point x="308" y="395" type="line"/>
      <point x="318" y="392"/>
      <point x="329" y="392" type="qcurve"/>
      <point x="330" y="392"/>
    </contour>
    <contour>
      <point x="631" y="378" type="qcurve"/>
      <point x="631" y="281"/>
      <point x="538" y="117"/>
      <point x="379" y="22"/>
      <point x="285" y="22" type="qcurve"/>
      <point x="210" y="22"/>
      <point x="177" y="29" type="qcurve"/>
      <point x="175" y="29"/>
      <point x="175" y="31" type="qcurve"/>
      <point x="175" y="180" type="line"/>
      <point x="175" y="182"/>
      <point x="178" y="182" type="qcurve"/>
      <point x="192" y="178"/>
      <point x="263" y="172"/>
      <point x="285" y="172" type="qcurve"/>
      <point x="358" y="172"/>
      <point x="471" y="267"/>
      <point x="485" y="339" type="qcurve"/>
      <point x="422" y="274"/>
      <point x="332" y="268" type="qcurve"/>
      <point x="324" y="268"/>
      <point x="316" y="268" type="qcurve"/>
      <point x="313" y="268" type="line"/>
      <point x="230" y="268"/>
      <point x="102" y="371"/>
      <point x="84" y="450" type="qcurve"/>
      <point x="78" y="475"/>
      <point x="78" y="502" type="qcurve"/>
      <point x="78" y="539"/>
      <point x="89" y="573" type="qcurve"/>
      <point x="116" y="659"/>
      <point x="194" y="704" type="qcurve"/>
      <point x="206" y="712"/>
      <point x="250" y="728"/>
      <point x="282" y="735"/>
      <point x="285" y="735" type="qcurve"/>
      <point x="285" y="735"/>
      <point x="285" y="735" type="qcurve"/>
      <point x="288" y="735"/>
      <point x="291" y="735" type="qcurve"/>
      <point x="302" y="736"/>
      <point x="313" y="736" type="qcurve"/>
      <point x="316" y="736" type="line"/>
      <point x="326" y="736"/>
      <point x="333" y="735" type="qcurve"/>
      <point x="405" y="729"/>
      <point x="461" y="685" type="qcurve"/>
      <point x="539" y="638"/>
      <point x="631" y="475"/>
    </contour>
    <contour>
      <point x="330" y="388" type="qcurve"/>
      <point x="330" y="388"/>
      <point x="329" y="388" type="qcurve"/>
      <point x="319" y="388"/>
      <point x="309" y="390" type="qcurve"/>
      <point x="308" y="390"/>
      <point x="307" y="390" type="qcurve"/>
      <point x="273" y="396"/>
      <point x="228" y="450"/>
      <point x="228" y="486" type="qcurve"/>
      <point x="228" y="521"/>
      <point x="273" y="575"/>
      <point x="307" y="582" type="qcurve"/>
      <point x="308" y="582"/>
      <point x="309" y="581" type="qcurve"/>
      <point x="319" y="584"/>
      <point x="329" y="584" type="qcurve"/>
      <point x="340" y="584"/>
      <point x="349" y="581" type="qcurve"/>
      <point x="350" y="582"/>
      <point x="350" y="582" type="qcurve"/>
      <point x="354" y="582"/>
      <point x="359" y="580" type="qcurve"/>
      <point x="375" y="574"/>
      <point x="389" y="565" type="qcurve"/>
      <point x="429" y="536"/>
      <point x="429" y="486" type="qcurve"/>
      <point x="429" y="450"/>
      <point x="385" y="396"/>
      <point x="351" y="390" type="qcurve"/>
      <point x="350" y="390" type="line"/>
      <point x="350" y="390"/>
      <point x="349" y="390" type="qcurve"/>
      <point x="339" y="388"/>
    </contour>
  </outline>
</glyph>
<glyph name="colon" format="2">
  <advance width="252"/>
  <unicode hex="003A"/>
  <outline>
    <contour>
      <point x="60" y="511" type="line"/>
      <point x="60" y="387" type="line"/>
      <point x="192" y="387" type="line"/>
      <point x="192" y="511" type="line"/>
    </contour>
    <contour>
      <point x="55" y="385" type="qcurve"/>
      <point x="55" y="513" type="line"/>
      <point x="55" y="515"/>
      <point x="58" y="515" type="qcurve"/>
      <point x="194" y="515" type="line"/>
      <point x="197" y="515"/>
      <point x="197" y="513" type="qcurve"/>
      <point x="197" y="385" type="line"/>
      <point x="197" y="383"/>
      <point x="194" y="383" type="qcurve"/>
      <point x="58" y="383" type="line"/>
      <point x="55" y="383"/>
    </contour>
    <contour>
      <point x="60" y="151" type="line"/>
      <point x="60" y="27" type="line"/>
      <point x="192" y="27" type="line"/>
      <point x="192" y="151" type="line"/>
    </contour>
    <contour>
      <point x="55" y="25" type="qcurve"/>
      <point x="55" y="153" type="line"/>
      <point x="55" y="155"/>
      <point x="58" y="155" type="qcurve"/>
      <point x="194" y="155" type="line"/>
      <point x="197" y="155"/>
      <point x="197" y="153" type="qcurve"/>
      <point x="197" y="25" type="line"/>
      <point x="197" y="23"/>
      <point x="194" y="23" type="qcurve"/>
      <point x="58" y="23" type="line"/>
      <point x="55" y="23"/>
    </contour>
  </outline>
</glyph>
<glyph name="semicolon" format="2">
  <advance width="252"/>
  <unicode hex="003B"/>
  <outline>
    <contour>
      <point x="60" y="144" type="line"/>
      <point x="60" y="21" type="line"/>
      <point x="96" y="21" type="line"/>
      <point x="98" y="21"/>
      <point x="98" y="18" type="qcurve"/>
      <point x="98" y="18"/>
      <point x="91" y="-95" type="qcurve"/>
      <point x="139" y="-98" type="line"/>
      <point x="192" y="19" type="line"/>
      <point x="192" y="144" type="line"/>
    </contour>
    <contour>
      <point x="55" y="18" type="qcurve"/>
      <point x="55" y="146" type="line"/>
      <point x="55" y="149"/>
      <point x="58" y="149" type="qcurve"/>
      <point x="194" y="149" type="line"/>
      <point x="197" y="149"/>
      <point x="197" y="146" type="qcurve"/>
      <point x="197" y="18" type="line"/>
      <point x="197" y="18"/>
      <point x="196" y="18" type="qcurve"/>
      <point x="142" y="-101" type="line"/>
      <point x="142" y="-103"/>
      <point x="140" y="-103" type="qcurve"/>
      <point x="88" y="-99" type="line"/>
      <point x="86" y="-99"/>
      <point x="86" y="-97" type="qcurve"/>
      <point x="94" y="16" type="line"/>
      <point x="58" y="16" type="line"/>
      <point x="55" y="16"/>
    </contour>
    <contour>
      <point x="60" y="504" type="line"/>
      <point x="60" y="381" type="line"/>
      <point x="192" y="381" type="line"/>
      <point x="192" y="504" type="line"/>
    </contour>
    <contour>
      <point x="55" y="378" type="qcurve"/>
      <point x="55" y="506" type="line"/>
      <point x="55" y="509"/>
      <point x="58" y="509" type="qcurve"/>
      <point x="194" y="509" type="line"/>
      <point x="197" y="509"/>
      <point x="197" y="506" type="qcurve"/>
      <point x="197" y="378" type="line"/>
      <point x="197" y="376"/>
      <point x="194" y="376" type="qcurve"/>
      <point x="58" y="376" type="line"/>
      <point x="55" y="376"/>
    </contour>
  </outline>
</glyph>
<glyph name="less" format="2">
  <advance width="644"/>
  <unicode hex="003C"/>
  <outline>
    <contour>
      <point x="371" y="337"/>
      <point x="371" y="340"/>
      <point x="373" y="341" type="qcurve"/>
      <point x="564" y="391" type="line"/>
      <point x="564" y="523" type="line"/>
      <point x="78" y="395" type="line"/>
      <point x="78" y="261" type="line"/>
      <point x="564" y="167" type="line"/>
      <point x="564" y="299" type="line"/>
      <point x="373" y="336" type="line"/>
    </contour>
    <contour>
      <point x="568" y="526" type="qcurve"/>
      <point x="568" y="389" type="line"/>
      <point x="568" y="387"/>
      <point x="566" y="387" type="qcurve"/>
      <point x="383" y="339" type="line"/>
      <point x="566" y="303" type="line"/>
      <point x="568" y="303"/>
      <point x="568" y="301" type="qcurve"/>
      <point x="568" y="164" type="line"/>
      <point x="568" y="162"/>
      <point x="566" y="162" type="qcurve"/>
      <point x="565" y="162" type="line"/>
      <point x="76" y="257" type="line"/>
      <point x="74" y="258"/>
      <point x="74" y="260" type="qcurve"/>
      <point x="74" y="397" type="line"/>
      <point x="74" y="399"/>
      <point x="76" y="399" type="qcurve"/>
      <point x="565" y="528" type="line"/>
      <point x="566" y="528"/>
      <point x="566" y="528" type="qcurve"/>
      <point x="568" y="528"/>
    </contour>
  </outline>
</glyph>
<glyph name="equal" format="2">
  <advance width="644"/>
  <unicode hex="003D"/>
  <outline>
    <contour>
      <point x="564" y="166" type="line"/>
      <point x="564" y="299" type="line"/>
      <point x="78" y="299" type="line"/>
      <point x="78" y="166" type="line"/>
    </contour>
    <contour>
      <point x="568" y="301" type="qcurve"/>
      <point x="568" y="164" type="line"/>
      <point x="568" y="162"/>
      <point x="566" y="162" type="qcurve"/>
      <point x="76" y="162" type="line"/>
      <point x="74" y="162"/>
      <point x="74" y="164" type="qcurve"/>
      <point x="74" y="301" type="line"/>
      <point x="74" y="303"/>
      <point x="76" y="303" type="qcurve"/>
      <point x="566" y="303" type="line"/>
      <point x="568" y="303"/>
    </contour>
    <contour>
      <point x="564" y="391" type="line"/>
      <point x="564" y="524" type="line"/>
      <point x="78" y="524" type="line"/>
      <point x="78" y="391" type="line"/>
    </contour>
    <contour>
      <point x="568" y="526" type="qcurve"/>
      <point x="568" y="389" type="line"/>
      <point x="568" y="387"/>
      <point x="566" y="387" type="qcurve"/>
      <point x="76" y="387" type="line"/>
      <point x="74" y="387"/>
      <point x="74" y="389" type="qcurve"/>
      <point x="74" y="526" type="line"/>
      <point x="74" y="528"/>
      <point x="76" y="528" type="qcurve"/>
      <point x="566" y="528" type="line"/>
      <point x="568" y="528"/>
    </contour>
  </outline>
</glyph>
<glyph name="greater" format="2">
  <advance width="644"/>
  <unicode hex="003E"/>
  <outline>
    <contour>
      <point x="271" y="340"/>
      <point x="271" y="337"/>
      <point x="269" y="336" type="qcurve"/>
      <point x="78" y="299" type="line"/>
      <point x="78" y="167" type="line"/>
      <point x="564" y="261" type="line"/>
      <point x="564" y="395" type="line"/>
      <point x="78" y="523" type="line"/>
      <point x="78" y="391" type="line"/>
      <point x="269" y="341" type="line"/>
    </contour>
    <contour>
      <point x="568" y="397" type="qcurve"/>
      <point x="568" y="260" type="line"/>
      <point x="568" y="258"/>
      <point x="566" y="257" type="qcurve"/>
      <point x="77" y="162" type="line"/>
      <point x="76" y="162" type="line"/>
      <point x="74" y="162"/>
      <point x="74" y="164" type="qcurve"/>
      <point x="74" y="301" type="line"/>
      <point x="74" y="303"/>
      <point x="76" y="303" type="qcurve"/>
      <point x="259" y="339" type="line"/>
      <point x="76" y="387" type="line"/>
      <point x="74" y="387"/>
      <point x="74" y="389" type="qcurve"/>
      <point x="74" y="526" type="line"/>
      <point x="74" y="528"/>
      <point x="76" y="528" type="qcurve"/>
      <point x="76" y="528"/>
      <point x="77" y="528" type="qcurve"/>
      <point x="566" y="399" type="line"/>
      <point x="568" y="399"/>
    </contour>
  </outline>
</glyph>
<glyph name="question" format="2">
  <advance width="384"/>
  <unicode hex="003F"/>
  <outline>
    <contour>
      <point x="50" y="823" type="line"/>
      <point x="59" y="824"/>
      <point x="76" y="824" type="qcurve"/>
      <point x="183" y="824"/>
      <point x="334" y="674"/>
      <point x="334" y="567" type="qcurve"/>
      <point x="334" y="495"/>
      <point x="262" y="375"/>
      <point x="202" y="342" type="qcurve"/>
      <point x="202" y="225" type="line"/>
      <point x="50" y="225" type="line"/>
      <point x="50" y="310" type="line"/>
      <point x="50" y="435" type="line"/>
      <point x="50" y="463" type="line"/>
      <point x="62" y="460"/>
      <point x="76" y="460" type="qcurve"/>
      <point x="121" y="460"/>
      <point x="183" y="522"/>
      <point x="183" y="567" type="qcurve"/>
      <point x="183" y="611"/>
      <point x="121" y="673"/>
      <point x="76" y="673" type="qcurve"/>
      <point x="62" y="673"/>
      <point x="50" y="670" type="qcurve"/>
    </contour>
    <contour>
      <point x="50" y="-7" type="line"/>
      <point x="50" y="135" type="line"/>
      <point x="202" y="135" type="line"/>
      <point x="202" y="-7" type="line"/>
    </contour>
  </outline>
</glyph>
<glyph name="at" format="2">
  <advance width="876"/>
  <unicode hex="0040"/>
  <outline>
    <contour>
      <point x="567.555" y="231" type="line"/>
    </contour>
    <contour>
      <point x="530.555" y="161" type="line"/>
    </contour>
    <contour>
      <point x="493.555" y="223" type="qcurve"/>
      <point x="479.555" y="234" type="line"/>
      <point x="425.555" y="234"/>
      <point x="349.555" y="309"/>
      <point x="349.555" y="363" type="qcurve"/>
      <point x="349.555" y="416"/>
      <point x="425.555" y="487"/>
      <point x="479.555" y="487" type="qcurve"/>
      <point x="491.555" y="487" type="line"/>
      <point x="567.555" y="487" type="line"/>
      <point x="574.555" y="313" type="line"/>
      <point x="576.555" y="301"/>
      <point x="603.555" y="273"/>
      <point x="636.555" y="258"/>
      <point x="665.555" y="284"/>
      <point x="668.555" y="321" type="qcurve"/>
      <point x="668.555" y="322"/>
      <point x="664.555" y="336"/>
      <point x="664.555" y="337" type="qcurve"/>
      <point x="673.555" y="391"/>
      <point x="641.555" y="496"/>
      <point x="601.555" y="536" type="qcurve"/>
      <point x="533.555" y="603"/>
      <point x="342.555" y="600"/>
      <point x="274.555" y="532" type="qcurve"/>
      <point x="205.555" y="463"/>
      <point x="203.555" y="272"/>
      <point x="270.555" y="204" type="qcurve"/>
      <point x="322.555" y="152"/>
      <point x="466.555" y="130"/>
      <point x="530.555" y="161" type="qcurve"/>
      <point x="541.555" y="166"/>
      <point x="597.555" y="110"/>
      <point x="620.555" y="79" type="qcurve"/>
      <point x="643.555" y="49" type="line"/>
      <point x="530.555" y="-27"/>
      <point x="256.555" y="-4"/>
      <point x="159.555" y="93" type="qcurve"/>
      <point x="47.5547" y="205"/>
      <point x="52.5547" y="527"/>
      <point x="282.555" y="757"/>
      <point x="603.555" y="762"/>
      <point x="715.555" y="650" type="qcurve"/>
      <point x="799.555" y="566"/>
      <point x="841.555" y="320"/>
      <point x="793.555" y="215" type="qcurve"/>
      <point x="771.555" y="202"/>
      <point x="727.555" y="186"/>
      <point x="678.555" y="183"/>
      <point x="644.555" y="182"/>
      <point x="590.555" y="195"/>
      <point x="565.555" y="201"/>
      <point x="502.555" y="220"/>
    </contour>
    <contour>
      <point x="491.555" y="415" type="line"/>
      <point x="487.555" y="416"/>
      <point x="479.555" y="416" type="qcurve"/>
      <point x="456.555" y="416"/>
      <point x="425.555" y="385"/>
      <point x="425.555" y="341"/>
      <point x="456.555" y="309"/>
      <point x="479.555" y="309" type="qcurve"/>
      <point x="483.555" y="309"/>
      <point x="491.555" y="311" type="qcurve"/>
    </contour>
  </outline>
</glyph>
<glyph name="A" format="2">
  <advance width="752"/>
  <unicode hex="0041"/>
  <outline>
    <contour>
      <point x="452" y="246" type="qcurve"/>
      <point x="454" y="246"/>
      <point x="455" y="245" type="qcurve"/>
      <point x="534" y="41" type="line"/>
      <point x="666" y="41" type="line"/>
      <point x="412" y="728" type="line"/>
      <point x="279" y="728" type="line"/>
      <point x="86" y="41" type="line"/>
      <point x="218" y="41" type="line"/>
      <point x="270" y="243" type="line"/>
      <point x="271" y="245"/>
      <point x="273" y="245" type="qcurve"/>
      <point x="451" y="245" type="line"/>
      <point x="451" y="246"/>
    </contour>
    <contour>
      <point x="308" y="371" type="line"/>
      <point x="401" y="371" type="line"/>
      <point x="359" y="513" type="line"/>
    </contour>
    <contour>
      <point x="404" y="366" type="qcurve"/>
      <point x="305" y="366" type="line"/>
      <point x="303" y="366"/>
      <point x="303" y="369" type="qcurve"/>
      <point x="303" y="369"/>
      <point x="303" y="370" type="qcurve"/>
      <point x="357" y="521" type="line"/>
      <point x="357" y="522"/>
      <point x="361" y="522"/>
      <point x="361" y="521" type="qcurve"/>
      <point x="406" y="369" type="line"/>
      <point x="406" y="366"/>
    </contour>
    <contour>
      <point x="219" y="36" type="qcurve"/>
      <point x="83" y="36" type="line"/>
      <point x="80" y="36"/>
      <point x="80" y="38" type="qcurve"/>
      <point x="80" y="39"/>
      <point x="80" y="39" type="qcurve"/>
      <point x="275" y="731" type="line"/>
      <point x="275" y="733"/>
      <point x="277" y="733" type="qcurve"/>
      <point x="414" y="733" type="line"/>
      <point x="415" y="733"/>
      <point x="416" y="731" type="qcurve"/>
      <point x="672" y="39" type="line"/>
      <point x="672" y="39"/>
      <point x="672" y="38" type="qcurve"/>
      <point x="672" y="36"/>
      <point x="669" y="36" type="qcurve"/>
      <point x="533" y="36" type="line"/>
      <point x="531" y="36"/>
      <point x="531" y="38" type="qcurve"/>
      <point x="451" y="240" type="line"/>
      <point x="274" y="240" type="line"/>
      <point x="222" y="38" type="line"/>
      <point x="221" y="36"/>
    </contour>
  </outline>
</glyph>
<glyph name="B" format="2">
  <advance width="534"/>
  <unicode hex="0042"/>
  <outline>
    <contour>
      <point x="202" y="449" type="line"/>
      <point x="214" y="446"/>
      <point x="226" y="446" type="qcurve"/>
      <point x="271" y="446"/>
      <point x="333" y="508"/>
      <point x="333" y="552" type="qcurve"/>
      <point x="333" y="597"/>
      <point x="271" y="659"/>
      <point x="226" y="659" type="qcurve"/>
      <point x="214" y="659"/>
      <point x="202" y="656" type="qcurve"/>
    </contour>
    <contour>
      <point x="202" y="131" type="line"/>
      <point x="214" y="128"/>
      <point x="226" y="128" type="qcurve"/>
      <point x="271" y="128"/>
      <point x="333" y="190"/>
      <point x="333" y="234" type="qcurve"/>
      <point x="333" y="279"/>
      <point x="271" y="341"/>
      <point x="226" y="341" type="qcurve"/>
      <point x="214" y="341"/>
      <point x="202" y="338" type="qcurve"/>
    </contour>
    <contour>
      <point x="202" y="775" type="line"/>
      <point x="208" y="775"/>
      <point x="220" y="775" type="qcurve"/>
      <point x="327" y="775"/>
      <point x="478" y="624"/>
      <point x="478" y="517" type="qcurve"/>
      <point x="478" y="494"/>
      <point x="450" y="450"/>
      <point x="401" y="398"/>
      <point x="395" y="391" type="qcurve"/>
      <point x="397" y="389"/>
      <point x="458" y="325"/>
      <point x="484" y="280"/>
      <point x="484" y="255" type="qcurve"/>
      <point x="484" y="148"/>
      <point x="333" y="-2"/>
      <point x="226" y="-2" type="qcurve"/>
      <point x="210" y="-2"/>
      <point x="202" y="-1" type="qcurve"/>
      <point x="50" y="-1" type="line"/>
      <point x="50" y="775" type="line"/>
    </contour>
  </outline>
</glyph>
<glyph name="C" format="2">
  <advance width="555"/>
  <unicode hex="0043"/>
  <outline>
    <contour>
      <point x="432" y="607" type="qcurve"/>
      <point x="337" y="607"/>
      <point x="203" y="470"/>
      <point x="203" y="373" type="qcurve"/>
      <point x="203" y="275"/>
      <point x="337" y="138"/>
      <point x="432" y="138" type="qcurve"/>
      <point x="470" y="138"/>
      <point x="505" y="150" type="qcurve"/>
      <point x="505" y="-12" type="line"/>
      <point x="469" y="-19"/>
      <point x="432" y="-19" type="qcurve"/>
      <point x="274" y="-19"/>
      <point x="50" y="212"/>
      <point x="50" y="538"/>
      <point x="274" y="768"/>
      <point x="432" y="768" type="qcurve"/>
      <point x="469" y="768"/>
      <point x="505" y="761" type="qcurve"/>
      <point x="505" y="595" type="line"/>
      <point x="470" y="607"/>
    </contour>
  </outline>
</glyph>
<glyph name="D" format="2">
  <advance width="630"/>
  <unicode hex="0044"/>
  <outline>
    <contour>
      <point x="202" y="138" type="line"/>
      <point x="296" y="140"/>
      <point x="427" y="277"/>
      <point x="427" y="373" type="qcurve"/>
      <point x="427" y="469"/>
      <point x="296" y="605"/>
      <point x="202" y="607" type="qcurve"/>
    </contour>
    <contour>
      <point x="50" y="763" type="line"/>
      <point x="65" y="758"/>
      <point x="183" y="768"/>
      <point x="198" y="768" type="qcurve"/>
      <point x="356" y="768"/>
      <point x="580" y="538"/>
      <point x="580" y="375" type="qcurve"/>
      <point x="580" y="268"/>
      <point x="479" y="88"/>
      <point x="305" y="-18"/>
      <point x="202" y="-19" type="qcurve"/>
      <point x="50" y="-19" type="line"/>
    </contour>
  </outline>
</glyph>
<glyph name="E" format="2">
  <advance width="668"/>
  <unicode hex="0045"/>
  <outline>
    <contour>
      <point x="215" y="473" type="line"/>
      <point x="213" y="473"/>
      <point x="213" y="475" type="qcurve"/>
      <point x="213" y="602" type="line"/>
      <point x="213" y="604"/>
      <point x="215" y="604" type="qcurve"/>
      <point x="587" y="604" type="line"/>
      <point x="586" y="737" type="line"/>
      <point x="81" y="737" type="line"/>
      <point x="81" y="736"/>
      <point x="81" y="736"/>
      <point x="81" y="735" type="qcurve"/>
      <point x="81" y="39" type="line"/>
      <point x="81" y="39"/>
      <point x="81" y="38" type="qcurve"/>
      <point x="587" y="38" type="line"/>
      <point x="586" y="171" type="line"/>
      <point x="215" y="171" type="line"/>
      <point x="213" y="171"/>
      <point x="213" y="173" type="qcurve"/>
      <point x="213" y="338" type="line"/>
      <point x="213" y="341"/>
      <point x="215" y="341" type="qcurve"/>
      <point x="490" y="341" type="line"/>
      <point x="489" y="473" type="line"/>
    </contour>
    <contour>
      <point x="492" y="336" type="qcurve"/>
      <point x="217" y="336" type="line"/>
      <point x="217" y="175" type="line"/>
      <point x="589" y="175" type="line"/>
      <point x="591" y="175"/>
      <point x="591" y="173" type="qcurve"/>
      <point x="592" y="36" type="line"/>
      <point x="592" y="34"/>
      <point x="590" y="34" type="qcurve"/>
      <point x="79" y="34" type="line"/>
      <point x="78" y="34"/>
      <point x="77" y="35" type="qcurve"/>
      <point x="76" y="36"/>
      <point x="76" y="37" type="qcurve"/>
      <point x="76" y="735" type="line"/>
      <point x="76" y="736"/>
      <point x="76" y="736" type="qcurve"/>
      <point x="76" y="739" type="line"/>
      <point x="76" y="741"/>
      <point x="78" y="741" type="qcurve"/>
      <point x="589" y="741" type="line"/>
      <point x="591" y="741"/>
      <point x="591" y="739" type="qcurve"/>
      <point x="592" y="602" type="line"/>
      <point x="592" y="600"/>
      <point x="590" y="600" type="qcurve"/>
      <point x="217" y="600" type="line"/>
      <point x="217" y="478" type="line"/>
      <point x="492" y="478" type="line"/>
      <point x="494" y="478"/>
      <point x="494" y="475" type="qcurve"/>
      <point x="495" y="338" type="line"/>
      <point x="495" y="336"/>
    </contour>
  </outline>
</glyph>
<glyph name="F" format="2">
  <advance width="668"/>
  <unicode hex="0046"/>
  <outline>
    <contour>
      <point x="215" y="473" type="line"/>
      <point x="213" y="473"/>
      <point x="213" y="475" type="qcurve"/>
      <point x="213" y="602" type="line"/>
      <point x="213" y="604"/>
      <point x="215" y="604" type="qcurve"/>
      <point x="587" y="604" type="line"/>
      <point x="586" y="737" type="line"/>
      <point x="81" y="737" type="line"/>
      <point x="81" y="737"/>
      <point x="81" y="736"/>
      <point x="81" y="735" type="qcurve"/>
      <point x="81" y="39" type="line"/>
      <point x="213" y="39" type="line"/>
      <point x="213" y="338" type="line"/>
      <point x="213" y="341"/>
      <point x="215" y="341" type="qcurve"/>
      <point x="490" y="341" type="line"/>
      <point x="489" y="473" type="line"/>
    </contour>
    <contour>
      <point x="492" y="336" type="qcurve"/>
      <point x="217" y="336" type="line"/>
      <point x="217" y="37" type="line"/>
      <point x="217" y="35"/>
      <point x="215" y="35" type="qcurve"/>
      <point x="78" y="35" type="line"/>
      <point x="76" y="35"/>
      <point x="76" y="37" type="qcurve"/>
      <point x="76" y="735" type="line"/>
      <point x="76" y="736"/>
      <point x="76" y="736" type="qcurve"/>
      <point x="76" y="739" type="line"/>
      <point x="76" y="741"/>
      <point x="78" y="741" type="qcurve"/>
      <point x="589" y="741" type="line"/>
      <point x="591" y="741"/>
      <point x="591" y="739" type="qcurve"/>
      <point x="592" y="602" type="line"/>
      <point x="592" y="600"/>
      <point x="590" y="600" type="qcurve"/>
      <point x="217" y="600" type="line"/>
      <point x="217" y="478" type="line"/>
      <point x="492" y="478" type="line"/>
      <point x="494" y="478"/>
      <point x="494" y="475" type="qcurve"/>
      <point x="495" y="339" type="line"/>
      <point x="495" y="336"/>
    </contour>
  </outline>
</glyph>
<glyph name="G" format="2">
  <advance width="651"/>
  <unicode hex="0047"/>
  <outline>
    <contour>
      <point x="421" y="28" type="qcurve"/>
      <point x="424" y="28"/>
      <point x="434" y="28"/>
      <point x="437" y="28" type="qcurve"/>
      <point x="437" y="28"/>
      <point x="438" y="28" type="qcurve"/>
      <point x="571" y="28" type="line"/>
      <point x="571" y="317" type="line"/>
      <point x="439" y="317" type="line"/>
      <point x="439" y="167" type="line"/>
      <point x="439" y="165"/>
      <point x="437" y="165" type="qcurve"/>
      <point x="429" y="164"/>
      <point x="421" y="164" type="qcurve"/>
      <point x="335" y="164"/>
      <point x="213" y="289"/>
      <point x="213" y="378" type="qcurve"/>
      <point x="213" y="466"/>
      <point x="335" y="591"/>
      <point x="421" y="591" type="qcurve"/>
      <point x="454" y="591"/>
      <point x="485" y="581" type="qcurve"/>
      <point x="485" y="725" type="line"/>
      <point x="453" y="731"/>
      <point x="421" y="731" type="qcurve"/>
      <point x="329" y="731"/>
      <point x="171" y="637"/>
      <point x="80" y="475"/>
      <point x="80" y="380" type="qcurve"/>
      <point x="80" y="284"/>
      <point x="171" y="122"/>
      <point x="329" y="28"/>
    </contour>
    <contour>
      <point x="421" y="586" type="qcurve"/>
      <point x="337" y="586"/>
      <point x="218" y="464"/>
      <point x="218" y="378" type="qcurve"/>
      <point x="218" y="291"/>
      <point x="337" y="169"/>
      <point x="421" y="169" type="qcurve"/>
      <point x="428" y="169"/>
      <point x="434" y="169" type="qcurve"/>
      <point x="434" y="320" type="line"/>
      <point x="434" y="322"/>
      <point x="437" y="322" type="qcurve"/>
      <point x="573" y="322" type="line"/>
      <point x="576" y="322"/>
      <point x="576" y="320" type="qcurve"/>
      <point x="576" y="25" type="line"/>
      <point x="576" y="23"/>
      <point x="573" y="23" type="qcurve"/>
      <point x="437" y="23" type="line"/>
      <point x="436" y="23"/>
      <point x="436" y="23" type="qcurve"/>
      <point x="428" y="23"/>
      <point x="421" y="23" type="qcurve"/>
      <point x="327" y="23"/>
      <point x="168" y="118"/>
      <point x="75" y="283"/>
      <point x="75" y="380" type="qcurve"/>
      <point x="75" y="477"/>
      <point x="168" y="641"/>
      <point x="327" y="736"/>
      <point x="421" y="736" type="qcurve"/>
      <point x="455" y="736"/>
      <point x="487" y="729" type="qcurve"/>
      <point x="489" y="729"/>
      <point x="489" y="727" type="qcurve"/>
      <point x="489" y="578" type="line"/>
      <point x="489" y="576"/>
      <point x="487" y="576" type="qcurve"/>
      <point x="487" y="576"/>
      <point x="486" y="576" type="qcurve"/>
      <point x="455" y="586"/>
    </contour>
  </outline>
</glyph>
<glyph name="H" format="2">
  <advance width="652"/>
  <unicode hex="0048"/>
  <outline>
    <contour>
      <point x="572" y="733" type="line"/>
      <point x="440" y="733" type="line"/>
      <point x="440" y="475" type="line"/>
      <point x="440" y="473"/>
      <point x="438" y="473" type="qcurve"/>
      <point x="214" y="473" type="line"/>
      <point x="212" y="473"/>
      <point x="212" y="475" type="qcurve"/>
      <point x="212" y="733" type="line"/>
      <point x="80" y="733" type="line"/>
      <point x="80" y="39" type="line"/>
      <point x="212" y="39" type="line"/>
      <point x="212" y="338" type="line"/>
      <point x="212" y="341"/>
      <point x="214" y="341" type="qcurve"/>
      <point x="438" y="341" type="line"/>
      <point x="440" y="341"/>
      <point x="440" y="338" type="qcurve"/>
      <point x="440" y="39" type="line"/>
      <point x="572" y="39" type="line"/>
    </contour>
    <contour>
      <point x="438" y="737" type="qcurve"/>
      <point x="574" y="737" type="line"/>
      <point x="577" y="737"/>
      <point x="577" y="735" type="qcurve"/>
      <point x="577" y="37" type="line"/>
      <point x="577" y="35"/>
      <point x="574" y="35" type="qcurve"/>
      <point x="438" y="35" type="line"/>
      <point x="435" y="35"/>
      <point x="435" y="37" type="qcurve"/>
      <point x="435" y="336" type="line"/>
      <point x="217" y="336" type="line"/>
      <point x="217" y="37" type="line"/>
      <point x="217" y="35"/>
      <point x="214" y="35" type="qcurve"/>
      <point x="78" y="35" type="line"/>
      <point x="75" y="35"/>
      <point x="75" y="37" type="qcurve"/>
      <point x="75" y="735" type="line"/>
      <point x="75" y="737"/>
      <point x="78" y="737" type="qcurve"/>
      <point x="214" y="737" type="line"/>
      <point x="217" y="737"/>
      <point x="217" y="735" type="qcurve"/>
      <point x="217" y="477" type="line"/>
      <point x="435" y="477" type="line"/>
      <point x="435" y="735" type="line"/>
      <point x="435" y="737"/>
    </contour>
  </outline>
</glyph>
<glyph name="I" format="2">
  <advance width="252"/>
  <unicode hex="0049"/>
  <outline>
    <contour>
      <point x="192" y="733" type="line"/>
      <point x="60" y="733" type="line"/>
      <point x="60" y="39" type="line"/>
      <point x="192" y="39" type="line"/>
    </contour>
    <contour>
      <point x="58" y="737" type="qcurve"/>
      <point x="194" y="737" type="line"/>
      <point x="197" y="737"/>
      <point x="197" y="735" type="qcurve"/>
      <point x="197" y="37" type="line"/>
      <point x="197" y="35"/>
      <point x="194" y="35" type="qcurve"/>
      <point x="58" y="35" type="line"/>
      <point x="55" y="35"/>
      <point x="55" y="37" type="qcurve"/>
      <point x="55" y="735" type="line"/>
      <point x="55" y="737"/>
    </contour>
  </outline>
</glyph>
<glyph name="J" format="2">
  <advance width="419"/>
  <unicode hex="004A"/>
  <outline>
    <contour>
      <point x="204" y="721" type="line"/>
      <point x="204" y="204" type="line"/>
      <point x="204" y="204"/>
      <point x="203" y="203" type="qcurve"/>
      <point x="174" y="169"/>
      <point x="129" y="169" type="qcurve"/>
      <point x="95" y="169"/>
      <point x="67" y="190" type="qcurve"/>
      <point x="67" y="45" type="line"/>
      <point x="97" y="37"/>
      <point x="129" y="37" type="qcurve"/>
      <point x="207" y="37"/>
      <point x="326" y="130"/>
      <point x="347" y="204" type="qcurve"/>
      <point x="350" y="721" type="line"/>
    </contour>
    <contour>
      <point x="63" y="43" type="qcurve"/>
      <point x="63" y="194" type="line"/>
      <point x="63" y="197"/>
      <point x="65" y="197" type="qcurve"/>
      <point x="66" y="197"/>
      <point x="66" y="196" type="qcurve"/>
      <point x="94" y="173"/>
      <point x="129" y="173" type="qcurve"/>
      <point x="171" y="173"/>
      <point x="199" y="205" type="qcurve"/>
      <point x="199" y="723" type="line"/>
      <point x="199" y="725"/>
      <point x="202" y="725" type="qcurve"/>
      <point x="352" y="725" type="line"/>
      <point x="354" y="725"/>
      <point x="354" y="723" type="qcurve"/>
      <point x="352" y="203" type="line"/>
      <point x="330" y="128"/>
      <point x="208" y="33"/>
      <point x="129" y="33" type="qcurve"/>
      <point x="96" y="33"/>
      <point x="64" y="41" type="qcurve"/>
      <point x="63" y="42"/>
    </contour>
  </outline>
</glyph>
<glyph name="K" format="2">
  <advance width="753"/>
  <unicode hex="004B"/>
  <outline>
    <contour>
      <point x="50" y="769" type="line"/>
      <point x="202" y="769" type="line"/>
      <point x="202" y="428" type="line"/>
      <point x="447" y="765" type="line"/>
      <point x="633" y="763" type="line"/>
      <point x="372" y="382" type="line"/>
      <point x="703" y="-8" type="line"/>
      <point x="511" y="-7" type="line"/>
      <point x="259" y="297" type="line"/>
      <point x="202" y="214" type="line"/>
      <point x="202" y="-7" type="line"/>
      <point x="50" y="-7" type="line"/>
    </contour>
  </outline>
</glyph>
<glyph name="M" format="2">
  <advance width="1052"/>
  <unicode hex="004D"/>
  <outline>
    <contour>
      <point x="100" y="727" type="line"/>
      <point x="100" y="39" type="line"/>
      <point x="232" y="39" type="line"/>
      <point x="232" y="467" type="line"/>
      <point x="232" y="469"/>
      <point x="234" y="469" type="qcurve"/>
      <point x="236" y="469"/>
      <point x="236" y="468" type="qcurve"/>
      <point x="459" y="41" type="line"/>
      <point x="593" y="41" type="line"/>
      <point x="816" y="468" type="line"/>
      <point x="816" y="469"/>
      <point x="818" y="469" type="qcurve"/>
      <point x="820" y="469"/>
      <point x="820" y="467" type="qcurve"/>
      <point x="820" y="39" type="line"/>
      <point x="952" y="39" type="line"/>
      <point x="952" y="727" type="line"/>
      <point x="819" y="727" type="line"/>
      <point x="528" y="169" type="line"/>
      <point x="527" y="167"/>
      <point x="525" y="167"/>
      <point x="524" y="169" type="qcurve"/>
      <point x="233" y="727" type="line"/>
    </contour>
    <contour>
      <point x="98" y="732" type="qcurve"/>
      <point x="234" y="732" type="line"/>
      <point x="236" y="732"/>
      <point x="236" y="731" type="qcurve"/>
      <point x="526" y="174" type="line"/>
      <point x="816" y="731" type="line"/>
      <point x="816" y="732"/>
      <point x="818" y="732" type="qcurve"/>
      <point x="954" y="732" type="line"/>
      <point x="957" y="732"/>
      <point x="957" y="730" type="qcurve"/>
      <point x="957" y="36" type="line"/>
      <point x="957" y="34"/>
      <point x="954" y="34" type="qcurve"/>
      <point x="818" y="34" type="line"/>
      <point x="815" y="34"/>
      <point x="815" y="36" type="qcurve"/>
      <point x="815" y="458" type="line"/>
      <point x="596" y="37" type="line"/>
      <point x="596" y="36"/>
      <point x="594" y="36" type="qcurve"/>
      <point x="458" y="36" type="line"/>
      <point x="456" y="36"/>
      <point x="456" y="37" type="qcurve"/>
      <point x="237" y="458" type="line"/>
      <point x="237" y="36" type="line"/>
      <point x="237" y="34"/>
      <point x="234" y="34" type="qcurve"/>
      <point x="98" y="34" type="line"/>
      <point x="95" y="34"/>
      <point x="95" y="36" type="qcurve"/>
      <point x="95" y="730" type="line"/>
      <point x="95" y="732"/>
    </contour>
  </outline>
</glyph>
<glyph name="N" format="2">
  <advance width="852"/>
  <unicode hex="004E"/>
  <outline>
    <contour>
      <point x="50" y="769" type="line"/>
      <point x="202" y="769" type="line"/>
      <point x="650" y="246" type="line"/>
      <point x="650" y="769" type="line"/>
      <point x="802" y="769" type="line"/>
      <point x="802" y="-7" type="line"/>
      <point x="650" y="-7" type="line"/>
      <point x="202" y="518" type="line"/>
      <point x="202" y="-7" type="line"/>
      <point x="50" y="-7" type="line"/>
    </contour>
  </outline>
</glyph>
<glyph name="O" format="2">
  <advance width="864"/>
  <unicode hex="004F"/>
  <outline>
    <contour>
      <point x="661" y="373" type="qcurve"/>
      <point x="661" y="470"/>
      <point x="527" y="607"/>
      <point x="337" y="607"/>
      <point x="203" y="470"/>
      <point x="203" y="373" type="qcurve"/>
      <point x="203" y="275"/>
      <point x="337" y="138"/>
      <point x="527" y="138"/>
      <point x="661" y="275"/>
    </contour>
    <contour>
      <point x="814" y="538"/>
      <point x="814" y="212"/>
      <point x="590" y="-19"/>
      <point x="274" y="-19"/>
      <point x="50" y="212"/>
      <point x="50" y="538"/>
      <point x="274" y="768"/>
      <point x="590" y="768"/>
    </contour>
  </outline>
</glyph>
<glyph name="P" format="2">
  <advance width="534"/>
  <unicode hex="0050"/>
  <outline>
    <contour>
      <point x="202" y="621" type="qcurve"/>
      <point x="202" y="414" type="line"/>
      <point x="214" y="411"/>
      <point x="226" y="411" type="qcurve"/>
      <point x="271" y="411"/>
      <point x="333" y="473"/>
      <point x="333" y="518" type="qcurve"/>
      <point x="333" y="562"/>
      <point x="271" y="624"/>
      <point x="226" y="624" type="qcurve"/>
      <point x="214" y="624"/>
    </contour>
    <contour>
      <point x="202" y="-2" type="line"/>
      <point x="50" y="-2" type="line"/>
      <point x="50" y="774" type="line"/>
      <point x="202" y="774" type="line"/>
      <point x="210" y="775"/>
      <point x="226" y="775" type="qcurve"/>
      <point x="333" y="775"/>
      <point x="484" y="625"/>
      <point x="484" y="411"/>
      <point x="333" y="260"/>
      <point x="226" y="260" type="qcurve"/>
      <point x="210" y="260"/>
      <point x="202" y="261" type="qcurve"/>
    </contour>
  </outline>
</glyph>
<glyph name="Q" format="2">
  <advance width="864"/>
  <unicode hex="0051"/>
  <outline>
    <contour>
      <point x="636" y="369" type="qcurve"/>
      <point x="636" y="456"/>
      <point x="517" y="578"/>
      <point x="348" y="578"/>
      <point x="229" y="456"/>
      <point x="229" y="369" type="qcurve"/>
      <point x="229" y="282"/>
      <point x="348" y="160"/>
      <point x="517" y="160"/>
      <point x="636" y="282"/>
    </contour>
    <contour>
      <point x="641" y="369" type="qcurve"/>
      <point x="641" y="281"/>
      <point x="519" y="156"/>
      <point x="346" y="156"/>
      <point x="224" y="281"/>
      <point x="224" y="369" type="qcurve"/>
      <point x="224" y="457"/>
      <point x="346" y="582"/>
      <point x="519" y="582"/>
      <point x="641" y="457"/>
    </contour>
    <contour>
      <point x="774" y="371" type="qcurve"/>
      <point x="774" y="467"/>
      <point x="683" y="628"/>
      <point x="525" y="723"/>
      <point x="340" y="723"/>
      <point x="182" y="628"/>
      <point x="91" y="467"/>
      <point x="91" y="371" type="qcurve"/>
      <point x="91" y="275"/>
      <point x="182" y="113"/>
      <point x="340" y="19"/>
      <point x="432" y="19" type="qcurve"/>
      <point x="463" y="19"/>
      <point x="494" y="24" type="qcurve"/>
      <point x="495" y="24"/>
      <point x="496" y="24" type="qcurve"/>
      <point x="659" y="-140" type="line"/>
      <point x="780" y="-18" type="line"/>
      <point x="659" y="104" type="line"/>
      <point x="658" y="105"/>
      <point x="658" y="106"/>
      <point x="659" y="107" type="qcurve"/>
      <point x="713" y="156"/>
      <point x="774" y="294"/>
    </contour>
    <contour>
      <point x="432" y="14" type="qcurve"/>
      <point x="338" y="14"/>
      <point x="179" y="110"/>
      <point x="86" y="274"/>
      <point x="86" y="371" type="qcurve"/>
      <point x="86" y="468"/>
      <point x="179" y="632"/>
      <point x="338" y="727"/>
      <point x="526" y="727"/>
      <point x="686" y="632"/>
      <point x="778" y="468"/>
      <point x="778" y="371" type="qcurve"/>
      <point x="778" y="293"/>
      <point x="717" y="155"/>
      <point x="664" y="105" type="qcurve"/>
      <point x="785" y="-16" type="line"/>
      <point x="786" y="-17"/>
      <point x="786" y="-19"/>
      <point x="785" y="-19" type="qcurve"/>
      <point x="661" y="-144" type="line"/>
      <point x="660" y="-145"/>
      <point x="658" y="-145"/>
      <point x="658" y="-144" type="qcurve"/>
      <point x="493" y="20" type="line"/>
      <point x="463" y="14"/>
    </contour>
  </outline>
</glyph>
<glyph name="R" format="2">
  <advance width="512"/>
  <unicode hex="0052"/>
  <outline>
    <contour>
      <point x="231" y="416" type="qcurve"/>
      <point x="270" y="416"/>
      <point x="325" y="470"/>
      <point x="325" y="510" type="qcurve"/>
      <point x="325" y="549"/>
      <point x="270" y="603"/>
      <point x="231" y="603" type="qcurve"/>
      <point x="221" y="603"/>
      <point x="211" y="600" type="qcurve"/>
      <point x="211" y="418" type="line"/>
      <point x="221" y="416"/>
    </contour>
    <contour>
      <point x="231" y="607" type="qcurve"/>
      <point x="272" y="607"/>
      <point x="329" y="550"/>
      <point x="329" y="510" type="qcurve"/>
      <point x="329" y="468"/>
      <point x="272" y="411"/>
      <point x="231" y="411" type="qcurve"/>
      <point x="219" y="411"/>
      <point x="208" y="414" type="qcurve"/>
      <point x="207" y="414"/>
      <point x="207" y="416" type="qcurve"/>
      <point x="207" y="602" type="line"/>
      <point x="207" y="604"/>
      <point x="208" y="604" type="qcurve"/>
      <point x="219" y="607"/>
    </contour>
    <contour>
      <point x="74" y="44" type="line"/>
      <point x="207" y="44" type="line"/>
      <point x="207" y="278" type="line"/>
      <point x="207" y="280"/>
      <point x="209" y="280" type="qcurve"/>
      <point x="214" y="280"/>
      <point x="215" y="279" type="qcurve"/>
      <point x="363" y="38" type="line"/>
      <point x="484" y="38" type="line"/>
      <point x="307" y="290" type="line"/>
      <point x="307" y="290"/>
      <point x="307" y="291" type="qcurve"/>
      <point x="307" y="292"/>
      <point x="308" y="293" type="qcurve"/>
      <point x="376" y="317"/>
      <point x="460" y="435"/>
      <point x="460" y="510" type="qcurve"/>
      <point x="460" y="605"/>
      <point x="326" y="739"/>
      <point x="231" y="739" type="qcurve"/>
      <point x="216" y="739"/>
      <point x="209" y="738" type="qcurve"/>
      <point x="74" y="738" type="line"/>
    </contour>
    <contour>
      <point x="209" y="39" type="qcurve"/>
      <point x="72" y="39" type="line"/>
      <point x="70" y="39"/>
      <point x="70" y="42" type="qcurve"/>
      <point x="70" y="740" type="line"/>
      <point x="70" y="742"/>
      <point x="72" y="742" type="qcurve"/>
      <point x="209" y="742" type="line"/>
      <point x="216" y="743"/>
      <point x="230" y="743" type="qcurve"/>
      <point x="231" y="743" type="line"/>
      <point x="328" y="743"/>
      <point x="465" y="606"/>
      <point x="465" y="510" type="qcurve"/>
      <point x="465" y="435"/>
      <point x="380" y="315"/>
      <point x="313" y="290" type="qcurve"/>
      <point x="490" y="37" type="line"/>
      <point x="490" y="37"/>
      <point x="490" y="36" type="qcurve"/>
      <point x="490" y="34"/>
      <point x="488" y="34" type="qcurve"/>
      <point x="362" y="34" type="line"/>
      <point x="361" y="34"/>
      <point x="360" y="35" type="qcurve"/>
      <point x="212" y="276" type="line"/>
      <point x="212" y="276"/>
      <point x="211" y="276" type="qcurve"/>
      <point x="211" y="42" type="line"/>
      <point x="211" y="39"/>
    </contour>
  </outline>
</glyph>
<glyph name="S" format="2">
  <advance width="512"/>
  <unicode hex="0053"/>
  <outline>
    <contour>
      <point x="436" y="245" type="qcurve"/>
      <point x="436" y="296"/>
      <point x="358" y="376"/>
      <point x="291" y="412" type="qcurve"/>
      <point x="260" y="418"/>
      <point x="220" y="471"/>
      <point x="220" y="504" type="qcurve"/>
      <point x="220" y="528"/>
      <point x="232" y="548" type="qcurve"/>
      <point x="246" y="570"/>
      <point x="291" y="595"/>
      <point x="317" y="595" type="qcurve"/>
      <point x="343" y="595"/>
      <point x="366" y="582" type="qcurve"/>
      <point x="375" y="578"/>
      <point x="384" y="570" type="qcurve"/>
      <point x="449" y="679" type="line"/>
      <point x="447" y="680"/>
      <point x="435" y="688"/>
      <point x="432" y="691" type="qcurve"/>
      <point x="377" y="720"/>
      <point x="316" y="720" type="qcurve"/>
      <point x="255" y="720"/>
      <point x="149" y="663"/>
      <point x="118" y="612" type="qcurve"/>
      <point x="88" y="562"/>
      <point x="88" y="513" type="qcurve"/>
      <point x="88" y="456"/>
      <point x="166" y="359"/>
      <point x="230" y="324" type="qcurve"/>
      <point x="260" y="319"/>
      <point x="304" y="279"/>
      <point x="304" y="252" type="qcurve"/>
      <point x="304" y="235"/>
      <point x="295" y="219" type="qcurve"/>
      <point x="281" y="197"/>
      <point x="236" y="173"/>
      <point x="211" y="173" type="qcurve"/>
      <point x="185" y="173"/>
      <point x="161" y="187" type="qcurve"/>
      <point x="152" y="191"/>
      <point x="143" y="199" type="qcurve"/>
      <point x="78" y="90" type="line"/>
      <point x="80" y="89"/>
      <point x="92" y="81"/>
      <point x="95" y="78" type="qcurve"/>
      <point x="108" y="71"/>
      <point x="148" y="59"/>
      <point x="180" y="54"/>
      <point x="210" y="49"/>
      <point x="212" y="48" type="qcurve"/>
      <point x="272" y="48"/>
      <point x="378" y="105"/>
      <point x="408" y="157" type="qcurve"/>
      <point x="436" y="203"/>
    </contour>
    <contour>
      <point x="142" y="204" type="qcurve"/>
      <point x="143" y="204"/>
      <point x="144" y="204" type="qcurve"/>
      <point x="154" y="195"/>
      <point x="163" y="191" type="qcurve"/>
      <point x="186" y="178"/>
      <point x="211" y="178" type="qcurve"/>
      <point x="263" y="178"/>
      <point x="291" y="221" type="qcurve"/>
      <point x="300" y="237"/>
      <point x="300" y="252" type="qcurve"/>
      <point x="300" y="277"/>
      <point x="258" y="315"/>
      <point x="229" y="320" type="qcurve"/>
      <point x="163" y="355"/>
      <point x="84" y="454"/>
      <point x="84" y="513" type="qcurve"/>
      <point x="84" y="563"/>
      <point x="114" y="615" type="qcurve"/>
      <point x="146" y="667"/>
      <point x="254" y="724"/>
      <point x="316" y="724" type="qcurve"/>
      <point x="379" y="724"/>
      <point x="434" y="695" type="qcurve"/>
      <point x="435" y="695"/>
      <point x="435" y="694" type="qcurve"/>
      <point x="438" y="691"/>
      <point x="451" y="683"/>
      <point x="454" y="681" type="qcurve"/>
      <point x="454" y="680"/>
      <point x="454" y="679" type="qcurve"/>
      <point x="454" y="679"/>
      <point x="454" y="678" type="qcurve"/>
      <point x="386" y="566" type="line"/>
      <point x="386" y="564"/>
      <point x="385" y="564" type="qcurve"/>
      <point x="384" y="564"/>
      <point x="383" y="565" type="qcurve"/>
      <point x="373" y="574"/>
      <point x="364" y="578" type="qcurve"/>
      <point x="342" y="590"/>
      <point x="317" y="590" type="qcurve"/>
      <point x="263" y="590"/>
      <point x="236" y="546" type="qcurve"/>
      <point x="225" y="527"/>
      <point x="225" y="504" type="qcurve"/>
      <point x="225" y="473"/>
      <point x="262" y="422"/>
      <point x="292" y="417" type="qcurve"/>
      <point x="293" y="417"/>
      <point x="293" y="417" type="qcurve"/>
      <point x="361" y="380"/>
      <point x="441" y="298"/>
      <point x="441" y="245" type="qcurve"/>
      <point x="441" y="202"/>
      <point x="412" y="154" type="qcurve"/>
      <point x="381" y="102"/>
      <point x="273" y="44"/>
      <point x="212" y="44" type="qcurve"/>
      <point x="149" y="44"/>
      <point x="93" y="74" type="qcurve"/>
      <point x="92" y="74"/>
      <point x="92" y="75" type="qcurve"/>
      <point x="89" y="78"/>
      <point x="76" y="86"/>
      <point x="73" y="88" type="qcurve"/>
      <point x="73" y="89"/>
      <point x="73" y="90" type="qcurve"/>
      <point x="73" y="90"/>
      <point x="73" y="91" type="qcurve"/>
      <point x="141" y="203" type="line"/>
      <point x="141" y="204"/>
    </contour>
  </outline>
</glyph>
<glyph name="T" format="2">
  <advance width="676"/>
  <unicode hex="0054"/>
  <outline>
    <contour>
      <point x="50" y="609" type="line"/>
      <point x="50" y="761" type="line"/>
      <point x="626" y="761" type="line"/>
      <point x="626" y="609" type="line"/>
      <point x="414" y="609" type="line"/>
      <point x="414" y="-7" type="line"/>
      <point x="262" y="-7" type="line"/>
      <point x="262" y="609" type="line"/>
    </contour>
  </outline>
</glyph>
<glyph name="U" format="2">
  <advance width="669"/>
  <unicode hex="0055"/>
  <outline>
    <contour>
      <point x="442" y="721" type="line"/>
      <point x="442" y="205" type="line"/>
      <point x="442" y="204"/>
      <point x="442" y="203" type="qcurve"/>
      <point x="416" y="172"/>
      <point x="336" y="172" type="qcurve"/>
      <point x="254" y="172"/>
      <point x="227" y="203" type="qcurve"/>
      <point x="226" y="204"/>
      <point x="226" y="205" type="qcurve"/>
      <point x="226" y="721" type="line"/>
      <point x="81" y="721" type="line"/>
      <point x="83" y="204" type="line"/>
      <point x="105" y="127"/>
      <point x="246" y="43"/>
      <point x="334" y="43" type="qcurve"/>
      <point x="422" y="43"/>
      <point x="564" y="128"/>
      <point x="586" y="204" type="qcurve"/>
      <point x="588" y="721" type="line"/>
    </contour>
    <contour>
      <point x="78" y="725" type="qcurve"/>
      <point x="229" y="725" type="line"/>
      <point x="231" y="725"/>
      <point x="231" y="723" type="qcurve"/>
      <point x="231" y="206" type="line"/>
      <point x="243" y="192"/>
      <point x="301" y="177"/>
      <point x="336" y="177" type="qcurve"/>
      <point x="413" y="177"/>
      <point x="438" y="206" type="qcurve"/>
      <point x="438" y="723" type="line"/>
      <point x="438" y="725"/>
      <point x="440" y="725" type="qcurve"/>
      <point x="591" y="725" type="line"/>
      <point x="593" y="725"/>
      <point x="593" y="723" type="qcurve"/>
      <point x="590" y="204" type="line"/>
      <point x="590" y="203"/>
      <point x="590" y="203" type="qcurve"/>
      <point x="568" y="125"/>
      <point x="423" y="39"/>
      <point x="334" y="39" type="qcurve"/>
      <point x="245" y="39"/>
      <point x="101" y="124"/>
      <point x="79" y="203" type="qcurve"/>
      <point x="79" y="203"/>
      <point x="79" y="204" type="qcurve"/>
      <point x="76" y="723" type="line"/>
      <point x="76" y="725"/>
    </contour>
  </outline>
</glyph>
<glyph name="V" format="2">
  <advance width="652"/>
  <unicode hex="0056"/>
  <outline>
    <contour>
      <point x="328" y="299"/>
      <point x="324" y="299"/>
      <point x="324" y="301" type="qcurve"/>
      <point x="213" y="728" type="line"/>
      <point x="81" y="728" type="line"/>
      <point x="259" y="41" type="line"/>
      <point x="393" y="41" type="line"/>
      <point x="571" y="728" type="line"/>
      <point x="439" y="728" type="line"/>
      <point x="328" y="301" type="line"/>
    </contour>
    <contour>
      <point x="78" y="733" type="qcurve"/>
      <point x="214" y="733" type="line"/>
      <point x="216" y="733"/>
      <point x="217" y="731" type="qcurve"/>
      <point x="326" y="310" type="line"/>
      <point x="435" y="731" type="line"/>
      <point x="436" y="733"/>
      <point x="438" y="733" type="qcurve"/>
      <point x="574" y="733" type="line"/>
      <point x="577" y="733"/>
      <point x="577" y="731" type="qcurve"/>
      <point x="577" y="730"/>
      <point x="577" y="730" type="qcurve"/>
      <point x="397" y="38" type="line"/>
      <point x="396" y="36"/>
      <point x="394" y="36" type="qcurve"/>
      <point x="258" y="36" type="line"/>
      <point x="256" y="36"/>
      <point x="255" y="38" type="qcurve"/>
      <point x="75" y="730" type="line"/>
      <point x="75" y="730"/>
      <point x="75" y="731" type="qcurve"/>
      <point x="75" y="733"/>
    </contour>
  </outline>
</glyph>
<glyph name="W" format="2">
  <advance width="1000"/>
  <unicode hex="0057"/>
  <outline>
    <contour>
      <point x="525" y="472"/>
      <point x="528" y="472"/>
      <point x="529" y="470" type="qcurve"/>
      <point x="640" y="41" type="line"/>
      <point x="774" y="41" type="line"/>
      <point x="952" y="728" type="line"/>
      <point x="820" y="728" type="line"/>
      <point x="709" y="301" type="line"/>
      <point x="709" y="299"/>
      <point x="705" y="299"/>
      <point x="705" y="301" type="qcurve"/>
      <point x="594" y="728" type="line"/>
      <point x="459" y="728" type="line"/>
      <point x="348" y="301" type="line"/>
      <point x="348" y="299"/>
      <point x="344" y="299"/>
      <point x="344" y="301" type="qcurve"/>
      <point x="233" y="728" type="line"/>
      <point x="101" y="728" type="line"/>
      <point x="279" y="41" type="line"/>
      <point x="413" y="41" type="line"/>
      <point x="524" y="470" type="line"/>
    </contour>
    <contour>
      <point x="98" y="733" type="qcurve"/>
      <point x="234" y="733" type="line"/>
      <point x="236" y="733"/>
      <point x="237" y="731" type="qcurve"/>
      <point x="346" y="310" type="line"/>
      <point x="455" y="731" type="line"/>
      <point x="456" y="733"/>
      <point x="458" y="733" type="qcurve"/>
      <point x="595" y="733" type="line"/>
      <point x="597" y="733"/>
      <point x="598" y="731" type="qcurve"/>
      <point x="707" y="310" type="line"/>
      <point x="816" y="731" type="line"/>
      <point x="817" y="733"/>
      <point x="819" y="733" type="qcurve"/>
      <point x="955" y="733" type="line"/>
      <point x="958" y="733"/>
      <point x="958" y="731" type="qcurve"/>
      <point x="958" y="730"/>
      <point x="958" y="730" type="qcurve"/>
      <point x="778" y="38" type="line"/>
      <point x="777" y="36"/>
      <point x="775" y="36" type="qcurve"/>
      <point x="639" y="36" type="line"/>
      <point x="637" y="36"/>
      <point x="636" y="38" type="qcurve"/>
      <point x="526" y="460" type="line"/>
      <point x="417" y="38" type="line"/>
      <point x="416" y="36"/>
      <point x="414" y="36" type="qcurve"/>
      <point x="278" y="36" type="line"/>
      <point x="276" y="36"/>
      <point x="275" y="38" type="qcurve"/>
      <point x="95" y="730" type="line"/>
      <point x="95" y="730"/>
      <point x="95" y="731" type="qcurve"/>
      <point x="95" y="733"/>
    </contour>
  </outline>
</glyph>
<glyph name="X" format="2">
  <advance width="724"/>
  <unicode hex="0058"/>
  <outline>
    <contour>
      <point x="50" y="765" type="line"/>
      <point x="236" y="763" type="line"/>
      <point x="366" y="536" type="line"/>
      <point x="498" y="764" type="line"/>
      <point x="673" y="763" type="line"/>
      <point x="453" y="383" type="line"/>
      <point x="674" y="-5" type="line"/>
      <point x="499" y="-7" type="line"/>
      <point x="363" y="228" type="line"/>
      <point x="229" y="-3" type="line"/>
      <point x="51" y="-6" type="line"/>
      <point x="274" y="379" type="line"/>
    </contour>
  </outline>
</glyph>
<glyph name="Y" format="2">
  <advance width="512"/>
  <unicode hex="0059"/>
  <outline>
    <contour>
      <point x="203" y="445"/>
      <point x="203" y="444"/>
      <point x="203" y="443" type="qcurve"/>
      <point x="203" y="41" type="line"/>
      <point x="335" y="41" type="line"/>
      <point x="335" y="443" type="line"/>
      <point x="335" y="445"/>
      <point x="337" y="446" type="qcurve"/>
      <point x="514" y="725" type="line"/>
      <point x="383" y="725" type="line"/>
      <point x="272" y="572" type="line"/>
      <point x="271" y="571"/>
      <point x="269" y="571"/>
      <point x="268" y="572" type="qcurve"/>
      <point x="157" y="725" type="line"/>
      <point x="26" y="725" type="line"/>
      <point x="203" y="445" type="line"/>
    </contour>
    <contour>
      <point x="340" y="39" type="line"/>
      <point x="340" y="37"/>
      <point x="338" y="37" type="qcurve"/>
      <point x="201" y="37" type="line"/>
      <point x="198" y="37"/>
      <point x="198" y="39" type="qcurve"/>
      <point x="198" y="444" type="line"/>
      <point x="20" y="726" type="line"/>
      <point x="19" y="726"/>
      <point x="19" y="727" type="qcurve"/>
      <point x="19" y="729"/>
      <point x="22" y="729" type="qcurve"/>
      <point x="158" y="729" type="line"/>
      <point x="160" y="729"/>
      <point x="160" y="728" type="qcurve"/>
      <point x="270" y="577" type="line"/>
      <point x="380" y="728" type="line"/>
      <point x="380" y="729"/>
      <point x="382" y="729" type="qcurve"/>
      <point x="518" y="729" type="line"/>
      <point x="521" y="729"/>
      <point x="521" y="727" type="qcurve"/>
      <point x="521" y="726"/>
      <point x="520" y="726" type="qcurve"/>
      <point x="340" y="442" type="line"/>
    </contour>
  </outline>
</glyph>
<glyph name="Z" format="2">
  <advance width="783"/>
  <unicode hex="005A"/>
  <outline>
    <contour>
      <point x="50" y="5" type="line"/>
      <point x="50" y="157" type="line"/>
      <point x="480" y="605" type="line"/>
      <point x="50" y="605" type="line"/>
      <point x="50" y="757" type="line"/>
      <point x="733" y="757" type="line"/>
      <point x="733" y="605" type="line"/>
      <point x="301" y="157" type="line"/>
      <point x="733" y="157" type="line"/>
      <point x="733" y="5" type="line"/>
    </contour>
  </outline>
</glyph>
<glyph name="bracketleft" format="2">
  <advance width="362"/>
  <unicode hex="005B"/>
  <outline>
    <contour>
      <point x="64" y="729" type="line"/>
      <point x="64" y="-35" type="line"/>
      <point x="296" y="-35" type="line"/>
      <point x="295" y="37" type="line"/>
      <point x="147" y="37" type="line"/>
      <point x="144" y="37"/>
      <point x="144" y="39" type="qcurve"/>
      <point x="144" y="655" type="line"/>
      <point x="144" y="657"/>
      <point x="147" y="657" type="qcurve"/>
      <point x="295" y="657" type="line"/>
      <point x="296" y="729" type="line"/>
    </contour>
    <contour>
      <point x="62" y="-40" type="line"/>
      <point x="60" y="-40"/>
      <point x="60" y="-37" type="qcurve"/>
      <point x="60" y="731" type="line"/>
      <point x="60" y="734"/>
      <point x="62" y="734" type="qcurve"/>
      <point x="298" y="734" type="line"/>
      <point x="300" y="734"/>
      <point x="300" y="731" type="qcurve"/>
      <point x="299" y="655" type="line"/>
      <point x="299" y="653"/>
      <point x="297" y="653" type="qcurve"/>
      <point x="149" y="653" type="line"/>
      <point x="149" y="41" type="line"/>
      <point x="297" y="41" type="line"/>
      <point x="299" y="41"/>
      <point x="299" y="39" type="qcurve"/>
      <point x="300" y="-37"/>
      <point x="300" y="-37" type="qcurve"/>
      <point x="300" y="-40"/>
      <point x="298" y="-40" type="qcurve"/>
    </contour>
  </outline>
</glyph>
<glyph name="backslash" format="2">
  <advance width="691"/>
  <unicode hex="005C"/>
  <outline>
    <contour>
      <point x="608" y="18" type="line"/>
      <point x="174" y="770" type="line"/>
      <point x="83" y="717" type="line"/>
      <point x="517" y="-35" type="line"/>
    </contour>
    <contour>
      <point x="614" y="17" type="qcurve"/>
      <point x="614" y="16"/>
      <point x="613" y="15" type="qcurve"/>
      <point x="517" y="-40" type="line"/>
      <point x="517" y="-40"/>
      <point x="516" y="-40" type="qcurve"/>
      <point x="515" y="-40"/>
      <point x="514" y="-39" type="qcurve"/>
      <point x="78" y="717" type="line"/>
      <point x="77" y="717"/>
      <point x="77" y="718" type="qcurve"/>
      <point x="77" y="719"/>
      <point x="78" y="720" type="qcurve"/>
      <point x="174" y="775" type="line"/>
      <point x="174" y="775"/>
      <point x="175" y="775" type="qcurve"/>
      <point x="176" y="775"/>
      <point x="177" y="774" type="qcurve"/>
      <point x="613" y="18" type="line"/>
      <point x="614" y="18"/>
    </contour>
  </outline>
</glyph>
<glyph name="bracketright" format="2">
  <advance width="362"/>
  <unicode hex="005D"/>
  <outline>
    <contour>
      <point x="296" y="-36" type="line"/>
      <point x="296" y="729" type="line"/>
      <point x="64" y="729" type="line"/>
      <point x="65" y="657" type="line"/>
      <point x="213" y="657" type="line"/>
      <point x="216" y="657"/>
      <point x="216" y="655" type="qcurve"/>
      <point x="216" y="38" type="line"/>
      <point x="216" y="36"/>
      <point x="213" y="36" type="qcurve"/>
      <point x="65" y="36" type="line"/>
      <point x="64" y="-36" type="line"/>
    </contour>
    <contour>
      <point x="298" y="-40" type="qcurve"/>
      <point x="62" y="-40" type="line"/>
      <point x="60" y="-40"/>
      <point x="60" y="-38" type="qcurve"/>
      <point x="61" y="38" type="line"/>
      <point x="61" y="40"/>
      <point x="63" y="40" type="qcurve"/>
      <point x="211" y="40" type="line"/>
      <point x="211" y="652" type="line"/>
      <point x="63" y="652" type="line"/>
      <point x="61" y="652"/>
      <point x="61" y="655" type="qcurve"/>
      <point x="60" y="731"/>
      <point x="60" y="731" type="qcurve"/>
      <point x="60" y="734"/>
      <point x="62" y="734" type="qcurve"/>
      <point x="298" y="734" type="line"/>
      <point x="300" y="734"/>
      <point x="300" y="731" type="qcurve"/>
      <point x="300" y="-38" type="line"/>
      <point x="300" y="-40"/>
    </contour>
  </outline>
</glyph>
<glyph name="asciicircum" format="2">
  <advance width="502"/>
  <unicode hex="005E"/>
  <outline>
    <contour>
      <point x="50" y="278" type="line"/>
      <point x="193" y="612" type="line"/>
      <point x="194" y="612" type="line"/>
      <point x="345" y="612" type="line"/>
      <point x="346" y="612" type="line"/>
      <point x="452" y="278" type="line"/>
      <point x="300" y="278" type="line"/>
      <point x="258" y="492" type="line"/>
      <point x="202" y="278" type="line"/>
    </contour>
  </outline>
</glyph>
<glyph name="underscore" format="2">
  <advance width="644"/>
  <unicode hex="005F"/>
  <outline>
    <contour>
      <point x="594" y="191" type="line"/>
      <point x="594" y="39" type="line"/>
      <point x="50" y="39" type="line"/>
      <point x="50" y="191" type="line"/>
    </contour>
  </outline>
</glyph>
<glyph name="grave" format="2">
  <advance width="390"/>
  <unicode hex="0060"/>
  <outline>
    <contour>
      <point x="232" y="511" type="line"/>
      <point x="50" y="693" type="line"/>
      <point x="158" y="800" type="line"/>
      <point x="340" y="618" type="line"/>
    </contour>
  </outline>
</glyph>
<glyph name="a" format="2">
  <advance width="512"/>
  <unicode hex="0061"/>
  <outline>
    <contour>
      <point x="460" y="486" type="line"/>
      <point x="326" y="486" type="line"/>
      <point x="325" y="486"/>
      <point x="325" y="486" type="qcurve"/>
      <point x="318" y="487"/>
      <point x="304" y="487" type="qcurve"/>
      <point x="208" y="487"/>
      <point x="74" y="359"/>
      <point x="74" y="265" type="qcurve"/>
      <point x="74" y="170"/>
      <point x="208" y="35"/>
      <point x="304" y="35" type="qcurve"/>
      <point x="318" y="35"/>
      <point x="325" y="36" type="qcurve"/>
      <point x="325" y="36"/>
      <point x="326" y="36" type="qcurve"/>
      <point x="328" y="36"/>
      <point x="328" y="34" type="qcurve"/>
      <point x="328" y="29" type="line"/>
      <point x="460" y="29" type="line"/>
    </contour>
    <contour>
      <point x="304" y="358" type="qcurve"/>
      <point x="264" y="358"/>
      <point x="210" y="304"/>
      <point x="210" y="265" type="qcurve"/>
      <point x="210" y="226"/>
      <point x="264" y="171"/>
      <point x="304" y="171" type="qcurve"/>
      <point x="314" y="171"/>
      <point x="323" y="173" type="qcurve"/>
      <point x="323" y="356" type="line"/>
      <point x="314" y="358"/>
    </contour>
    <contour>
      <point x="328" y="358" type="qcurve"/>
      <point x="328" y="172" type="line"/>
      <point x="328" y="170"/>
      <point x="326" y="169" type="qcurve"/>
      <point x="315" y="167"/>
      <point x="304" y="167" type="qcurve"/>
      <point x="262" y="167"/>
      <point x="205" y="224"/>
      <point x="205" y="265" type="qcurve"/>
      <point x="205" y="306"/>
      <point x="263" y="363"/>
      <point x="304" y="363" type="qcurve"/>
      <point x="315" y="363"/>
      <point x="326" y="360" type="qcurve"/>
      <point x="328" y="360"/>
    </contour>
    <contour>
      <point x="326" y="491" type="qcurve"/>
      <point x="462" y="491" type="line"/>
      <point x="465" y="491"/>
      <point x="465" y="488" type="qcurve"/>
      <point x="465" y="27" type="line"/>
      <point x="465" y="24"/>
      <point x="462" y="24" type="qcurve"/>
      <point x="326" y="24" type="line"/>
      <point x="323" y="24"/>
      <point x="323" y="27" type="qcurve"/>
      <point x="323" y="31" type="line"/>
      <point x="317" y="31"/>
      <point x="305" y="31" type="qcurve"/>
      <point x="304" y="31" type="line"/>
      <point x="206" y="31"/>
      <point x="69" y="168"/>
      <point x="69" y="265" type="qcurve"/>
      <point x="69" y="361"/>
      <point x="206" y="492"/>
      <point x="304" y="492" type="qcurve"/>
      <point x="307" y="492"/>
      <point x="322" y="491"/>
    </contour>
  </outline>
</glyph>
<glyph name="b" format="2">
  <advance width="512"/>
  <unicode hex="0062"/>
  <outline>
    <contour>
      <point x="74" y="45" type="line"/>
      <point x="208" y="45" type="line"/>
      <point x="209" y="45"/>
      <point x="209" y="45" type="qcurve"/>
      <point x="216" y="44"/>
      <point x="230" y="44" type="qcurve"/>
      <point x="326" y="44"/>
      <point x="460" y="178"/>
      <point x="460" y="273" type="qcurve"/>
      <point x="460" y="369"/>
      <point x="326" y="503"/>
      <point x="230" y="503" type="qcurve"/>
      <point x="216" y="503"/>
      <point x="209" y="502" type="qcurve"/>
      <point x="209" y="502"/>
      <point x="208" y="502" type="qcurve"/>
      <point x="206" y="502"/>
      <point x="206" y="504" type="qcurve"/>
      <point x="206" y="739" type="line"/>
      <point x="74" y="739" type="line"/>
    </contour>
    <contour>
      <point x="230" y="180" type="qcurve"/>
      <point x="270" y="180"/>
      <point x="324" y="234"/>
      <point x="324" y="273" type="qcurve"/>
      <point x="324" y="313"/>
      <point x="270" y="367"/>
      <point x="230" y="367" type="qcurve"/>
      <point x="220" y="367"/>
      <point x="211" y="365" type="qcurve"/>
      <point x="211" y="182" type="line"/>
      <point x="220" y="180"/>
    </contour>
    <contour>
      <point x="206" y="180" type="qcurve"/>
      <point x="206" y="367" type="line"/>
      <point x="206" y="369"/>
      <point x="208" y="369" type="qcurve"/>
      <point x="219" y="372"/>
      <point x="230" y="372" type="qcurve"/>
      <point x="272" y="372"/>
      <point x="329" y="315"/>
      <point x="329" y="273" type="qcurve"/>
      <point x="329" y="232"/>
      <point x="271" y="176"/>
      <point x="230" y="176" type="qcurve"/>
      <point x="219" y="176"/>
      <point x="208" y="178" type="qcurve"/>
      <point x="206" y="179"/>
    </contour>
    <contour>
      <point x="208" y="40" type="qcurve"/>
      <point x="72" y="40" type="line"/>
      <point x="69" y="40"/>
      <point x="69" y="43" type="qcurve"/>
      <point x="69" y="741" type="line"/>
      <point x="69" y="743"/>
      <point x="72" y="743" type="qcurve"/>
      <point x="208" y="743" type="line"/>
      <point x="211" y="743"/>
      <point x="211" y="741" type="qcurve"/>
      <point x="211" y="507" type="line"/>
      <point x="217" y="508"/>
      <point x="230" y="508" type="qcurve"/>
      <point x="328" y="508"/>
      <point x="465" y="371"/>
      <point x="465" y="273" type="qcurve"/>
      <point x="465" y="176"/>
      <point x="327" y="40"/>
      <point x="230" y="40" type="qcurve"/>
      <point x="227" y="40"/>
      <point x="212" y="40"/>
    </contour>
  </outline>
</glyph>
<glyph name="c" format="2">
  <advance width="384"/>
  <unicode hex="0063"/>
  <outline>
    <contour>
      <point x="65" y="260" type="qcurve"/>
      <point x="65" y="165"/>
      <point x="200" y="31"/>
      <point x="295" y="31" type="qcurve"/>
      <point x="306" y="31"/>
      <point x="317" y="32" type="qcurve"/>
      <point x="317" y="165" type="line"/>
      <point x="306" y="162"/>
      <point x="295" y="162" type="qcurve"/>
      <point x="254" y="162"/>
      <point x="197" y="219"/>
      <point x="197" y="260" type="qcurve"/>
      <point x="197" y="301"/>
      <point x="254" y="359"/>
      <point x="295" y="359" type="qcurve"/>
      <point x="306" y="359"/>
      <point x="317" y="356" type="qcurve"/>
      <point x="317" y="489" type="line"/>
      <point x="306" y="490"/>
      <point x="295" y="490" type="qcurve"/>
      <point x="200" y="490"/>
      <point x="65" y="356"/>
    </contour>
    <contour>
      <point x="295" y="26" type="qcurve"/>
      <point x="198" y="26"/>
      <point x="61" y="163"/>
      <point x="61" y="260" type="qcurve"/>
      <point x="61" y="358"/>
      <point x="198" y="494"/>
      <point x="295" y="494" type="qcurve"/>
      <point x="307" y="494"/>
      <point x="319" y="493" type="qcurve"/>
      <point x="321" y="493"/>
      <point x="321" y="491" type="qcurve"/>
      <point x="321" y="354" type="line"/>
      <point x="321" y="351"/>
      <point x="319" y="351" type="qcurve"/>
      <point x="318" y="351" type="line"/>
      <point x="307" y="354"/>
      <point x="295" y="354" type="qcurve"/>
      <point x="256" y="354"/>
      <point x="201" y="300"/>
      <point x="201" y="260" type="qcurve"/>
      <point x="201" y="221"/>
      <point x="256" y="167"/>
      <point x="295" y="167" type="qcurve"/>
      <point x="307" y="167"/>
      <point x="318" y="170" type="qcurve"/>
      <point x="319" y="170" type="line"/>
      <point x="321" y="170"/>
      <point x="321" y="167" type="qcurve"/>
      <point x="321" y="30" type="line"/>
      <point x="321" y="28"/>
      <point x="319" y="28" type="qcurve"/>
      <point x="307" y="26"/>
    </contour>
  </outline>
</glyph>
<glyph name="d" format="2">
  <advance width="512"/>
  <unicode hex="0064"/>
  <outline>
    <contour>
      <point x="460" y="739" type="line"/>
      <point x="328" y="739" type="line"/>
      <point x="328" y="504" type="line"/>
      <point x="328" y="502"/>
      <point x="326" y="502" type="qcurve"/>
      <point x="326" y="502"/>
      <point x="325" y="502" type="qcurve"/>
      <point x="315" y="503"/>
      <point x="304" y="503" type="qcurve"/>
      <point x="208" y="503"/>
      <point x="74" y="369"/>
      <point x="74" y="273" type="qcurve"/>
      <point x="74" y="178"/>
      <point x="208" y="44"/>
      <point x="304" y="44" type="qcurve"/>
      <point x="315" y="44"/>
      <point x="325" y="45" type="qcurve"/>
      <point x="326" y="45" type="line"/>
      <point x="460" y="45" type="line"/>
    </contour>
    <contour>
      <point x="326" y="743" type="qcurve"/>
      <point x="462" y="743" type="line"/>
      <point x="465" y="743"/>
      <point x="465" y="741" type="qcurve"/>
      <point x="465" y="43" type="line"/>
      <point x="465" y="40"/>
      <point x="462" y="40" type="qcurve"/>
      <point x="326" y="40" type="line"/>
      <point x="325" y="40"/>
      <point x="325" y="41" type="qcurve"/>
      <point x="315" y="40"/>
      <point x="304" y="40" type="qcurve"/>
      <point x="207" y="40"/>
      <point x="69" y="176"/>
      <point x="69" y="273" type="qcurve"/>
      <point x="69" y="371"/>
      <point x="206" y="508"/>
      <point x="304" y="508" type="qcurve"/>
      <point x="314" y="508"/>
      <point x="323" y="507" type="qcurve"/>
      <point x="323" y="741" type="line"/>
      <point x="323" y="743"/>
    </contour>
    <contour>
      <point x="304" y="367" type="qcurve"/>
      <point x="264" y="367"/>
      <point x="210" y="313"/>
      <point x="210" y="273" type="qcurve"/>
      <point x="210" y="234"/>
      <point x="264" y="180"/>
      <point x="304" y="180" type="qcurve"/>
      <point x="314" y="180"/>
      <point x="323" y="182" type="qcurve"/>
      <point x="323" y="365" type="line"/>
      <point x="314" y="367"/>
    </contour>
    <contour>
      <point x="304" y="176" type="qcurve"/>
      <point x="263" y="176"/>
      <point x="205" y="232"/>
      <point x="205" y="273" type="qcurve"/>
      <point x="205" y="315"/>
      <point x="262" y="372"/>
      <point x="304" y="372" type="qcurve"/>
      <point x="315" y="372"/>
      <point x="326" y="369" type="qcurve"/>
      <point x="328" y="369"/>
      <point x="328" y="367" type="qcurve"/>
      <point x="328" y="180" type="line"/>
      <point x="328" y="178"/>
      <point x="326" y="178" type="qcurve"/>
      <point x="315" y="176"/>
    </contour>
  </outline>
</glyph>
<glyph name="e" format="2">
  <advance width="617"/>
  <unicode hex="0065"/>
  <outline>
    <contour>
      <point x="211" y="292" type="qcurve"/>
      <point x="407" y="289" type="line"/>
      <point x="403" y="293"/>
      <point x="371" y="331"/>
      <point x="353" y="350"/>
      <point x="322" y="370"/>
      <point x="308" y="370" type="qcurve"/>
      <point x="294" y="370"/>
      <point x="264" y="351"/>
      <point x="245" y="331"/>
      <point x="215" y="297"/>
    </contour>
    <contour>
      <point x="566" y="255" type="qcurve"/>
      <point x="566" y="245"/>
      <point x="567" y="210"/>
      <point x="567" y="203" type="qcurve"/>
      <point x="216" y="200" type="line"/>
      <point x="230" y="177"/>
      <point x="279" y="149"/>
      <point x="308" y="149" type="qcurve"/>
      <point x="342" y="149"/>
      <point x="549" y="154"/>
      <point x="557" y="157" type="qcurve"/>
      <point x="557" y="1" type="line"/>
      <point x="538" y="-2"/>
      <point x="308" y="-2" type="qcurve"/>
      <point x="201" y="-2"/>
      <point x="50" y="148"/>
      <point x="50" y="362"/>
      <point x="201" y="513"/>
      <point x="415" y="513"/>
      <point x="566" y="362"/>
    </contour>
  </outline>
</glyph>
<glyph name="f" format="2">
  <advance width="512"/>
  <unicode hex="0066"/>
  <outline>
    <contour>
      <point x="379" y="721" type="qcurve"/>
      <point x="302" y="721"/>
      <point x="182" y="628"/>
      <point x="161" y="554" type="qcurve"/>
      <point x="161" y="498" type="line"/>
      <point x="161" y="496"/>
      <point x="159" y="496" type="qcurve"/>
      <point x="73" y="496" type="line"/>
      <point x="73" y="363" type="line"/>
      <point x="158" y="363" type="line"/>
      <point x="160" y="363"/>
      <point x="160" y="361" type="qcurve"/>
      <point x="158" y="37" type="line"/>
      <point x="304" y="37" type="line"/>
      <point x="304" y="361" type="line"/>
      <point x="304" y="363"/>
      <point x="306" y="363" type="qcurve"/>
      <point x="392" y="363" type="line"/>
      <point x="392" y="496" type="line"/>
      <point x="306" y="496" type="line"/>
      <point x="304" y="496"/>
      <point x="304" y="498" type="qcurve"/>
      <point x="304" y="554" type="line"/>
      <point x="304" y="554"/>
      <point x="305" y="555" type="qcurve"/>
      <point x="334" y="589"/>
      <point x="379" y="589" type="qcurve"/>
      <point x="414" y="589"/>
      <point x="441" y="568" type="qcurve"/>
      <point x="441" y="713" type="line"/>
      <point x="411" y="721"/>
    </contour>
    <contour>
      <point x="446" y="715" type="qcurve"/>
      <point x="446" y="564" type="line"/>
      <point x="446" y="561"/>
      <point x="443" y="561" type="qcurve"/>
      <point x="442" y="561"/>
      <point x="442" y="562" type="qcurve"/>
      <point x="415" y="585"/>
      <point x="379" y="585" type="qcurve"/>
      <point x="337" y="585"/>
      <point x="309" y="553" type="qcurve"/>
      <point x="309" y="500" type="line"/>
      <point x="394" y="500" type="line"/>
      <point x="396" y="500"/>
      <point x="396" y="498" type="qcurve"/>
      <point x="396" y="361" type="line"/>
      <point x="396" y="359"/>
      <point x="394" y="359" type="qcurve"/>
      <point x="309" y="359" type="line"/>
      <point x="309" y="35" type="line"/>
      <point x="309" y="33"/>
      <point x="306" y="33" type="qcurve"/>
      <point x="156" y="33" type="line"/>
      <point x="154" y="33"/>
      <point x="154" y="35" type="qcurve"/>
      <point x="156" y="359" type="line"/>
      <point x="71" y="359" type="line"/>
      <point x="68" y="359"/>
      <point x="68" y="361" type="qcurve"/>
      <point x="68" y="498" type="line"/>
      <point x="68" y="500"/>
      <point x="71" y="500" type="qcurve"/>
      <point x="156" y="500" type="line"/>
      <point x="157" y="555" type="line"/>
      <point x="178" y="630"/>
      <point x="300" y="725"/>
      <point x="379" y="725" type="qcurve"/>
      <point x="413" y="725"/>
      <point x="444" y="717" type="qcurve"/>
      <point x="446" y="716"/>
    </contour>
  </outline>
</glyph>
<glyph name="g" format="2">
  <advance width="620"/>
  <unicode hex="0067"/>
  <outline>
    <contour>
      <point x="287" y="341" type="qcurve"/>
      <point x="287" y="341"/>
      <point x="286" y="341" type="qcurve"/>
      <point x="254" y="334"/>
      <point x="213" y="283"/>
      <point x="213" y="250" type="qcurve"/>
      <point x="213" y="216"/>
      <point x="254" y="166"/>
      <point x="286" y="159" type="qcurve"/>
      <point x="287" y="159"/>
      <point x="287" y="159" type="qcurve"/>
      <point x="288" y="159"/>
      <point x="288" y="159" type="qcurve"/>
      <point x="298" y="157"/>
      <point x="309" y="157" type="qcurve"/>
      <point x="320" y="157"/>
      <point x="330" y="159" type="qcurve"/>
      <point x="331" y="159" type="line"/>
      <point x="331" y="159"/>
      <point x="332" y="159" type="qcurve"/>
      <point x="364" y="166"/>
      <point x="405" y="216"/>
      <point x="405" y="250" type="qcurve"/>
      <point x="405" y="283"/>
      <point x="364" y="334"/>
      <point x="332" y="341" type="qcurve"/>
      <point x="331" y="341"/>
      <point x="331" y="341" type="qcurve"/>
      <point x="330" y="341" type="line"/>
      <point x="320" y="343"/>
      <point x="309" y="344" type="qcurve"/>
      <point x="298" y="343"/>
      <point x="288" y="341" type="qcurve"/>
      <point x="288" y="341"/>
    </contour>
    <contour>
      <point x="407" y="41" type="qcurve"/>
      <point x="409" y="41"/>
      <point x="409" y="39" type="qcurve"/>
      <point x="409" y="0" type="line"/>
      <point x="409" y="0"/>
      <point x="409" y="-1" type="qcurve"/>
      <point x="395" y="-17"/>
      <point x="346" y="-35"/>
      <point x="323" y="-35" type="qcurve"/>
      <point x="293" y="-35"/>
      <point x="159" y="-23"/>
      <point x="140" y="-14" type="qcurve"/>
      <point x="140" y="-159" type="line"/>
      <point x="156" y="-162"/>
      <point x="293" y="-167"/>
      <point x="323" y="-167" type="qcurve"/>
      <point x="400" y="-167"/>
      <point x="517" y="-74"/>
      <point x="538" y="0" type="qcurve"/>
      <point x="541" y="244" type="line"/>
      <point x="541" y="247"/>
      <point x="541" y="250" type="qcurve"/>
      <point x="541" y="251" type="line"/>
      <point x="540" y="346"/>
      <point x="406" y="480"/>
      <point x="311" y="480" type="qcurve"/>
      <point x="307" y="480" type="line"/>
      <point x="298" y="480"/>
      <point x="291" y="479" type="qcurve"/>
      <point x="201" y="473"/>
      <point x="77" y="341"/>
      <point x="77" y="250" type="qcurve"/>
      <point x="77" y="155"/>
      <point x="176" y="27"/>
      <point x="263" y="21" type="qcurve"/>
      <point x="275" y="21"/>
      <point x="300" y="21" type="qcurve"/>
      <point x="304" y="21" type="line"/>
      <point x="306" y="21"/>
      <point x="307" y="21" type="qcurve"/>
      <point x="311" y="21" type="line"/>
      <point x="361" y="21"/>
      <point x="406" y="41" type="qcurve"/>
      <point x="407" y="41"/>
    </contour>
    <contour>
      <point x="323" y="-171" type="qcurve"/>
      <point x="290" y="-171"/>
      <point x="151" y="-167"/>
      <point x="137" y="-163" type="qcurve"/>
      <point x="136" y="-162"/>
      <point x="136" y="-161" type="qcurve"/>
      <point x="136" y="-10" type="line"/>
      <point x="136" y="-7"/>
      <point x="138" y="-7" type="qcurve"/>
      <point x="139" y="-7"/>
      <point x="139" y="-8" type="qcurve"/>
      <point x="150" y="-16"/>
      <point x="293" y="-31"/>
      <point x="323" y="-31" type="qcurve"/>
      <point x="345" y="-31"/>
      <point x="392" y="-13"/>
      <point x="405" y="1" type="qcurve"/>
      <point x="405" y="36" type="line"/>
      <point x="360" y="16"/>
      <point x="311" y="16" type="qcurve"/>
      <point x="307" y="16" type="line"/>
      <point x="306" y="16"/>
      <point x="304" y="16" type="qcurve"/>
      <point x="300" y="16" type="line"/>
      <point x="267" y="16"/>
      <point x="263" y="17" type="qcurve"/>
      <point x="174" y="23"/>
      <point x="73" y="154"/>
      <point x="73" y="250" type="qcurve"/>
      <point x="73" y="343"/>
      <point x="199" y="477"/>
      <point x="291" y="484" type="qcurve"/>
      <point x="298" y="484"/>
      <point x="307" y="484" type="qcurve"/>
      <point x="311" y="484" type="line"/>
      <point x="408" y="484"/>
      <point x="545" y="348"/>
      <point x="545" y="251" type="qcurve"/>
      <point x="545" y="250" type="line"/>
      <point x="545" y="247"/>
      <point x="545" y="244" type="qcurve"/>
      <point x="543" y="-1" type="line"/>
      <point x="543" y="-1"/>
      <point x="542" y="-1" type="qcurve"/>
      <point x="521" y="-77"/>
      <point x="402" y="-171"/>
    </contour>
    <contour>
      <point x="331" y="346" type="qcurve"/>
      <point x="365" y="339"/>
      <point x="409" y="286"/>
      <point x="409" y="250" type="qcurve"/>
      <point x="409" y="214"/>
      <point x="365" y="161"/>
      <point x="331" y="154" type="qcurve"/>
      <point x="330" y="154"/>
      <point x="329" y="154" type="qcurve"/>
      <point x="319" y="152"/>
      <point x="309" y="152" type="qcurve"/>
      <point x="298" y="152"/>
      <point x="289" y="154" type="qcurve"/>
      <point x="288" y="154"/>
      <point x="287" y="154" type="qcurve"/>
      <point x="253" y="161"/>
      <point x="209" y="214"/>
      <point x="209" y="250" type="qcurve"/>
      <point x="209" y="286"/>
      <point x="253" y="339"/>
      <point x="287" y="346" type="qcurve"/>
      <point x="288" y="346"/>
      <point x="289" y="346" type="qcurve"/>
      <point x="298" y="348"/>
      <point x="309" y="348" type="qcurve"/>
      <point x="319" y="348"/>
      <point x="329" y="346" type="qcurve"/>
      <point x="330" y="346"/>
    </contour>
  </outline>
</glyph>
<glyph name="h" format="2">
  <advance width="597"/>
  <unicode hex="0068"/>
  <outline>
    <contour>
      <point x="224" y="728" type="line"/>
      <point x="76" y="728" type="line"/>
      <point x="76" y="46" type="line"/>
      <point x="224" y="46" type="line"/>
      <point x="224" y="343" type="line"/>
      <point x="224" y="344"/>
      <point x="224" y="344" type="qcurve"/>
      <point x="254" y="377"/>
      <point x="298" y="377" type="qcurve"/>
      <point x="343" y="377"/>
      <point x="373" y="343" type="qcurve"/>
      <point x="373" y="342"/>
      <point x="373" y="341" type="qcurve"/>
      <point x="373" y="46" type="line"/>
      <point x="519" y="46" type="line"/>
      <point x="516" y="342" type="line"/>
      <point x="495" y="415"/>
      <point x="376" y="508"/>
      <point x="298" y="508" type="qcurve"/>
      <point x="261" y="508"/>
      <point x="227" y="497" type="qcurve"/>
      <point x="226" y="497"/>
      <point x="226" y="497" type="qcurve"/>
      <point x="224" y="497"/>
      <point x="224" y="500" type="qcurve"/>
    </contour>
    <contour>
      <point x="74" y="732" type="qcurve"/>
      <point x="226" y="732" type="line"/>
      <point x="228" y="732"/>
      <point x="228" y="730" type="qcurve"/>
      <point x="228" y="503" type="line"/>
      <point x="262" y="513"/>
      <point x="298" y="513" type="qcurve"/>
      <point x="377" y="513"/>
      <point x="499" y="418"/>
      <point x="521" y="343" type="qcurve"/>
      <point x="521" y="342"/>
      <point x="521" y="342" type="qcurve"/>
      <point x="523" y="44" type="line"/>
      <point x="523" y="42"/>
      <point x="521" y="42" type="qcurve"/>
      <point x="371" y="42" type="line"/>
      <point x="369" y="42"/>
      <point x="369" y="44" type="qcurve"/>
      <point x="369" y="340" type="line"/>
      <point x="340" y="372"/>
      <point x="298" y="372" type="qcurve"/>
      <point x="256" y="372"/>
      <point x="228" y="342" type="qcurve"/>
      <point x="228" y="44" type="line"/>
      <point x="228" y="42"/>
      <point x="226" y="42" type="qcurve"/>
      <point x="74" y="42" type="line"/>
      <point x="72" y="42"/>
      <point x="72" y="44" type="qcurve"/>
      <point x="72" y="730" type="line"/>
      <point x="72" y="732"/>
    </contour>
  </outline>
</glyph>
<glyph name="i" format="2">
  <advance width="252"/>
  <unicode hex="0069"/>
  <outline>
    <contour>
      <point x="192" y="497" type="line"/>
      <point x="60" y="497" type="line"/>
      <point x="60" y="39" type="line"/>
      <point x="192" y="39" type="line"/>
    </contour>
    <contour>
      <point x="58" y="502" type="qcurve"/>
      <point x="194" y="502" type="line"/>
      <point x="197" y="502"/>
      <point x="197" y="499" type="qcurve"/>
      <point x="197" y="37" type="line"/>
      <point x="197" y="34"/>
      <point x="194" y="34" type="qcurve"/>
      <point x="58" y="34" type="line"/>
      <point x="55" y="34"/>
      <point x="55" y="37" type="qcurve"/>
      <point x="55" y="499" type="line"/>
      <point x="55" y="502"/>
    </contour>
    <contour>
      <point x="192" y="731" type="line"/>
      <point x="60" y="731" type="line"/>
      <point x="60" y="608" type="line"/>
      <point x="192" y="608" type="line"/>
    </contour>
    <contour>
      <point x="58" y="736" type="qcurve"/>
      <point x="194" y="736" type="line"/>
      <point x="197" y="736"/>
      <point x="197" y="733" type="qcurve"/>
      <point x="197" y="606" type="line"/>
      <point x="197" y="603"/>
      <point x="194" y="603" type="qcurve"/>
      <point x="58" y="603" type="line"/>
      <point x="55" y="603"/>
      <point x="55" y="606" type="qcurve"/>
      <point x="55" y="733" type="line"/>
      <point x="55" y="736"/>
    </contour>
  </outline>
</glyph>
<glyph name="j" format="2">
  <advance width="419"/>
  <unicode hex="006A"/>
  <outline>
    <contour>
      <point x="129" y="-153" type="qcurve"/>
      <point x="207" y="-153"/>
      <point x="326" y="-60"/>
      <point x="347" y="13" type="qcurve"/>
      <point x="350" y="491" type="line"/>
      <point x="204" y="491" type="line"/>
      <point x="204" y="14" type="line"/>
      <point x="204" y="13"/>
      <point x="203" y="13" type="qcurve"/>
      <point x="174" y="-22"/>
      <point x="129" y="-22" type="qcurve"/>
      <point x="95" y="-22"/>
      <point x="67" y="-1" type="qcurve"/>
      <point x="67" y="-145" type="line"/>
      <point x="97" y="-153"/>
    </contour>
    <contour>
      <point x="63" y="-147" type="qcurve"/>
      <point x="63" y="4" type="line"/>
      <point x="63" y="6"/>
      <point x="65" y="6" type="qcurve"/>
      <point x="66" y="6"/>
      <point x="66" y="6" type="qcurve"/>
      <point x="94" y="-17"/>
      <point x="129" y="-17" type="qcurve"/>
      <point x="171" y="-17"/>
      <point x="199" y="15" type="qcurve"/>
      <point x="199" y="494" type="line"/>
      <point x="199" y="496"/>
      <point x="202" y="496" type="qcurve"/>
      <point x="352" y="496" type="line"/>
      <point x="354" y="496"/>
      <point x="354" y="494" type="qcurve"/>
      <point x="352" y="13" type="line"/>
      <point x="352" y="13"/>
      <point x="352" y="12" type="qcurve"/>
      <point x="330" y="-63"/>
      <point x="208" y="-157"/>
      <point x="129" y="-157" type="qcurve"/>
      <point x="96" y="-157"/>
      <point x="64" y="-149" type="qcurve"/>
      <point x="63" y="-149"/>
    </contour>
    <contour>
      <point x="347" y="721" type="line"/>
      <point x="215" y="721" type="line"/>
      <point x="215" y="598" type="line"/>
      <point x="347" y="598" type="line"/>
    </contour>
    <contour>
      <point x="213" y="725" type="qcurve"/>
      <point x="349" y="725" type="line"/>
      <point x="352" y="725"/>
      <point x="352" y="723" type="qcurve"/>
      <point x="352" y="595" type="line"/>
      <point x="352" y="593"/>
      <point x="349" y="593" type="qcurve"/>
      <point x="213" y="593" type="line"/>
      <point x="210" y="593"/>
      <point x="210" y="595" type="qcurve"/>
      <point x="210" y="723" type="line"/>
      <point x="210" y="725"/>
    </contour>
  </outline>
</glyph>
<glyph name="k" format="2">
  <advance width="753"/>
  <unicode hex="006B"/>
  <outline>
    <contour>
      <point x="215" y="712" type="line"/>
      <point x="93" y="712" type="line"/>
      <point x="93" y="38" type="line"/>
      <point x="215" y="38" type="line"/>
      <point x="215" y="176" type="line"/>
      <point x="215" y="177"/>
      <point x="216" y="177" type="qcurve"/>
      <point x="267" y="242" type="line"/>
      <point x="268" y="243"/>
      <point x="270" y="243"/>
      <point x="270" y="242" type="qcurve"/>
      <point x="453" y="38" type="line"/>
      <point x="614" y="37" type="line"/>
      <point x="375" y="292" type="line"/>
      <point x="374" y="292"/>
      <point x="374" y="294"/>
      <point x="375" y="295" type="qcurve"/>
      <point x="606" y="496" type="line"/>
      <point x="439" y="498" type="line"/>
      <point x="219" y="321" type="line"/>
      <point x="218" y="320"/>
      <point x="217" y="320" type="qcurve"/>
      <point x="215" y="320"/>
      <point x="215" y="323" type="qcurve"/>
    </contour>
    <contour>
      <point x="90" y="716" type="qcurve"/>
      <point x="217" y="716" type="line"/>
      <point x="220" y="716"/>
      <point x="220" y="714" type="qcurve"/>
      <point x="220" y="327" type="line"/>
      <point x="436" y="502" type="line"/>
      <point x="437" y="502"/>
      <point x="438" y="502" type="qcurve"/>
      <point x="612" y="500" type="line"/>
      <point x="614" y="500"/>
      <point x="614" y="498" type="qcurve"/>
      <point x="614" y="497"/>
      <point x="613" y="497" type="qcurve"/>
      <point x="380" y="293" type="line"/>
      <point x="621" y="36" type="line"/>
      <point x="622" y="36"/>
      <point x="622" y="35" type="qcurve"/>
      <point x="622" y="32"/>
      <point x="620" y="32" type="qcurve"/>
      <point x="452" y="33" type="line"/>
      <point x="451" y="33"/>
      <point x="451" y="34" type="qcurve"/>
      <point x="269" y="237" type="line"/>
      <point x="220" y="175" type="line"/>
      <point x="220" y="36" type="line"/>
      <point x="220" y="33"/>
      <point x="217" y="33" type="qcurve"/>
      <point x="90" y="33" type="line"/>
      <point x="88" y="33"/>
      <point x="88" y="36" type="qcurve"/>
      <point x="88" y="714" type="line"/>
      <point x="88" y="716"/>
    </contour>
  </outline>
</glyph>
<glyph name="l" format="2">
  <advance width="419"/>
  <unicode hex="006C"/>
  <outline>
    <contour>
      <point x="288" y="37" type="qcurve"/>
      <point x="320" y="37"/>
      <point x="350" y="45" type="qcurve"/>
      <point x="350" y="190" type="line"/>
      <point x="323" y="169"/>
      <point x="288" y="169" type="qcurve"/>
      <point x="243" y="169"/>
      <point x="214" y="203" type="qcurve"/>
      <point x="213" y="204"/>
      <point x="213" y="204" type="qcurve"/>
      <point x="213" y="721" type="line"/>
      <point x="67" y="721" type="line"/>
      <point x="70" y="204" type="line"/>
      <point x="91" y="130"/>
      <point x="211" y="37"/>
    </contour>
    <contour>
      <point x="288" y="33" type="qcurve"/>
      <point x="209" y="33"/>
      <point x="87" y="127"/>
      <point x="65" y="203" type="qcurve"/>
      <point x="63" y="723" type="line"/>
      <point x="63" y="725"/>
      <point x="65" y="725" type="qcurve"/>
      <point x="215" y="725" type="line"/>
      <point x="217" y="725"/>
      <point x="217" y="723" type="qcurve"/>
      <point x="217" y="205" type="line"/>
      <point x="245" y="173"/>
      <point x="288" y="173" type="qcurve"/>
      <point x="323" y="173"/>
      <point x="351" y="196" type="qcurve"/>
      <point x="351" y="197"/>
      <point x="352" y="197" type="qcurve"/>
      <point x="354" y="197"/>
      <point x="354" y="194" type="qcurve"/>
      <point x="354" y="43" type="line"/>
      <point x="354" y="42"/>
      <point x="353" y="41" type="qcurve"/>
      <point x="322" y="33"/>
    </contour>
  </outline>
</glyph>
<glyph name="m" format="2">
  <advance width="924"/>
  <unicode hex="006D"/>
  <outline>
    <contour>
      <point x="240" y="494" type="line"/>
      <point x="92" y="494" type="line"/>
      <point x="92" y="34" type="line"/>
      <point x="240" y="34" type="line"/>
      <point x="240" y="331" type="line"/>
      <point x="240" y="332"/>
      <point x="241" y="332" type="qcurve"/>
      <point x="270" y="364"/>
      <point x="314" y="364" type="qcurve"/>
      <point x="359" y="364"/>
      <point x="389" y="330" type="qcurve"/>
      <point x="389" y="330"/>
      <point x="389" y="329" type="qcurve"/>
      <point x="389" y="317" type="line"/>
      <point x="387" y="34" type="line"/>
      <point x="535" y="34" type="line"/>
      <point x="534" y="131" type="line"/>
      <point x="534" y="331" type="line"/>
      <point x="534" y="332"/>
      <point x="535" y="332" type="qcurve"/>
      <point x="564" y="364"/>
      <point x="609" y="364" type="qcurve"/>
      <point x="654" y="364"/>
      <point x="683" y="330" type="qcurve"/>
      <point x="684" y="330"/>
      <point x="684" y="329" type="qcurve"/>
      <point x="684" y="34" type="line"/>
      <point x="830" y="34" type="line"/>
      <point x="827" y="329" type="line"/>
      <point x="806" y="403"/>
      <point x="686" y="496"/>
      <point x="609" y="496" type="qcurve"/>
      <point x="572" y="496"/>
      <point x="537" y="485" type="qcurve"/>
      <point x="459" y="446" type="line"/>
      <point x="458" y="445"/>
      <point x="458" y="445" type="qcurve"/>
      <point x="457" y="445"/>
      <point x="456" y="446" type="qcurve"/>
      <point x="395" y="496"/>
      <point x="314" y="496" type="qcurve"/>
      <point x="278" y="496"/>
      <point x="243" y="485" type="qcurve"/>
      <point x="243" y="485"/>
      <point x="242" y="485" type="qcurve"/>
      <point x="240" y="485"/>
      <point x="240" y="487" type="qcurve"/>
    </contour>
    <contour>
      <point x="90" y="499" type="qcurve"/>
      <point x="242" y="499" type="line"/>
      <point x="245" y="499"/>
      <point x="245" y="496" type="qcurve"/>
      <point x="245" y="490" type="line"/>
      <point x="279" y="500"/>
      <point x="314" y="500" type="qcurve"/>
      <point x="396" y="500"/>
      <point x="458" y="450" type="qcurve"/>
      <point x="536" y="489" type="line"/>
      <point x="571" y="500"/>
      <point x="609" y="500" type="qcurve"/>
      <point x="688" y="500"/>
      <point x="810" y="406"/>
      <point x="831" y="330" type="qcurve"/>
      <point x="831" y="330"/>
      <point x="834" y="32" type="qcurve"/>
      <point x="834" y="30"/>
      <point x="832" y="30" type="qcurve"/>
      <point x="681" y="30" type="line"/>
      <point x="679" y="30"/>
      <point x="679" y="32" type="qcurve"/>
      <point x="679" y="328" type="line"/>
      <point x="651" y="360"/>
      <point x="609" y="360" type="qcurve"/>
      <point x="567" y="360"/>
      <point x="539" y="330" type="qcurve"/>
      <point x="539" y="131" type="line"/>
      <point x="540" y="32" type="line"/>
      <point x="540" y="30"/>
      <point x="537" y="30" type="qcurve"/>
      <point x="385" y="30" type="line"/>
      <point x="382" y="30"/>
      <point x="382" y="32" type="qcurve"/>
      <point x="385" y="317" type="line"/>
      <point x="385" y="328" type="line"/>
      <point x="357" y="360"/>
      <point x="314" y="360" type="qcurve"/>
      <point x="272" y="360"/>
      <point x="245" y="330" type="qcurve"/>
      <point x="245" y="32" type="line"/>
      <point x="245" y="30"/>
      <point x="242" y="30" type="qcurve"/>
      <point x="90" y="30" type="line"/>
      <point x="88" y="30"/>
      <point x="88" y="32" type="qcurve"/>
      <point x="88" y="496" type="line"/>
      <point x="88" y="499"/>
    </contour>
  </outline>
</glyph>
<glyph name="n" format="2">
  <advance width="597"/>
  <unicode hex="006E"/>
  <outline>
    <contour>
      <point x="224" y="494" type="line"/>
      <point x="76" y="494" type="line"/>
      <point x="76" y="34" type="line"/>
      <point x="224" y="34" type="line"/>
      <point x="224" y="331" type="line"/>
      <point x="224" y="332"/>
      <point x="224" y="332" type="qcurve"/>
      <point x="254" y="364"/>
      <point x="298" y="364" type="qcurve"/>
      <point x="343" y="364"/>
      <point x="373" y="330" type="qcurve"/>
      <point x="373" y="330"/>
      <point x="373" y="329" type="qcurve"/>
      <point x="373" y="34" type="line"/>
      <point x="519" y="34" type="line"/>
      <point x="516" y="329" type="line"/>
      <point x="495" y="403"/>
      <point x="376" y="496"/>
      <point x="298" y="496" type="qcurve"/>
      <point x="261" y="496"/>
      <point x="227" y="485" type="qcurve"/>
      <point x="226" y="485"/>
      <point x="226" y="485" type="qcurve"/>
      <point x="224" y="485"/>
      <point x="224" y="487" type="qcurve"/>
    </contour>
    <contour>
      <point x="74" y="499" type="qcurve"/>
      <point x="226" y="499" type="line"/>
      <point x="228" y="499"/>
      <point x="228" y="496" type="qcurve"/>
      <point x="228" y="490" type="line"/>
      <point x="262" y="500"/>
      <point x="298" y="500" type="qcurve"/>
      <point x="377" y="500"/>
      <point x="499" y="406"/>
      <point x="521" y="330" type="qcurve"/>
      <point x="523" y="32" type="line"/>
      <point x="523" y="30"/>
      <point x="521" y="30" type="qcurve"/>
      <point x="371" y="30" type="line"/>
      <point x="369" y="30"/>
      <point x="369" y="32" type="qcurve"/>
      <point x="369" y="328" type="line"/>
      <point x="340" y="360"/>
      <point x="298" y="360" type="qcurve"/>
      <point x="256" y="360"/>
      <point x="228" y="330" type="qcurve"/>
      <point x="228" y="32" type="line"/>
      <point x="228" y="30"/>
      <point x="226" y="30" type="qcurve"/>
      <point x="74" y="30" type="line"/>
      <point x="72" y="30"/>
      <point x="72" y="32" type="qcurve"/>
      <point x="72" y="496" type="line"/>
      <point x="72" y="499"/>
    </contour>
  </outline>
</glyph>
<glyph name="o" format="2">
  <advance width="616"/>
  <unicode hex="006F"/>
  <outline>
    <contour>
      <point x="541" y="260" type="qcurve"/>
      <point x="541" y="356"/>
      <point x="406" y="490"/>
      <point x="311" y="490" type="qcurve"/>
      <point x="307" y="490" type="line"/>
      <point x="298" y="490"/>
      <point x="291" y="489" type="qcurve"/>
      <point x="201" y="483"/>
      <point x="77" y="351"/>
      <point x="77" y="260" type="qcurve"/>
      <point x="77" y="169"/>
      <point x="201" y="38"/>
      <point x="291" y="32" type="qcurve"/>
      <point x="298" y="31"/>
      <point x="307" y="31" type="qcurve"/>
      <point x="311" y="31" type="line"/>
      <point x="406" y="31"/>
      <point x="541" y="165"/>
    </contour>
    <contour>
      <point x="73" y="260" type="qcurve"/>
      <point x="73" y="353"/>
      <point x="199" y="488"/>
      <point x="291" y="494" type="qcurve"/>
      <point x="298" y="494"/>
      <point x="307" y="494" type="qcurve"/>
      <point x="311" y="494" type="line"/>
      <point x="408" y="494"/>
      <point x="545" y="358"/>
      <point x="545" y="260" type="qcurve"/>
      <point x="545" y="163"/>
      <point x="408" y="26"/>
      <point x="311" y="26" type="qcurve"/>
      <point x="307" y="26" type="line"/>
      <point x="298" y="26"/>
      <point x="291" y="27" type="qcurve"/>
      <point x="199" y="33"/>
      <point x="73" y="168"/>
    </contour>
    <contour>
      <point x="287" y="351" type="qcurve"/>
      <point x="287" y="351"/>
      <point x="286" y="352" type="qcurve"/>
      <point x="254" y="345"/>
      <point x="213" y="294"/>
      <point x="213" y="260" type="qcurve"/>
      <point x="213" y="227"/>
      <point x="254" y="176"/>
      <point x="286" y="169" type="qcurve"/>
      <point x="287" y="170"/>
      <point x="287" y="170" type="qcurve"/>
      <point x="288" y="170"/>
      <point x="288" y="170" type="qcurve"/>
      <point x="298" y="167"/>
      <point x="309" y="167" type="qcurve"/>
      <point x="320" y="167"/>
      <point x="330" y="170" type="qcurve"/>
      <point x="331" y="170" type="line"/>
      <point x="331" y="170"/>
      <point x="332" y="169" type="qcurve"/>
      <point x="364" y="176"/>
      <point x="405" y="227"/>
      <point x="405" y="260" type="qcurve"/>
      <point x="405" y="294"/>
      <point x="364" y="345"/>
      <point x="332" y="352" type="qcurve"/>
      <point x="331" y="351"/>
      <point x="331" y="351" type="qcurve"/>
      <point x="330" y="351" type="line"/>
      <point x="320" y="354"/>
      <point x="309" y="354" type="qcurve"/>
      <point x="298" y="354"/>
      <point x="288" y="351" type="qcurve"/>
      <point x="288" y="351"/>
    </contour>
    <contour>
      <point x="331" y="357" type="qcurve"/>
      <point x="365" y="350"/>
      <point x="409" y="296"/>
      <point x="409" y="260" type="qcurve"/>
      <point x="409" y="225"/>
      <point x="365" y="171"/>
      <point x="331" y="164" type="qcurve"/>
      <point x="330" y="164"/>
      <point x="329" y="165" type="qcurve"/>
      <point x="319" y="163"/>
      <point x="309" y="162" type="qcurve"/>
      <point x="298" y="163"/>
      <point x="289" y="165" type="qcurve"/>
      <point x="288" y="164"/>
      <point x="287" y="164" type="qcurve"/>
      <point x="253" y="171"/>
      <point x="209" y="225"/>
      <point x="209" y="260" type="qcurve"/>
      <point x="209" y="296"/>
      <point x="253" y="350"/>
      <point x="287" y="357" type="qcurve"/>
      <point x="288" y="357"/>
      <point x="289" y="356" type="qcurve"/>
      <point x="298" y="358"/>
      <point x="309" y="359" type="qcurve"/>
      <point x="319" y="358"/>
      <point x="329" y="356" type="qcurve"/>
      <point x="330" y="357"/>
    </contour>
  </outline>
</glyph>
<glyph name="p" format="2">
  <advance width="512"/>
  <unicode hex="0070"/>
  <outline>
    <contour>
      <point x="74" y="-164" type="line"/>
      <point x="206" y="-164" type="line"/>
      <point x="206" y="12" type="line"/>
      <point x="206" y="14"/>
      <point x="208" y="14" type="qcurve"/>
      <point x="209" y="14"/>
      <point x="209" y="14" type="qcurve"/>
      <point x="216" y="13"/>
      <point x="230" y="13" type="qcurve"/>
      <point x="326" y="13"/>
      <point x="460" y="148"/>
      <point x="460" y="243" type="qcurve"/>
      <point x="460" y="338"/>
      <point x="326" y="472"/>
      <point x="230" y="472" type="qcurve"/>
      <point x="216" y="472"/>
      <point x="209" y="471" type="qcurve"/>
      <point x="209" y="471"/>
      <point x="208" y="471" type="qcurve"/>
      <point x="74" y="471" type="line"/>
    </contour>
    <contour>
      <point x="208" y="-169" type="qcurve"/>
      <point x="72" y="-169" type="line"/>
      <point x="69" y="-169"/>
      <point x="69" y="-166" type="qcurve"/>
      <point x="69" y="474" type="line"/>
      <point x="69" y="476"/>
      <point x="72" y="476" type="qcurve"/>
      <point x="208" y="476" type="line"/>
      <point x="216" y="477"/>
      <point x="230" y="477" type="qcurve"/>
      <point x="327" y="477"/>
      <point x="465" y="340"/>
      <point x="465" y="243" type="qcurve"/>
      <point x="465" y="146"/>
      <point x="328" y="9"/>
      <point x="230" y="9" type="qcurve"/>
      <point x="227" y="9"/>
      <point x="214" y="9"/>
      <point x="211" y="9" type="qcurve"/>
      <point x="211" y="-166" type="line"/>
      <point x="211" y="-169"/>
    </contour>
    <contour>
      <point x="230" y="149" type="qcurve"/>
      <point x="270" y="149"/>
      <point x="324" y="204"/>
      <point x="324" y="243" type="qcurve"/>
      <point x="324" y="282"/>
      <point x="270" y="336"/>
      <point x="230" y="336" type="qcurve"/>
      <point x="220" y="336"/>
      <point x="211" y="334" type="qcurve"/>
      <point x="211" y="151" type="line"/>
      <point x="220" y="149"/>
    </contour>
    <contour>
      <point x="230" y="341" type="qcurve"/>
      <point x="271" y="341"/>
      <point x="329" y="284"/>
      <point x="329" y="243" type="qcurve"/>
      <point x="329" y="202"/>
      <point x="272" y="145"/>
      <point x="230" y="145" type="qcurve"/>
      <point x="219" y="145"/>
      <point x="208" y="147" type="qcurve"/>
      <point x="206" y="148"/>
      <point x="206" y="150" type="qcurve"/>
      <point x="206" y="336" type="line"/>
      <point x="206" y="338"/>
      <point x="208" y="338" type="qcurve"/>
      <point x="219" y="341"/>
    </contour>
  </outline>
</glyph>
<glyph name="q" format="2">
  <advance width="512"/>
  <unicode hex="0071"/>
  <outline>
    <contour>
      <point x="460" y="471" type="line"/>
      <point x="326" y="471" type="line"/>
      <point x="325" y="471"/>
      <point x="325" y="471" type="qcurve"/>
      <point x="318" y="472"/>
      <point x="304" y="472" type="qcurve"/>
      <point x="208" y="472"/>
      <point x="74" y="338"/>
      <point x="74" y="243" type="qcurve"/>
      <point x="74" y="148"/>
      <point x="208" y="13"/>
      <point x="304" y="13" type="qcurve"/>
      <point x="318" y="13"/>
      <point x="325" y="14" type="qcurve"/>
      <point x="325" y="14"/>
      <point x="326" y="14" type="qcurve"/>
      <point x="328" y="14"/>
      <point x="328" y="12" type="qcurve"/>
      <point x="328" y="-164" type="line"/>
      <point x="460" y="-164" type="line"/>
    </contour>
    <contour>
      <point x="304" y="336" type="qcurve"/>
      <point x="264" y="336"/>
      <point x="210" y="282"/>
      <point x="210" y="243" type="qcurve"/>
      <point x="210" y="204"/>
      <point x="264" y="149"/>
      <point x="304" y="149" type="qcurve"/>
      <point x="314" y="149"/>
      <point x="323" y="151" type="qcurve"/>
      <point x="323" y="334" type="line"/>
      <point x="314" y="336"/>
    </contour>
    <contour>
      <point x="328" y="336" type="qcurve"/>
      <point x="328" y="150" type="line"/>
      <point x="328" y="148"/>
      <point x="326" y="147" type="qcurve"/>
      <point x="315" y="145"/>
      <point x="304" y="145" type="qcurve"/>
      <point x="262" y="145"/>
      <point x="205" y="202"/>
      <point x="205" y="243" type="qcurve"/>
      <point x="205" y="284"/>
      <point x="263" y="341"/>
      <point x="304" y="341" type="qcurve"/>
      <point x="315" y="341"/>
      <point x="326" y="338" type="qcurve"/>
      <point x="328" y="338"/>
    </contour>
    <contour>
      <point x="326" y="476" type="qcurve"/>
      <point x="462" y="476" type="line"/>
      <point x="465" y="476"/>
      <point x="465" y="474" type="qcurve"/>
      <point x="465" y="-166" type="line"/>
      <point x="465" y="-169"/>
      <point x="462" y="-169" type="qcurve"/>
      <point x="326" y="-169" type="line"/>
      <point x="323" y="-169"/>
      <point x="323" y="-166" type="qcurve"/>
      <point x="323" y="9" type="line"/>
      <point x="317" y="9"/>
      <point x="305" y="9" type="qcurve"/>
      <point x="304" y="9" type="line"/>
      <point x="206" y="9"/>
      <point x="69" y="146"/>
      <point x="69" y="243" type="qcurve"/>
      <point x="69" y="340"/>
      <point x="207" y="477"/>
      <point x="304" y="477" type="qcurve"/>
      <point x="307" y="477"/>
      <point x="322" y="476"/>
    </contour>
  </outline>
</glyph>
<glyph name="r" format="2">
  <advance width="587"/>
  <unicode hex="0072"/>
  <outline>
    <contour>
      <point x="224" y="494" type="line"/>
      <point x="77" y="494" type="line"/>
      <point x="77" y="34" type="line"/>
      <point x="224" y="34" type="line"/>
      <point x="224" y="331" type="line"/>
      <point x="224" y="332"/>
      <point x="225" y="332" type="qcurve"/>
      <point x="254" y="364"/>
      <point x="298" y="364" type="qcurve"/>
      <point x="337" y="364"/>
      <point x="364" y="339" type="qcurve"/>
      <point x="509" y="339" type="line"/>
      <point x="483" y="407"/>
      <point x="369" y="496"/>
      <point x="298" y="496" type="qcurve"/>
      <point x="262" y="496"/>
      <point x="227" y="485" type="qcurve"/>
      <point x="227" y="485"/>
      <point x="226" y="485" type="qcurve"/>
      <point x="224" y="485"/>
      <point x="224" y="487" type="qcurve"/>
    </contour>
    <contour>
      <point x="74" y="499" type="qcurve"/>
      <point x="226" y="499" type="line"/>
      <point x="229" y="499"/>
      <point x="229" y="496" type="qcurve"/>
      <point x="229" y="490" type="line"/>
      <point x="263" y="500"/>
      <point x="298" y="500" type="qcurve"/>
      <point x="371" y="500"/>
      <point x="488" y="407"/>
      <point x="515" y="338" type="qcurve"/>
      <point x="515" y="337"/>
      <point x="515" y="337" type="qcurve"/>
      <point x="515" y="335"/>
      <point x="513" y="335" type="qcurve"/>
      <point x="366" y="335" type="line"/>
      <point x="365" y="334"/>
      <point x="363" y="334"/>
      <point x="363" y="335" type="qcurve"/>
      <point x="336" y="360"/>
      <point x="298" y="360" type="qcurve"/>
      <point x="257" y="360"/>
      <point x="229" y="330" type="qcurve"/>
      <point x="229" y="32" type="line"/>
      <point x="229" y="30"/>
      <point x="226" y="30" type="qcurve"/>
      <point x="74" y="30" type="line"/>
      <point x="72" y="30"/>
      <point x="72" y="32" type="qcurve"/>
      <point x="72" y="496" type="line"/>
      <point x="72" y="499"/>
    </contour>
  </outline>
</glyph>
<glyph name="s" format="2">
  <advance width="508"/>
  <unicode hex="0073"/>
  <outline>
    <contour>
      <point x="69.3916" y="42" type="qcurve"/>
      <point x="136.392" y="154" type="line"/>
      <point x="143.392" y="147"/>
      <point x="158.392" y="142" type="qcurve"/>
      <point x="198.392" y="125"/>
      <point x="261.392" y="133"/>
      <point x="281.392" y="157" type="qcurve"/>
      <point x="304.392" y="184"/>
      <point x="259.392" y="196" type="qcurve"/>
      <point x="247.392" y="199"/>
      <point x="205.392" y="206" type="qcurve"/>
      <point x="139.392" y="232"/>
      <point x="59.3916" y="301"/>
      <point x="43.3916" y="385"/>
      <point x="81.3916" y="429" type="qcurve"/>
      <point x="128.392" y="486"/>
      <point x="328.392" y="509"/>
      <point x="424.392" y="468" type="qcurve"/>
      <point x="442.392" y="460"/>
      <point x="446.392" y="457" type="qcurve"/>
      <point x="379.392" y="327" type="line"/>
      <point x="365.392" y="336"/>
      <point x="357.392" y="339" type="qcurve"/>
      <point x="316.392" y="355"/>
      <point x="276.392" y="347"/>
      <point x="256.392" y="323" type="qcurve"/>
      <point x="231.392" y="297"/>
      <point x="240.392" y="278"/>
      <point x="287.392" y="270" type="qcurve"/>
      <point x="326.392" y="253"/>
      <point x="384.392" y="224"/>
      <point x="437.392" y="184"/>
      <point x="460.392" y="145"/>
      <point x="455.392" y="96"/>
      <point x="433.392" y="70" type="qcurve"/>
      <point x="386.392" y="13"/>
      <point x="186.392" y="-12"/>
      <point x="91.3916" y="29" type="qcurve"/>
      <point x="83.3916" y="31"/>
    </contour>
  </outline>
</glyph>
<glyph name="t" format="2">
  <advance width="514"/>
  <unicode hex="0074"/>
  <outline>
    <contour>
      <point x="379" y="37" type="qcurve"/>
      <point x="411" y="37"/>
      <point x="441" y="45" type="qcurve"/>
      <point x="441" y="190" type="line"/>
      <point x="414" y="169"/>
      <point x="379" y="169" type="qcurve"/>
      <point x="334" y="169"/>
      <point x="305" y="203" type="qcurve"/>
      <point x="304" y="204"/>
      <point x="304" y="204" type="qcurve"/>
      <point x="304" y="366" type="line"/>
      <point x="304" y="368"/>
      <point x="306" y="368" type="qcurve"/>
      <point x="392" y="368" type="line"/>
      <point x="392" y="500" type="line"/>
      <point x="306" y="500" type="line"/>
      <point x="304" y="500"/>
      <point x="304" y="502" type="qcurve"/>
      <point x="304" y="721" type="line"/>
      <point x="158" y="721" type="line"/>
      <point x="160" y="502" type="line"/>
      <point x="160" y="500"/>
      <point x="157" y="500" type="qcurve"/>
      <point x="73" y="500" type="line"/>
      <point x="73" y="368" type="line"/>
      <point x="158" y="368" type="line"/>
      <point x="160" y="368"/>
      <point x="160" y="366" type="qcurve"/>
      <point x="161" y="204" type="line"/>
      <point x="182" y="130"/>
      <point x="302" y="37"/>
    </contour>
    <contour>
      <point x="379" y="33" type="qcurve"/>
      <point x="300" y="33"/>
      <point x="178" y="128"/>
      <point x="157" y="203" type="qcurve"/>
      <point x="156" y="363" type="line"/>
      <point x="71" y="363" type="line"/>
      <point x="68" y="363"/>
      <point x="68" y="366" type="qcurve"/>
      <point x="68" y="502" type="line"/>
      <point x="68" y="505"/>
      <point x="71" y="505" type="qcurve"/>
      <point x="155" y="505" type="line"/>
      <point x="154" y="723" type="line"/>
      <point x="154" y="725"/>
      <point x="156" y="725" type="qcurve"/>
      <point x="306" y="725" type="line"/>
      <point x="309" y="725"/>
      <point x="309" y="723" type="qcurve"/>
      <point x="309" y="505" type="line"/>
      <point x="394" y="505" type="line"/>
      <point x="396" y="505"/>
      <point x="396" y="502" type="qcurve"/>
      <point x="396" y="366" type="line"/>
      <point x="396" y="363"/>
      <point x="394" y="363" type="qcurve"/>
      <point x="309" y="363" type="line"/>
      <point x="309" y="205" type="line"/>
      <point x="337" y="173"/>
      <point x="379" y="173" type="qcurve"/>
      <point x="415" y="173"/>
      <point x="442" y="196" type="qcurve"/>
      <point x="442" y="197"/>
      <point x="443" y="197" type="qcurve"/>
      <point x="446" y="197"/>
      <point x="446" y="194" type="qcurve"/>
      <point x="446" y="43" type="line"/>
      <point x="446" y="42"/>
      <point x="444" y="41" type="qcurve"/>
      <point x="413" y="33"/>
    </contour>
  </outline>
</glyph>
<glyph name="u" format="2">
  <advance width="598"/>
  <unicode hex="0075"/>
  <outline>
    <contour>
      <point x="372" y="30" type="line"/>
      <point x="520" y="30" type="line"/>
      <point x="520" y="490" type="line"/>
      <point x="372" y="490" type="line"/>
      <point x="372" y="193" type="line"/>
      <point x="372" y="192"/>
      <point x="372" y="192" type="qcurve"/>
      <point x="342" y="160"/>
      <point x="298" y="160" type="qcurve"/>
      <point x="253" y="160"/>
      <point x="223" y="194" type="qcurve"/>
      <point x="223" y="194"/>
      <point x="223" y="195" type="qcurve"/>
      <point x="223" y="490" type="line"/>
      <point x="77" y="490" type="line"/>
      <point x="80" y="195" type="line"/>
      <point x="101" y="121"/>
      <point x="220" y="28"/>
      <point x="298" y="28" type="qcurve"/>
      <point x="335" y="28"/>
      <point x="369" y="39" type="qcurve"/>
      <point x="370" y="39"/>
      <point x="370" y="39" type="qcurve"/>
      <point x="372" y="39"/>
      <point x="372" y="37" type="qcurve"/>
    </contour>
    <contour>
      <point x="522" y="25" type="qcurve"/>
      <point x="370" y="25" type="line"/>
      <point x="368" y="25"/>
      <point x="368" y="28" type="qcurve"/>
      <point x="368" y="34" type="line"/>
      <point x="334" y="24"/>
      <point x="298" y="24" type="qcurve"/>
      <point x="219" y="24"/>
      <point x="97" y="118"/>
      <point x="75" y="194" type="qcurve"/>
      <point x="73" y="492" type="line"/>
      <point x="73" y="494"/>
      <point x="75" y="494" type="qcurve"/>
      <point x="225" y="494" type="line"/>
      <point x="227" y="494"/>
      <point x="227" y="492" type="qcurve"/>
      <point x="227" y="196" type="line"/>
      <point x="256" y="164"/>
      <point x="298" y="164" type="qcurve"/>
      <point x="340" y="164"/>
      <point x="368" y="194" type="qcurve"/>
      <point x="368" y="492" type="line"/>
      <point x="368" y="494"/>
      <point x="370" y="494" type="qcurve"/>
      <point x="522" y="494" type="line"/>
      <point x="524" y="494"/>
      <point x="524" y="492" type="qcurve"/>
      <point x="524" y="28" type="line"/>
      <point x="524" y="25"/>
    </contour>
  </outline>
</glyph>
<glyph name="v" format="2">
  <advance width="652"/>
  <unicode hex="0076"/>
  <outline>
    <contour>
      <point x="328" y="153"/>
      <point x="324" y="153"/>
      <point x="324" y="154" type="qcurve"/>
      <point x="213" y="483" type="line"/>
      <point x="81" y="483" type="line"/>
      <point x="259" y="28" type="line"/>
      <point x="393" y="28" type="line"/>
      <point x="571" y="483" type="line"/>
      <point x="439" y="483" type="line"/>
      <point x="328" y="154" type="line"/>
    </contour>
    <contour>
      <point x="78" y="488" type="qcurve"/>
      <point x="214" y="488" type="line"/>
      <point x="216" y="488"/>
      <point x="217" y="486" type="qcurve"/>
      <point x="326" y="162" type="line"/>
      <point x="435" y="486" type="line"/>
      <point x="436" y="488"/>
      <point x="438" y="488" type="qcurve"/>
      <point x="574" y="488" type="line"/>
      <point x="577" y="488"/>
      <point x="577" y="485" type="qcurve"/>
      <point x="577" y="485"/>
      <point x="576" y="485" type="qcurve"/>
      <point x="396" y="25" type="line"/>
      <point x="396" y="23"/>
      <point x="394" y="23" type="qcurve"/>
      <point x="258" y="23" type="line"/>
      <point x="256" y="23"/>
      <point x="256" y="25" type="qcurve"/>
      <point x="76" y="485" type="line"/>
      <point x="75" y="485"/>
      <point x="75" y="485" type="qcurve"/>
      <point x="75" y="488"/>
    </contour>
  </outline>
</glyph>
<glyph name="w" format="2">
  <advance width="1044"/>
  <unicode hex="0077"/>
  <outline>
    <contour>
      <point x="343" y="153"/>
      <point x="339" y="153"/>
      <point x="339" y="154" type="qcurve"/>
      <point x="228" y="483" type="line"/>
      <point x="99" y="483" type="line"/>
      <point x="278" y="28" type="line"/>
      <point x="408" y="28" type="line"/>
      <point x="519" y="312" type="line"/>
      <point x="519" y="313"/>
      <point x="523" y="313"/>
      <point x="523" y="312" type="qcurve"/>
      <point x="634" y="28" type="line"/>
      <point x="764" y="28" type="line"/>
      <point x="943" y="483" type="line"/>
      <point x="811" y="483" type="line"/>
      <point x="700" y="154" type="line"/>
      <point x="699" y="153"/>
      <point x="696" y="153"/>
      <point x="695" y="154" type="qcurve"/>
      <point x="588" y="483" type="line"/>
      <point x="454" y="483" type="line"/>
      <point x="343" y="154" type="line"/>
    </contour>
    <contour>
      <point x="453" y="488" type="qcurve"/>
      <point x="589" y="488" type="line"/>
      <point x="591" y="488"/>
      <point x="592" y="486" type="qcurve"/>
      <point x="697" y="162" type="line"/>
      <point x="807" y="486" type="line"/>
      <point x="807" y="488"/>
      <point x="809" y="488" type="qcurve"/>
      <point x="946" y="488" type="line"/>
      <point x="948" y="488"/>
      <point x="948" y="485" type="qcurve"/>
      <point x="768" y="25" type="line"/>
      <point x="767" y="23"/>
      <point x="766" y="23" type="qcurve"/>
      <point x="633" y="23" type="line"/>
      <point x="631" y="23"/>
      <point x="631" y="25" type="qcurve"/>
      <point x="521" y="305" type="line"/>
      <point x="411" y="25" type="line"/>
      <point x="411" y="23"/>
      <point x="409" y="23" type="qcurve"/>
      <point x="276" y="23" type="line"/>
      <point x="275" y="23"/>
      <point x="274" y="25" type="qcurve"/>
      <point x="94" y="485" type="line"/>
      <point x="94" y="488"/>
      <point x="96" y="488" type="qcurve"/>
      <point x="229" y="488" type="line"/>
      <point x="231" y="488"/>
      <point x="232" y="486" type="qcurve"/>
      <point x="341" y="162" type="line"/>
      <point x="450" y="486" type="line"/>
      <point x="451" y="488"/>
    </contour>
  </outline>
</glyph>
<glyph name="x" format="2">
  <advance width="724"/>
  <unicode hex="0078"/>
  <outline>
    <contour>
      <point x="0" y="508" type="line"/>
      <point x="186" y="506" type="line"/>
      <point x="315" y="355" type="line"/>
      <point x="448" y="507" type="line"/>
      <point x="623" y="506" type="line"/>
      <point x="403" y="253" type="line"/>
      <point x="624" y="-5" type="line"/>
      <point x="449" y="-7" type="line"/>
      <point x="312" y="150" type="line"/>
      <point x="179" y="-3" type="line"/>
      <point x="1" y="-6" type="line"/>
      <point x="224" y="251" type="line"/>
    </contour>
  </outline>
</glyph>
<glyph name="y" format="2">
  <advance width="652"/>
  <unicode hex="0079"/>
  <outline>
    <contour>
      <point x="346" y="143"/>
      <point x="343" y="143"/>
      <point x="343" y="144" type="qcurve"/>
      <point x="232" y="473" type="line"/>
      <point x="83" y="473" type="line"/>
      <point x="285" y="17" type="line"/>
      <point x="286" y="17"/>
      <point x="286" y="16" type="qcurve"/>
      <point x="286" y="15"/>
      <point x="286" y="15" type="qcurve"/>
      <point x="225" y="-166" type="line"/>
      <point x="353" y="-162" type="line"/>
      <point x="602" y="476" type="line"/>
      <point x="441" y="473" type="line"/>
      <point x="347" y="144" type="line"/>
    </contour>
    <contour>
      <point x="79" y="478" type="qcurve"/>
      <point x="233" y="478" type="line"/>
      <point x="235" y="478"/>
      <point x="235" y="476" type="qcurve"/>
      <point x="345" y="153" type="line"/>
      <point x="437" y="476" type="line"/>
      <point x="438" y="478"/>
      <point x="439" y="478" type="qcurve"/>
      <point x="606" y="480"/>
      <point x="606" y="480" type="qcurve"/>
      <point x="608" y="480"/>
      <point x="608" y="478" type="qcurve"/>
      <point x="608" y="478"/>
      <point x="608" y="477" type="qcurve"/>
      <point x="357" y="-165" type="line"/>
      <point x="356" y="-167"/>
      <point x="355" y="-167" type="qcurve"/>
      <point x="222" y="-170"/>
      <point x="221" y="-170" type="qcurve"/>
      <point x="219" y="-170"/>
      <point x="219" y="-168" type="qcurve"/>
      <point x="219" y="-168"/>
      <point x="219" y="-167" type="qcurve"/>
      <point x="281" y="15" type="line"/>
      <point x="77" y="474" type="line"/>
      <point x="77" y="475"/>
      <point x="77" y="475" type="qcurve"/>
      <point x="77" y="478"/>
    </contour>
  </outline>
</glyph>
<glyph name="z" format="2">
  <advance width="512"/>
  <unicode hex="007A"/>
  <outline>
    <contour>
      <point x="0" y="5" type="line"/>
      <point x="0" y="157" type="line"/>
      <point x="243" y="361" type="line"/>
      <point x="0" y="361" type="line"/>
      <point x="0" y="513" type="line"/>
      <point x="453" y="513" type="line"/>
      <point x="453" y="361" type="line"/>
      <point x="251" y="157" type="line"/>
      <point x="453" y="157" type="line"/>
      <point x="453" y="5" type="line"/>
    </contour>
  </outline>
</glyph>
<glyph name="braceleft" format="2">
  <advance width="419"/>
  <unicode hex="007B"/>
  <outline>
    <contour>
      <point x="404" y="60" type="qcurve"/>
      <point x="380" y="60"/>
      <point x="365" y="87" type="qcurve"/>
      <point x="365" y="87"/>
      <point x="365" y="88" type="qcurve"/>
      <point x="365" y="240" type="line"/>
      <point x="292" y="367" type="line"/>
      <point x="292" y="367"/>
      <point x="292" y="369"/>
      <point x="293" y="369" type="qcurve"/>
      <point x="366" y="459" type="line"/>
      <point x="365" y="624" type="line"/>
      <point x="365" y="625"/>
      <point x="365" y="625" type="qcurve"/>
      <point x="381" y="654"/>
      <point x="404" y="654" type="qcurve"/>
      <point x="421" y="654"/>
      <point x="435" y="638" type="qcurve"/>
      <point x="435" y="752" type="line"/>
      <point x="422" y="758"/>
      <point x="404" y="758" type="qcurve"/>
      <point x="365" y="758"/>
      <point x="305" y="684"/>
      <point x="294" y="625" type="qcurve"/>
      <point x="293" y="472" type="line"/>
      <point x="293" y="471"/>
      <point x="292" y="471" type="qcurve"/>
      <point x="196" y="358" type="line"/>
      <point x="292" y="242" type="line"/>
      <point x="293" y="242"/>
      <point x="293" y="241" type="qcurve"/>
      <point x="294" y="88" type="line"/>
      <point x="305" y="29"/>
      <point x="365" y="-45"/>
      <point x="404" y="-45" type="qcurve"/>
      <point x="422" y="-45"/>
      <point x="435" y="-39" type="qcurve"/>
      <point x="435" y="75" type="line"/>
      <point x="421" y="60"/>
    </contour>
    <contour>
      <point x="404" y="-49" type="qcurve"/>
      <point x="363" y="-49"/>
      <point x="300" y="27"/>
      <point x="289" y="87" type="qcurve"/>
      <point x="289" y="88"/>
      <point x="289" y="88" type="qcurve"/>
      <point x="288" y="240" type="line"/>
      <point x="191" y="356" type="line"/>
      <point x="190" y="357"/>
      <point x="190" y="359"/>
      <point x="191" y="359" type="qcurve"/>
      <point x="288" y="473" type="line"/>
      <point x="289" y="625" type="line"/>
      <point x="289" y="625"/>
      <point x="289" y="626" type="qcurve"/>
      <point x="300" y="686"/>
      <point x="363" y="762"/>
      <point x="404" y="762" type="qcurve"/>
      <point x="424" y="762"/>
      <point x="438" y="756" type="qcurve"/>
      <point x="440" y="755"/>
      <point x="440" y="754" type="qcurve"/>
      <point x="440" y="632" type="line"/>
      <point x="440" y="630"/>
      <point x="437" y="630" type="qcurve"/>
      <point x="436" y="630"/>
      <point x="436" y="631" type="qcurve"/>
      <point x="422" y="649"/>
      <point x="404" y="649" type="qcurve"/>
      <point x="384" y="649"/>
      <point x="369" y="624" type="qcurve"/>
      <point x="370" y="459" type="line"/>
      <point x="370" y="458"/>
      <point x="370" y="457" type="qcurve"/>
      <point x="297" y="368" type="line"/>
      <point x="369" y="242" type="line"/>
      <point x="369" y="241"/>
      <point x="369" y="241" type="qcurve"/>
      <point x="369" y="88" type="line"/>
      <point x="383" y="64"/>
      <point x="404" y="64" type="qcurve"/>
      <point x="422" y="64"/>
      <point x="436" y="82" type="qcurve"/>
      <point x="436" y="83"/>
      <point x="437" y="83" type="qcurve"/>
      <point x="440" y="83"/>
      <point x="440" y="81" type="qcurve"/>
      <point x="440" y="-41" type="line"/>
      <point x="440" y="-42"/>
      <point x="438" y="-43" type="qcurve"/>
      <point x="424" y="-49"/>
    </contour>
  </outline>
</glyph>
<glyph name="bar" format="2">
  <advance width="222"/>
  <unicode hex="007C"/>
  <outline>
    <contour>
      <point x="50" y="866" type="line"/>
      <point x="172" y="866" type="line"/>
      <point x="172" y="-104" type="line"/>
      <point x="50" y="-104" type="line"/>
    </contour>
  </outline>
</glyph>
<glyph name="braceright" format="2">
  <advance width="372"/>
  <unicode hex="007D"/>
  <outline>
    <contour>
      <point x="50" y="-90" type="qcurve"/>
      <point x="50" y="45" type="line"/>
      <point x="66" y="24"/>
      <point x="87" y="24" type="qcurve"/>
      <point x="112" y="24"/>
      <point x="128" y="53" type="qcurve"/>
      <point x="128" y="223" type="line"/>
      <point x="209" y="364" type="line"/>
      <point x="127" y="465" type="line"/>
      <point x="128" y="649" type="line"/>
      <point x="111" y="679"/>
      <point x="87" y="679" type="qcurve"/>
      <point x="66" y="679"/>
      <point x="50" y="658" type="qcurve"/>
      <point x="50" y="793" type="line"/>
      <point x="65" y="800"/>
      <point x="87" y="800" type="qcurve"/>
      <point x="131" y="800"/>
      <point x="200" y="716"/>
      <point x="212" y="650" type="qcurve"/>
      <point x="213" y="480" type="line"/>
      <point x="322" y="353" type="line"/>
      <point x="213" y="223" type="line"/>
      <point x="212" y="53" type="line"/>
      <point x="200" y="-13"/>
      <point x="131" y="-97"/>
      <point x="87" y="-97" type="qcurve"/>
      <point x="65" y="-97"/>
    </contour>
  </outline>
</glyph>
<glyph name="asciitilde" format="2">
  <advance width="644"/>
  <unicode hex="007E"/>
  <outline>
    <contour>
      <point x="321" y="491" type="qcurve"/>
      <point x="291" y="491"/>
      <point x="206" y="541"/>
      <point x="177" y="541" type="qcurve"/>
      <point x="134" y="541"/>
      <point x="76" y="491" type="qcurve"/>
      <point x="76" y="360" type="line"/>
      <point x="137" y="408"/>
      <point x="180" y="408" type="qcurve"/>
      <point x="209" y="408"/>
      <point x="289" y="358"/>
      <point x="318" y="358" type="qcurve"/>
      <point x="408" y="358" type="line"/>
      <point x="434" y="358"/>
      <point x="488" y="390"/>
      <point x="511" y="416"/>
      <point x="521" y="429" type="qcurve"/>
      <point x="521" y="559" type="line"/>
      <point x="509" y="546"/>
      <point x="481" y="521"/>
      <point x="425" y="491"/>
      <point x="401" y="491" type="qcurve"/>
      <point x="361" y="491"/>
    </contour>
    <contour>
      <point x="177" y="545" type="qcurve"/>
      <point x="207" y="545"/>
      <point x="291" y="496"/>
      <point x="321" y="496" type="qcurve"/>
      <point x="361" y="496"/>
      <point x="401" y="495" type="qcurve"/>
      <point x="418" y="495"/>
      <point x="456" y="511"/>
      <point x="483" y="530"/>
      <point x="510" y="554"/>
      <point x="519" y="564"/>
      <point x="521" y="567" type="qcurve"/>
      <point x="522" y="568"/>
      <point x="523" y="568" type="qcurve"/>
      <point x="525" y="568"/>
      <point x="525" y="565" type="qcurve"/>
      <point x="525" y="429" type="line"/>
      <point x="525" y="427"/>
      <point x="514" y="412"/>
      <point x="492" y="390"/>
      <point x="464" y="368"/>
      <point x="426" y="353"/>
      <point x="408" y="353" type="qcurve"/>
      <point x="318" y="353" type="line"/>
      <point x="289" y="353"/>
      <point x="209" y="404"/>
      <point x="180" y="404" type="qcurve"/>
      <point x="160" y="404"/>
      <point x="108" y="379"/>
      <point x="92" y="366" type="qcurve"/>
      <point x="75" y="354" type="line"/>
      <point x="75" y="353"/>
      <point x="74" y="353" type="qcurve"/>
      <point x="72" y="353"/>
      <point x="72" y="356" type="qcurve"/>
      <point x="72" y="492" type="line"/>
      <point x="72" y="493"/>
      <point x="72" y="494" type="qcurve"/>
      <point x="76" y="498"/>
      <point x="102" y="518"/>
      <point x="156" y="545"/>
    </contour>
  </outline>
</glyph>
<glyph name="exclamdown" format="2">
  <advance width="252"/>
  <unicode hex="00A1"/>
  <outline>
    <contour>
      <point x="202" y="767" type="line"/>
      <point x="202" y="625" type="line"/>
      <point x="50" y="625" type="line"/>
      <point x="50" y="767" type="line"/>
    </contour>
    <contour>
      <point x="202" y="507" type="line"/>
      <point x="202" y="-7" type="line"/>
      <point x="50" y="-7" type="line"/>
      <point x="50" y="507" type="line"/>
    </contour>
  </outline>
</glyph>
<glyph name="cent" format="2">
  <advance width="384"/>
  <unicode hex="00A2"/>
  <outline>
    <contour>
      <point x="334" y="-1" type="line"/>
      <point x="321" y="-2"/>
      <point x="308" y="-2" type="qcurve"/>
      <point x="296" y="-2"/>
      <point x="285" y="-1" type="qcurve"/>
      <point x="285" y="-104" type="line"/>
      <point x="238" y="-104" type="line"/>
      <point x="238" y="8" type="line"/>
      <point x="156" y="30"/>
      <point x="50" y="167"/>
      <point x="50" y="255" type="qcurve"/>
      <point x="50" y="343"/>
      <point x="156" y="480"/>
      <point x="238" y="503" type="qcurve"/>
      <point x="238" y="695" type="line"/>
      <point x="285" y="695" type="line"/>
      <point x="285" y="512" type="line"/>
      <point x="296" y="513"/>
      <point x="308" y="513" type="qcurve"/>
      <point x="321" y="513"/>
      <point x="334" y="512" type="qcurve"/>
      <point x="334" y="359" type="line"/>
      <point x="321" y="362"/>
      <point x="308" y="362" type="qcurve"/>
      <point x="296" y="362"/>
      <point x="285" y="360" type="qcurve"/>
      <point x="285" y="151" type="line"/>
      <point x="296" y="149"/>
      <point x="308" y="149" type="qcurve"/>
      <point x="321" y="149"/>
      <point x="334" y="152" type="qcurve"/>
    </contour>
    <contour>
      <point x="238" y="337" type="line"/>
      <point x="201" y="305"/>
      <point x="201" y="255" type="qcurve"/>
      <point x="201" y="206"/>
      <point x="238" y="174" type="qcurve"/>
    </contour>
  </outline>
</glyph>
<glyph name="sterling" format="2">
  <advance width="864"/>
  <unicode hex="00A3"/>
  <outline>
    <contour>
      <point x="512" y="747" type="qcurve"/>
      <point x="512" y="579" type="line"/>
      <point x="481" y="605"/>
      <point x="441" y="605" type="qcurve"/>
      <point x="392" y="605"/>
      <point x="360" y="568" type="qcurve"/>
      <point x="360" y="506" type="line"/>
      <point x="457" y="506" type="line"/>
      <point x="457" y="354" type="line"/>
      <point x="360" y="354" type="line"/>
      <point x="360" y="161" type="line"/>
      <point x="626" y="161" type="line"/>
      <point x="664" y="193"/>
      <point x="664" y="243" type="qcurve"/>
      <point x="664" y="283"/>
      <point x="638" y="313" type="qcurve"/>
      <point x="806" y="313" type="line"/>
      <point x="814" y="279"/>
      <point x="814" y="243" type="qcurve"/>
      <point x="814" y="155"/>
      <point x="710" y="21"/>
      <point x="628" y="-3" type="qcurve"/>
      <point x="360" y="-4" type="line"/>
      <point x="360" y="-8" type="line"/>
      <point x="193" y="-8" type="line"/>
      <point x="193" y="-5" type="line"/>
      <point x="50" y="-5" type="line"/>
      <point x="50" y="161" type="line"/>
      <point x="194" y="161" type="line"/>
      <point x="195" y="354" type="line"/>
      <point x="98" y="354" type="line"/>
      <point x="98" y="506" type="line"/>
      <point x="196" y="506" type="line"/>
      <point x="196" y="569" type="line"/>
      <point x="220" y="652"/>
      <point x="354" y="756"/>
      <point x="441" y="756" type="qcurve"/>
      <point x="478" y="756"/>
    </contour>
  </outline>
</glyph>
<glyph name="yen" format="2">
  <advance width="612"/>
  <unicode hex="00A5"/>
  <outline>
    <contour>
      <point x="179" y="446" type="line"/>
      <point x="-20" y="760" type="line"/>
      <point x="132" y="760" type="line"/>
      <point x="256" y="589" type="line"/>
      <point x="380" y="760" type="line"/>
      <point x="532" y="760" type="line"/>
      <point x="332" y="445" type="line"/>
      <point x="331" y="445" type="line"/>
      <point x="331" y="391" type="line"/>
      <point x="530" y="391" type="line"/>
      <point x="530" y="329" type="line"/>
      <point x="331" y="329" type="line"/>
      <point x="331" y="253" type="line"/>
      <point x="530" y="253" type="line"/>
      <point x="530" y="191" type="line"/>
      <point x="331" y="191" type="line"/>
      <point x="331" y="-4" type="line"/>
      <point x="179" y="-4" type="line"/>
      <point x="179" y="191" type="line"/>
      <point x="-14" y="191" type="line"/>
      <point x="-14" y="253" type="line"/>
      <point x="179" y="253" type="line"/>
      <point x="179" y="329" type="line"/>
      <point x="-14" y="329" type="line"/>
      <point x="-14" y="391" type="line"/>
      <point x="179" y="391" type="line"/>
    </contour>
  </outline>
</glyph>
<glyph name="brokenbar" format="2">
  <advance width="252"/>
  <unicode hex="00A6"/>
  <outline>
    <contour>
      <point x="192" y="15" type="line"/>
      <point x="192" y="371" type="line"/>
      <point x="60" y="371" type="line"/>
      <point x="60" y="15" type="line"/>
    </contour>
    <contour>
      <point x="197" y="373" type="qcurve"/>
      <point x="197" y="13" type="line"/>
      <point x="197" y="11"/>
      <point x="194" y="11" type="qcurve"/>
      <point x="58" y="11" type="line"/>
      <point x="55" y="11"/>
      <point x="55" y="13" type="qcurve"/>
      <point x="55" y="373" type="line"/>
      <point x="55" y="375"/>
      <point x="58" y="375" type="qcurve"/>
      <point x="194" y="375" type="line"/>
      <point x="197" y="375"/>
    </contour>
    <contour>
      <point x="192" y="456" type="line"/>
      <point x="192" y="788" type="line"/>
      <point x="60" y="788" type="line"/>
      <point x="60" y="456" type="line"/>
    </contour>
    <contour>
      <point x="197" y="790" type="qcurve"/>
      <point x="197" y="453" type="line"/>
      <point x="197" y="451"/>
      <point x="194" y="451" type="qcurve"/>
      <point x="58" y="451" type="line"/>
      <point x="55" y="451"/>
      <point x="55" y="453" type="qcurve"/>
      <point x="55" y="790" type="line"/>
      <point x="55" y="792"/>
      <point x="58" y="792" type="qcurve"/>
      <point x="194" y="792" type="line"/>
      <point x="197" y="792"/>
    </contour>
  </outline>
</glyph>
<glyph name="section" format="2">
  <advance width="599"/>
  <unicode hex="00A7"/>
  <outline>
    <contour>
      <point x="50" y="103" type="qcurve"/>
      <point x="125" y="228" type="line"/>
      <point x="137" y="218"/>
      <point x="147" y="213" type="qcurve"/>
      <point x="185" y="191"/>
      <point x="269" y="212"/>
      <point x="292" y="248" type="qcurve"/>
      <point x="314" y="287"/>
      <point x="265" y="354"/>
      <point x="222" y="361" type="qcurve"/>
      <point x="155" y="397"/>
      <point x="74" y="491"/>
      <point x="53" y="616"/>
      <point x="96" y="685" type="qcurve"/>
      <point x="135" y="749"/>
      <point x="205" y="781" type="qcurve"/>
      <point x="172" y="816"/>
      <point x="139" y="892"/>
      <point x="147" y="986"/>
      <point x="176" y="1034" type="qcurve"/>
      <point x="228" y="1121"/>
      <point x="434" y="1172"/>
      <point x="528" y="1122" type="qcurve"/>
      <point x="531" y="1119"/>
      <point x="546" y="1110"/>
      <point x="549" y="1107" type="qcurve"/>
      <point x="474" y="982" type="line"/>
      <point x="462" y="992"/>
      <point x="452" y="997" type="qcurve"/>
      <point x="414" y="1018"/>
      <point x="329" y="997"/>
      <point x="307" y="960" type="qcurve"/>
      <point x="282" y="919"/>
      <point x="323" y="821"/>
      <point x="371" y="813" type="qcurve"/>
      <point x="394" y="801"/>
      <point x="413" y="789" type="qcurve"/>
      <point x="431" y="782"/>
      <point x="448" y="773" type="qcurve"/>
      <point x="451" y="770"/>
      <point x="466" y="761"/>
      <point x="469" y="758" type="qcurve"/>
      <point x="465" y="751" type="line"/>
      <point x="580" y="653"/>
      <point x="502" y="525" type="qcurve"/>
      <point x="456" y="447"/>
      <point x="366" y="417" type="qcurve"/>
      <point x="505" y="313"/>
      <point x="422" y="176" type="qcurve"/>
      <point x="370" y="88"/>
      <point x="165" y="37"/>
      <point x="71" y="88" type="qcurve"/>
      <point x="68" y="91"/>
      <point x="53" y="100"/>
    </contour>
    <contour>
      <point x="214" y="570" type="qcurve"/>
      <point x="220" y="565"/>
      <point x="227" y="562" type="qcurve"/>
      <point x="265" y="540"/>
      <point x="349" y="561"/>
      <point x="372" y="597" type="qcurve"/>
      <point x="385" y="620"/>
      <point x="381" y="643" type="qcurve"/>
      <point x="377" y="646"/>
      <point x="372" y="648" type="qcurve"/>
      <point x="334" y="669"/>
      <point x="249" y="648"/>
      <point x="227" y="611" type="qcurve"/>
      <point x="216" y="592"/>
    </contour>
  </outline>
</glyph>
